<?xml version="1.0" standalone="no"?>
<!DOCTYPE svg PUBLIC "-//W3C//DTD SVG 1.1//EN" "http://www.w3.org/Graphics/SVG/1.1/DTD/svg11.dtd" >
<svg>
<metadata>
Created by FontForge 20090914 at Mon Dec 26 16:56:59 2022
 By www-data
Copyright 2020 The Spartan Project Authors (https://github.com/bghryct/Spartan-MB)
</metadata>
<defs>
<font id="Spartan-SemiBold" horiz-adv-x="1447" >
  <font-face 
    font-family="Spartan SemiBold"
    font-weight="600"
    font-stretch="normal"
    units-per-em="2000"
    panose-1="0 0 0 0 0 0 0 0 0 0"
    ascent="1600"
    descent="-400"
    x-height="1024"
    cap-height="1650"
    bbox="-551 -592 3089 2334"
    underline-thickness="100"
    underline-position="-100"
    unicode-range="U+000D-U+FB02"
  />
<missing-glyph horiz-adv-x="1000" 
d="M100 0v1066h800v-1066h-800zM200 100h600v866h-600v-866z" />
    <glyph glyph-name="fi" unicode="fi" horiz-adv-x="1197" 
d="M226 0h249v835h328v-835h249v1024h-577v292c0 76 12.833 131.167 38.5 165.5s67.834 51.5 126.501 51.5c39.333 0 79 -10.167 119 -30.5s71.333 -43.833 94 -70.5l95 167c-36 39.333 -87.333 74.333 -154 105s-141.334 46 -224.001 46c-106.667 0 -190.667 -38 -252 -114
s-92 -181.667 -92 -317v-295h-124v-189h124v-835z" />
    <glyph glyph-name="fl" unicode="fl" horiz-adv-x="1287" 
d="M227 0h248v835h249v189h-249v292c0 76 10.167 130.667 30.5 164s55.5 50 105.5 50c20.667 0 39.834 -2.5 57.501 -7.5s32.834 -10.833 45.501 -17.5l43 202c-18.667 10.667 -43.834 20.5 -75.501 29.5s-69.167 13.5 -112.5 13.5c-106.667 0 -190.334 -38 -251.001 -114
s-91 -181.667 -91 -317v-295h-125v-189h125v-835zM825 0h248v1720h-248v-1720z" />
    <glyph glyph-name="f_f" unicode="ff" horiz-adv-x="1468" 
d="M232 0l249.002 -0.000976562v835h346v-835h249v835h249v189h-249v292c0 76 10.167 130.667 30.5 164s55.166 50 104.499 50c25.333 0 47.5 -3 66.5 -9s34.5 -13.333 46.5 -22l87 175c-22.667 17.333 -54.167 34.333 -94.5 51s-89.166 25 -146.499 25
c-106.667 0 -190.5 -38 -251.5 -114s-91.5 -181.667 -91.5 -317v-295h-346v292c0 76 10.167 130.667 30.5 164s55.5 50 105.5 50c21.333 0 40.833 -2.5 58.5 -7.5s32.167 -10.833 43.5 -17.5l88 176c-22.667 16.667 -53.834 32.334 -93.501 47.001s-85.834 22 -138.501 22
c-106.667 0 -190.5 -38 -251.5 -114s-91.5 -181.667 -91.5 -317v-295h-124v-189h124v-835z" />
    <glyph glyph-name="f_f_i" unicode="ffi" horiz-adv-x="1837" 
d="M248 0l249.003 -0.000976562v835h347v-835h249v835h327v-835h249v1024h-576v292c0 76 12.833 131.167 38.5 165.5s67.834 51.5 126.501 51.5c39.333 0 79 -10.167 119 -30.5s71.333 -43.833 94 -70.5l95 167c-36 39.333 -87.333 74.333 -154 105s-141.334 46 -224.001 46
c-106.667 0 -190.667 -38 -252 -114s-92 -181.667 -92 -317v-295h-347v292c0 76 10.167 130.667 30.5 164s55.166 50 104.499 50c21.333 0 40.833 -2.5 58.5 -7.5s32.167 -10.833 43.5 -17.5l89 176c-22.667 16.667 -53.834 32.334 -93.501 47.001s-85.834 22 -138.501 22
c-106.667 0 -190.5 -38 -251.5 -114s-91.5 -181.667 -91.5 -317v-295h-125v-189h125v-835z" />
    <glyph glyph-name="f_f_l" unicode="ffl" horiz-adv-x="1883" 
d="M227 0l249.004 -0.000976562v835h346v-835h249v835h248v189h-248v292c0 76 10.167 130.667 30.5 164s55.166 50 104.499 50c21.333 0 40.833 -2.5 58.5 -7.5s32.834 -10.833 45.501 -17.5l43 202c-18.667 10.667 -43.834 20.5 -75.501 29.5s-69.167 13.5 -112.5 13.5
c-106.667 0 -190.5 -38 -251.5 -114s-91.5 -181.667 -91.5 -317v-295h-346v292c0 76 10.167 130.667 30.5 164s55.166 50 104.499 50c21.333 0 40.833 -2.5 58.5 -7.5s32.5 -10.833 44.5 -17.5l88 176c-22.667 16.667 -53.834 32.334 -93.501 47.001s-85.834 22 -138.501 22
c-106.667 0 -190.5 -38 -251.5 -114s-91.5 -181.667 -91.5 -317v-295h-124v-189h124v-835zM1420 -0.000976562h249v1720h-249v-1720z" />
    <glyph glyph-name=".notdef" horiz-adv-x="1000" 
d="M100 0v1066h800v-1066h-800zM200 100h600v866h-600v-866z" />
    <glyph glyph-name="NULL" horiz-adv-x="0" 
 />
    <glyph glyph-name="NULL" horiz-adv-x="0" 
 />
    <glyph glyph-name="CR" unicode="&#xd;" horiz-adv-x="530" 
 />
    <glyph glyph-name="space" unicode=" " horiz-adv-x="530" 
 />
    <glyph glyph-name="exclam" unicode="!" horiz-adv-x="761" 
d="M288 467h185l31 1253h-247zM380 -32c45.333 0 84 16.167 116 48.5s48 71.166 48 116.499s-16 84.166 -48 116.499s-70.667 48.5 -116 48.5c-46 0 -85 -16.167 -117 -48.5s-48 -71.166 -48 -116.499s16 -84.166 48 -116.499s71 -48.5 117 -48.5z" />
    <glyph glyph-name="quotedbl" unicode="&#x22;" horiz-adv-x="999" 
d="M591 1099h154l45 570h-245zM254 1099h154l45 570h-244z" />
    <glyph glyph-name="numbersign" unicode="#" horiz-adv-x="1519" 
d="M305 0h170l53 429h373l-54 -429h169l53 429h283v170h-262l48 351h214v170h-194l55 430h-170l-55 -430h-372l56 430h-170l-55 -430h-280v-170h260l-47 -351h-213v-170h192zM549 599l47 351h372l-47 -351h-372z" />
    <glyph glyph-name="dollar" unicode="$" horiz-adv-x="1455" 
d="M680 -276h155.999v255c138.667 16.667 249 68 331 154s123 194.667 123 326c0 88.667 -19.833 163.334 -59.5 224.001s-97.167 113.834 -172.5 159.501s-166 89.5 -272 131.5c-46 18 -90 37.167 -132 57.5s-76.167 45.5 -102.5 75.5s-39.5 68.333 -39.5 115
c0 62.667 23.667 115 71 157s108.666 63 183.999 63c64.667 0 128.167 -13.833 190.5 -41.5s112.833 -63.834 151.5 -108.501l115 201c-42 47.333 -98.333 87.833 -169 121.5s-143.667 54.167 -219 61.5v250h-156v-254c-86 -12 -160.5 -40.667 -223.5 -86
s-111.833 -101 -146.5 -167s-52 -136 -52 -210c0 -70.667 15.333 -131.5 46 -182.5s72.334 -95 125.001 -132s112.334 -70.167 179.001 -99.5c76 -32.667 144 -63.834 204 -93.501s107.5 -64 142.5 -103s52.5 -88.5 52.5 -148.5c0 -72.667 -25.833 -130.5 -77.5 -173.5
s-118.5 -64.5 -200.5 -64.5c-83.333 0 -167.5 21.667 -252.5 65s-154.833 100.333 -209.5 171l-137 -211c31.333 -46.667 76.5 -90 135.5 -130s124.833 -72.333 197.5 -97s145 -38 217 -40v-246z" />
    <glyph glyph-name="percent" unicode="%" horiz-adv-x="2100" 
d="M557 892c80.667 0 153.167 16.667 217.5 50s115.333 79.666 153 138.999s56.5 127.666 56.5 204.999s-18.833 145.666 -56.5 204.999s-88.667 105.666 -153 138.999s-136.833 50 -217.5 50s-153.334 -16.667 -218.001 -50s-115.834 -79.666 -153.501 -138.999
s-56.5 -127.666 -56.5 -204.999s18.833 -145.666 56.5 -204.999s88.834 -105.666 153.501 -138.999s137.334 -50 218.001 -50zM483 0h174l960 1650h-174zM557 1047c-67.333 0 -124 22.333 -170 67s-69 102 -69 172s23 127.333 69 172s102.667 67 170 67
s124 -22.167 170 -66.5s69 -101.833 69 -172.5c0 -70 -23 -127.333 -69 -172s-102.667 -67 -170 -67zM1543 -31c80.667 0 153.334 16.667 218.001 50s115.834 79.666 153.501 138.999s56.5 127.666 56.5 204.999s-18.833 145.666 -56.5 204.999
s-88.834 105.666 -153.501 138.999s-137.334 50 -218.001 50s-153.334 -16.667 -218.001 -50s-115.834 -79.666 -153.501 -138.999s-56.5 -127.666 -56.5 -204.999s18.833 -145.666 56.5 -204.999s88.834 -105.666 153.501 -138.999s137.334 -50 218.001 -50zM1543 124
c-66.667 0 -123.167 22.333 -169.5 67s-69.5 102 -69.5 172s23.167 127.333 69.5 172s102.833 67 169.5 67c67.333 0 124 -22.333 170 -67s69 -102 69 -172s-23 -127.333 -69 -172s-102.667 -67 -170 -67z" />
    <glyph glyph-name="ampersand" unicode="&#x26;" horiz-adv-x="1819" 
d="M659 -32c103.333 0 201.498 20.668 294.498 62.001s179.167 99.333 258.5 174l190 -204h328l-325 347c32 32 67.667 71.167 107 117.5l110 134.5l-163 151l-60.5 -70.5l-82 -91.5c-28.333 -30.667 -53.5 -55.334 -75.5 -74.001l-336 360
c109.333 56.667 192.666 118 249.999 184s86 142.333 86 229c0 66.667 -17 130 -51 190s-84.167 109 -150.5 147s-148.166 57 -245.499 57c-84 0 -160.167 -15.667 -228.5 -47s-122.666 -76.333 -162.999 -135s-60.5 -129 -60.5 -211c0 -60.667 14.333 -119.667 43 -177
s79.334 -126 152.001 -206c-132.667 -58 -232.167 -127.167 -298.5 -207.5s-99.5 -174.5 -99.5 -282.5c0 -91.333 22.333 -170.5 67 -237.5s106.167 -118.667 184.5 -155s167.833 -54.5 268.5 -54.5zM769.998 1019c-60.667 58 -103.334 107.668 -128.001 149.001
s-37 83.666 -37 126.999c0 57.333 18.833 104.666 56.5 141.999s85.834 56 144.501 56c58 0 106.833 -18.833 146.5 -56.5s59.5 -86.5 59.5 -146.5c0 -58.667 -20.667 -108.167 -62 -148.5s-101.333 -81.166 -180 -122.499zM692.998 216.002
c-72.667 0 -134.668 20.332 -186.001 60.999s-77 99 -77 175c0 66 21.333 126.333 64 181s102.334 98.334 179.001 131.001l369 -383c-110 -110 -226.333 -165 -349 -165z" />
    <glyph glyph-name="quotesingle" unicode="'" horiz-adv-x="662" 
d="M254 1099h154l45 570h-244z" />
    <glyph glyph-name="parenleft" unicode="(" horiz-adv-x="742" 
d="M494 -520l160.999 68.999c-45.333 67.333 -90.166 153.5 -134.499 258.5s-81 225.667 -110 362s-43.5 284.5 -43.5 444.5c0 167.333 15.167 320 45.5 458s67.833 258.667 112.5 362s88 185.666 130 246.999l-161 69c-39.333 -50.667 -80 -114 -122 -190
s-81 -162.667 -117 -260s-65.167 -203.666 -87.5 -318.999s-33.5 -237.666 -33.5 -366.999s11.167 -251.5 33.5 -366.5s51.5 -220.833 87.5 -317.5s75 -183 117 -259s82.667 -139.667 122 -191z" />
    <glyph glyph-name="parenright" unicode=")" horiz-adv-x="742" 
d="M248 -520c119.333 159.333 208.833 337.499 268.5 534.499s89.5 397.167 89.5 600.5c0 209.333 -30.833 412.333 -92.5 609s-150.167 372 -265.5 526l-161 -69c62.667 -93.333 115.334 -197.666 158.001 -312.999s74.834 -237 96.501 -365s32.5 -257.667 32.5 -389
c0 -134 -11.333 -265.333 -34 -394s-55.334 -250 -98.001 -364s-94.334 -216.333 -155.001 -307z" />
    <glyph glyph-name="asterisk" unicode="*" horiz-adv-x="966" 
d="M358 1157l123 164l125 -164l93 64l-119 173l200 70l-36 111l-200 -62v207h-124v-207l-200 62l-36 -111l199 -70l-117 -173z" />
    <glyph glyph-name="plus" unicode="+" horiz-adv-x="1374" 
d="M579 316h215v405h406v216h-406v405h-215v-405h-405v-216h405v-405z" />
    <glyph glyph-name="comma" unicode="," horiz-adv-x="745" 
d="M300 -308c75.333 61.333 135.168 130.168 179.501 206.501s66.5 149.166 66.5 218.499c0 57.333 -15 101.833 -45 133.5s-70.333 47.5 -121 47.5c-49.333 0 -89.5 -15 -120.5 -45s-46.5 -69 -46.5 -117c0 -38.667 11.5 -71.834 34.5 -99.501s53.833 -46.167 92.5 -55.5
c-4.66699 -39.333 -18.334 -82.166 -41.001 -128.499s-45.667 -80.833 -69 -103.5z" />
    <glyph glyph-name="hyphen" unicode="-" horiz-adv-x="1030" 
d="M193 472h644v215h-644v-215z" />
    <glyph glyph-name="period" unicode="." horiz-adv-x="797" 
d="M398 -32c45.333 0 84 16.167 116 48.5s48 71.166 48 116.499s-16 84.166 -48 116.499s-70.667 48.5 -116 48.5c-46 0 -85.167 -16.167 -117.5 -48.5s-48.5 -71.166 -48.5 -116.499s16.167 -84.166 48.5 -116.499s71.5 -48.5 117.5 -48.5z" />
    <glyph glyph-name="slash" unicode="/" horiz-adv-x="1024" 
d="M-5 -240h210l824 1960h-210z" />
    <glyph glyph-name="zero" unicode="0" horiz-adv-x="1618" 
d="M809 -32c134.667 0 252.667 35.833 354 107.5s180.333 171.834 237 300.501s85 278 85 448s-28.333 319.333 -85 448s-135.667 228.834 -237 300.501s-219.333 107.5 -354 107.5s-252.667 -35.833 -354 -107.5s-180.333 -171.834 -237 -300.501s-85 -278 -85 -448
s28.333 -319.333 85 -448s135.667 -228.834 237 -300.501s219.333 -107.5 354 -107.5zM809 200c-81.333 0 -152 25.333 -212 76s-106.333 122.834 -139 216.501s-49 204.167 -49 331.5c0 128 16.333 238.667 49 332s79 165.333 139 216s130.667 76 212 76
s152 -25.333 212 -76s106.333 -122.667 139 -216s49 -204 49 -332c0 -127.333 -16.333 -237.833 -49 -331.5s-79 -165.834 -139 -216.501s-130.667 -76 -212 -76z" />
    <glyph glyph-name="one" unicode="1" horiz-adv-x="786" 
d="M293 0h262v1650h-475v-257h213v-1393z" />
    <glyph glyph-name="two" unicode="2" horiz-adv-x="1451" 
d="M87 0l1227 -0.00195312v236h-738c133.333 100 245.333 190.5 336 271.5s163.334 156.333 218.001 226s94 136.667 118 201s36 129.833 36 196.5c0 105.333 -25.5 199.5 -76.5 282.5s-120.5 148.333 -208.5 196s-188 71.5 -300 71.5
c-101.333 0 -193.166 -20.667 -275.499 -62s-151.166 -99.5 -206.499 -174.5s-93.333 -162.5 -114 -262.5l224 -98c23.333 111.333 67 199.166 131 263.499s139.333 96.5 226 96.5c60 0 113.833 -14.333 161.5 -43s85.5 -67.167 113.5 -115.5s42 -102.166 42 -161.499
c0 -54 -15.333 -111.167 -46 -171.5s-81.167 -128.666 -151.5 -204.999s-164 -164.666 -281 -264.999s-262.167 -217.5 -435.5 -351.5v-131z" />
    <glyph glyph-name="three" unicode="3" horiz-adv-x="1345" 
d="M643 -32c112.667 0 211.001 21.832 295.001 65.499s149.333 103.5 196 179.5s70 162 70 258c0 94.667 -23 176.334 -69 245.001s-105.667 119.667 -179 153c62.667 34 112 81.833 148 143.5s54 130.167 54 205.5c0 88 -21.833 166.833 -65.5 236.5
s-103.334 124.667 -179.001 165s-161.5 60.5 -257.5 60.5c-84 0 -161.333 -16.333 -232 -49s-129.667 -77.834 -177 -135.501s-78.333 -124.5 -93 -200.5l211 -92c4.66699 50 20.334 94.833 47.001 134.5s61 71 103 94s87.667 34.5 137 34.5s94 -11.167 134 -33.5
s71.833 -52.666 95.5 -90.999s35.5 -81.166 35.5 -128.499c0 -48 -12.167 -92.5 -36.5 -133.5s-56.833 -74.167 -97.5 -99.5s-86.334 -38 -137.001 -38h-68v-179c18 6.66699 41 10 69 10c54 0 103 -13.333 147 -40s79.167 -63 105.5 -109s39.5 -97.667 39.5 -155
c0 -81.333 -26.833 -146.833 -80.5 -196.5s-125.167 -74.5 -214.5 -74.5c-95.333 0 -173 27.5 -233 82.5s-92 126.167 -96 213.5l-246 -109c18 -83.333 53.5 -156.333 106.5 -219s119.5 -111.334 199.5 -146.001s169.333 -52 268 -52z" />
    <glyph glyph-name="four" unicode="4" horiz-adv-x="1394" 
d="M853 0h247v308h192v230h-192v1112h-260l-811 -1253v-89h824v-308zM381 538l472 758v-758h-472z" />
    <glyph glyph-name="five" unicode="5" horiz-adv-x="1400" 
d="M669 -31c112 0 213.5 22.166 304.5 66.499s163.333 108.5 217 192.5s80.5 186 80.5 306c0 129.333 -34.333 238.166 -103 326.499s-159.334 144.833 -272.001 169.5c-132.667 41.333 -270 37.333 -412 -12l62 402h619v230h-842l-138 -887c107.333 88.667 230 133 368 133
c90.667 0 170.334 -15.167 239.001 -45.5s122.334 -73.666 161.001 -129.999s58 -123.5 58 -201.5c0 -99.333 -31.333 -179.333 -94 -240s-146.667 -91 -252 -91c-88.667 0 -166.334 21.833 -233.001 65.5s-112 101.834 -136 174.501l-208 -101
c28 -76 70.833 -140.667 128.5 -194s125.5 -94 203.5 -122s161 -42 249 -42z" />
    <glyph glyph-name="six" unicode="6" horiz-adv-x="1423" 
d="M726 -32c117.333 0 220.834 23.998 310.501 71.998s159.667 114.833 210 200.5s75.5 184.5 75.5 296.5c0 110.667 -23.333 208.5 -70 293.5s-109.834 151.667 -189.501 200s-169.167 72.5 -268.5 72.5c-66 0 -125 -13.333 -177 -40l494 587h-317l-466 -560
c-68.667 -82.667 -123 -172.667 -163 -270s-60 -189.666 -60 -276.999c0 -104 25.667 -199.667 77 -287s123.5 -157.166 216.5 -209.499s202.167 -78.5 327.5 -78.5zM714.001 187.998c-68 0 -127.5 15.166 -178.5 45.499s-90.667 71.166 -119 122.499s-42.5 108 -42.5 170
c0 66.667 15.5 126.5 46.5 179.5s72.833 95 125.5 126s111 46.5 175 46.5c63.333 0 120.5 -15.167 171.5 -45.5s91.667 -71.666 122 -123.999s45.5 -112.166 45.5 -179.499c0 -65.333 -15 -123.833 -45 -175.5s-71 -92.167 -123 -121.5s-111.333 -44 -178 -44z" />
    <glyph glyph-name="seven" unicode="7" horiz-adv-x="1298" 
d="M74 0h310l872 1571v79h-1149v-230h762z" />
    <glyph glyph-name="eight" unicode="8" horiz-adv-x="1399" 
d="M699 -32c107.333 0 203.999 20.834 289.999 62.501s154.167 98.834 204.5 171.501s75.5 155 75.5 247c0 97.333 -27.167 184.833 -81.5 262.5s-127.166 134.834 -218.499 171.501c71.333 35.333 128.166 86.166 170.499 152.499s63.5 139.5 63.5 219.5
c0 66 -14.167 125.167 -42.5 177.5s-66.666 96.833 -114.999 133.5s-102.333 64.834 -162 84.501s-121.167 29.5 -184.5 29.5c-93.333 0 -178 -18.667 -254 -56s-136.5 -88 -181.5 -152s-67.5 -136.667 -67.5 -218c0 -77.333 20.667 -149.333 62 -216
s98.333 -118.334 171 -155.001c-89.333 -36 -161.5 -92.833 -216.5 -170.5s-82.5 -165.167 -82.5 -262.5c0 -92.667 25.167 -175.334 75.5 -248.001s118.5 -129.834 204.5 -171.501s182.333 -62.5 289 -62.5zM698.999 981.001c-71.333 0 -130.833 23.5 -178.5 70.5
s-71.5 106.167 -71.5 177.5s24 131 72 179s107.333 72 178 72c72 0 131.833 -24 179.5 -72s71.5 -107.667 71.5 -179s-23.667 -130.5 -71 -177.5s-107.333 -70.5 -180 -70.5zM698.999 196.001c-84 0 -152.332 26.668 -204.999 80.001s-79 120.333 -79 201
c0 55.333 12.5 104.166 37.5 146.499s59 75.5 102 99.5s91.167 36 144.5 36c82 0 150 -26.667 204 -80s81 -121 81 -203c0 -80 -26.333 -146.667 -79 -200s-121.334 -80 -206.001 -80z" />
    <glyph glyph-name="nine" unicode="9" horiz-adv-x="1423" 
d="M309 0h317.999l465 560c47.333 57.333 87.833 112.833 121.5 166.5s59.334 110.667 77.001 171s26.167 128.833 25.5 205.5c0 108 -26 205.667 -78 293s-124.667 156.666 -218 207.999s-202 77 -326 77c-122.667 0 -228.334 -25 -317.001 -75
s-157.167 -117.667 -205.5 -203s-72.5 -181 -72.5 -287c0 -83.333 14.5 -159.666 43.5 -228.999s68.667 -129.5 119 -180.5s107.833 -90.333 172.5 -118s132.667 -41.5 204 -41.5c66.667 0 124.334 16 173.001 48zM705.999 775c-65.333 0 -124 15.167 -176 45.5
s-93 71.5 -123 123.5s-45 111 -45 177c0 65.333 15 123.333 45 174s70.833 90.667 122.5 120s110.5 44 176.5 44c65.333 0 123.5 -14.5 174.5 -43.5s91 -68.833 120 -119.5s43.5 -109 43.5 -175c0 -64 -15.167 -122.167 -45.5 -174.5s-71 -94 -122 -125
s-107.833 -46.5 -170.5 -46.5z" />
    <glyph glyph-name="colon" unicode=":" horiz-adv-x="765" 
d="M379 812c46 0 85 16 117 48s48 70.667 48 116c0 46 -16 85 -48 117s-71 48 -117 48c-45.333 0 -84 -16 -116 -48s-48 -71 -48 -117c0 -45.333 16 -84 48 -116s70.667 -48 116 -48zM379 -32c46 0 85 16.167 117 48.5s48 71.166 48 116.499s-16 84.166 -48 116.499
s-71 48.5 -117 48.5c-45.333 0 -84 -16.167 -116 -48.5s-48 -71.166 -48 -116.499s16 -84.166 48 -116.499s70.667 -48.5 116 -48.5z" />
    <glyph glyph-name="semicolon" unicode=";" horiz-adv-x="749" 
d="M379 812c46 0 85 16 117 48s48 70.667 48 116c0 46 -16 85 -48 117s-71 48 -117 48c-45.333 0 -84 -16 -116 -48s-48 -71 -48 -117c0 -45.333 16 -84 48 -116s70.667 -48 116 -48zM300 -308c75.333 61.333 135.168 130.168 179.501 206.501s66.5 149.166 66.5 218.499
c0 57.333 -15 101.833 -45 133.5s-70.333 47.5 -121 47.5c-49.333 0 -89.5 -15 -120.5 -45s-46.5 -69 -46.5 -117c0 -38.667 11.5 -71.834 34.5 -99.501s53.833 -46.167 92.5 -55.5c-4.66699 -39.333 -18.334 -82.166 -41.001 -128.499s-45.667 -80.833 -69 -103.5z" />
    <glyph glyph-name="less" unicode="&#x3c;" horiz-adv-x="1453" 
d="M1244 270v202l-828 360l828 360v202l-1093 -480v-164z" />
    <glyph glyph-name="equal" unicode="=" horiz-adv-x="1605" 
d="M289 943h1027v215h-1027v-215zM289 502h1027v215h-1027v-215z" />
    <glyph glyph-name="greater" unicode="&#x3e;" horiz-adv-x="1453" 
d="M209 270l1093 480v164l-1093 480v-202l828 -360l-828 -360v-202z" />
    <glyph glyph-name="question" unicode="?" horiz-adv-x="1259" 
d="M473 479h230.998v218c83.333 10 157.666 37.667 222.999 83s117 103.166 155 173.499s57 147.166 57 230.499c0 91.333 -22.833 174.5 -68.5 249.5s-108.667 134.833 -189 179.5s-172.5 67 -276.5 67c-88.667 0 -170.167 -17.5 -244.5 -52.5
s-135.666 -85.667 -183.999 -152s-78.166 -146.166 -89.499 -239.499l208 -41c8.66699 82.667 40.334 147.167 95.001 193.5s125.334 69.5 212.001 69.5c92 0 165.333 -24.167 220 -72.5s82 -115.166 82 -200.499c0 -89.333 -29.667 -158.333 -89 -207
s-138.333 -73 -237 -73c-20.667 0 -39.834 1.16699 -57.501 3.5s-33.5 4.83301 -47.5 7.5v-437zM586.998 -32c46 0 85 16.167 117 48.5s48 71.166 48 116.499s-16 84.166 -48 116.499s-71 48.5 -117 48.5c-45.333 0 -84 -16.167 -116 -48.5s-48 -71.166 -48 -116.499
s16 -84.166 48 -116.499s70.667 -48.5 116 -48.5z" />
    <glyph glyph-name="at" unicode="@" horiz-adv-x="2046" 
d="M1045 -447c99.333 0 188.828 13.166 268.495 39.499s148.834 61 207.501 104s106 89.5 142 139.5l-167 109c-41.333 -49.333 -100.166 -93.333 -176.499 -132s-167.166 -58 -272.499 -58c-96 0 -184.667 16.833 -266 50.5s-152 80.5 -212 140.5
s-106.667 129.667 -140 209s-50 164.666 -50 255.999c0 90 16.167 175.333 48.5 256s78.166 152.167 137.499 214.5s130.5 111.333 213.5 147s174.833 53.5 275.5 53.5c80.667 0 160.667 -12.667 240 -38s151.666 -64 216.999 -116s117.5 -117.833 156.5 -197.5
s58.5 -173.834 58.5 -282.501c0 -88.667 -13.167 -154 -39.5 -196s-59.5 -63 -99.5 -63c-44 0 -74.667 14.333 -92 43s-26 61.667 -26 99v480h-162v-139c-32.667 50 -76.5 89.833 -131.5 119.5s-116.167 44.5 -183.5 44.5c-80 0 -151.333 -19.167 -214 -57.5
s-112 -90.666 -148 -156.999s-54 -141.5 -54 -225.5s18.167 -159.167 54.5 -225.5s85.5 -118.5 147.5 -156.5s132 -57 210 -57c75.333 0 140.833 17.5 196.5 52.5s99.5 79.833 131.5 134.5c26.667 -31.333 60.667 -57 102 -77s88 -30 140 -30c62 0 118 16.333 168 49
s89.833 80.834 119.5 144.501s44.5 141.167 44.5 232.5c0 124 -22.5 235.5 -67.5 334.5s-106.667 183.333 -185 253s-168.166 122.834 -269.499 159.501s-208.333 55 -321 55c-121.333 0 -235.166 -21.167 -341.499 -63.5s-199.666 -101.833 -279.999 -178.5
s-143.166 -167.167 -188.499 -271.5s-68 -218.833 -68 -343.5c0 -123.333 22.333 -237 67 -341s107 -194.5 187 -271.5s173 -136.667 279 -179s220.333 -63.5 343 -63.5zM1032 112.999c-78.667 0 -143.832 26.499 -195.499 79.499s-77.5 120.833 -77.5 203.5
c0 85.333 26.333 154.833 79 208.5s118 80.5 196 80.5s143.167 -26.833 195.5 -80.5s78.5 -122.5 78.5 -206.5c0 -83.333 -25.833 -151.666 -77.5 -204.999s-117.834 -80 -198.501 -80z" />
    <glyph glyph-name="A" unicode="A" horiz-adv-x="1662" 
d="M52 0h281l163 430h670l162 -430h282l-658 1650h-243zM585 660l245 638l247 -638h-492z" />
    <glyph glyph-name="B" unicode="B" horiz-adv-x="1314" 
d="M160 0h555.001c163.333 0 292.166 40.167 386.499 120.5s141.5 191.833 141.5 334.5c0 115.333 -31.667 208.5 -95 279.5s-154.333 115.5 -273 133.5c148 68.667 222 190.667 222 366c0 137.333 -44.833 241 -134.5 311s-214.167 105 -373.5 105h-429v-1650zM422.001 955
v491h109c102.667 0 180.667 -20.667 234 -62s80 -102 80 -182c0 -79.333 -27 -140.333 -81 -183s-131.667 -64 -233 -64h-109zM422.001 206v522h208c109.333 0 193.333 -23 252 -69s88 -111.333 88 -196c0 -83.333 -28.833 -147 -86.5 -191s-142.167 -66 -253.5 -66h-208z
" />
    <glyph glyph-name="C" unicode="C" horiz-adv-x="1558" 
d="M976 -32c103.333 0 200.501 15 291.501 45s168.833 68.667 233.5 116l-115 222c-50 -40 -109.333 -71 -178 -93s-141 -33 -217 -33c-120 0 -227 26.5 -321 79.5s-168 124.667 -222 215s-81 191.833 -81 304.5s27 214.167 81 304.5s128 162 222 215s201 79.5 321 79.5
c76 0 148.333 -11 217 -33s128 -53 178 -93l115 222c-66.667 48.667 -145.667 87.667 -237 117s-188 44 -290 44c-124 0 -239.833 -21.833 -347.5 -65.5s-202.334 -104.5 -284.001 -182.5s-145.5 -168.833 -191.5 -272.5s-69 -215.5 -69 -335.5s23 -231.833 69 -335.5
s109.833 -194.5 191.5 -272.5s176.5 -138.833 284.5 -182.5s224.333 -65.5 349 -65.5z" />
    <glyph glyph-name="D" unicode="D" horiz-adv-x="1621" 
d="M241 0h424.001c117.333 -0 226.5 20.833 327.5 62.5s189.333 100 265 175s134.5 162.5 176.5 262.5s63 208 63 324s-21.167 224.167 -63.5 324.5s-101.333 188 -177 263s-163.834 133.5 -264.501 175.5s-209.667 63 -327 63h-424v-1650zM503.001 235v1180h134
c110 0 208.667 -25.833 296 -77.5s156.333 -122 207 -211s76 -189.5 76 -301.5s-25.333 -212.5 -76 -301.5s-119.667 -159.333 -207 -211s-186 -77.5 -296 -77.5h-134z" />
    <glyph glyph-name="E" unicode="E" horiz-adv-x="1300" 
d="M241 0h887v230h-625v482h601v230h-601v478h625v230h-887v-1650z" />
    <glyph glyph-name="F" unicode="F" horiz-adv-x="1250" 
d="M241 0h262v712h587v230h-587v478h631v230h-893v-1650z" />
    <glyph glyph-name="G" unicode="G" horiz-adv-x="1818" 
d="M939 -32c95.333 0 188 15.834 278 47.501s171.167 77.334 243.5 137.001s129.833 132 172.5 217s64 180.5 64 286.5v213h-763v-205h496v-36c0 -82.667 -22.833 -155.5 -68.5 -218.5s-105.167 -112.167 -178.5 -147.5s-151 -53 -233 -53
c-100.667 0 -191.667 26.833 -273 80.5s-145.833 127.5 -193.5 221.5s-71.5 202 -71.5 324c0 112.667 21.5 215.167 64.5 307.5s105.333 166 187 221s180.834 82.5 297.501 82.5c90.667 0 179.334 -17.167 266.001 -51.5s160 -81.5 220 -141.5l126 202
c-78.667 71.333 -171.834 126.666 -279.501 165.999s-219.167 59 -334.5 59c-128 0 -243.167 -22.833 -345.5 -68.5s-189.5 -108.5 -261.5 -188.5s-127 -171.333 -165 -274s-57 -211 -57 -325c0 -120 20.667 -232 62 -336s98.666 -194.833 171.999 -272.5
s159 -138.334 257 -182.001s204 -65.5 318 -65.5z" />
    <glyph glyph-name="H" unicode="H" horiz-adv-x="1725" 
d="M241 0h262v712h719v-712h261v1650h-261v-708h-719v708h-262v-1650z" />
    <glyph glyph-name="I" unicode="I" horiz-adv-x="744" 
d="M241 0h262v1650h-262v-1650z" />
    <glyph glyph-name="J" unicode="J" horiz-adv-x="1180" 
d="M464 -32c154 0 274.667 43.5 362 130.5s131 208.833 131 365.5v1186h-262v-1116c0 -98.667 -23.667 -176 -71 -232s-113.333 -84 -198 -84c-90 0 -177 40.667 -261 122l-91 -217c109.333 -103.333 239.333 -155 390 -155z" />
    <glyph glyph-name="K" unicode="K" horiz-adv-x="1596" 
d="M241 0h262v716l707 -716h363l-833 848l739 802h-322l-654 -713v713h-262v-1650z" />
    <glyph glyph-name="L" unicode="L" horiz-adv-x="1198" 
d="M241 0h892v230h-630v1420h-262v-1650z" />
    <glyph glyph-name="M" unicode="M" horiz-adv-x="2090" 
d="M158 0h262l131 1176l411 -1114h167l410 1114l132 -1176h261l-182 1650h-278l-427 -1125l-427 1125h-278z" />
    <glyph glyph-name="N" unicode="N" horiz-adv-x="1780" 
d="M241 0h262v1210l774 -1210h262v1650h-262v-1211l-774 1211h-262v-1650z" />
    <glyph glyph-name="O" unicode="O" horiz-adv-x="1919" 
d="M959 -32c115.333 0 223.333 22 324 66s189 105.167 265 183.5s135.5 169.333 178.5 273s64.5 214.834 64.5 333.501c0 119.333 -21.5 230.666 -64.5 333.999s-102.5 194.166 -178.5 272.499s-164.333 139.5 -265 183.5s-208.667 66 -324 66s-223.333 -22 -324 -66
s-189 -105.167 -265 -183.5s-135.5 -169.166 -178.5 -272.499s-64.5 -214.666 -64.5 -333.999c0 -118.667 21.5 -229.834 64.5 -333.501s102.5 -194.667 178.5 -273s164.333 -139.5 265 -183.5s208.667 -66 324 -66zM959 220c-104.667 0 -198.334 26.333 -281.001 79
s-148 124.5 -196 215.5s-72 194.167 -72 309.5s24 218.5 72 309.5s113.333 162.833 196 215.5s176.334 79 281.001 79c105.333 0 199.333 -26.333 282 -79s148 -124.5 196 -215.5s72 -194.167 72 -309.5s-24 -218.5 -72 -309.5s-113.333 -162.833 -196 -215.5
s-176.667 -79 -282 -79z" />
    <glyph glyph-name="P" unicode="P" horiz-adv-x="1399" 
d="M241 0l262 0.000976562v656h252c107.333 0 201.833 20.5 283.5 61.5s145.5 99.333 191.5 175s69 165.834 69 270.501c0 105.333 -23 194.166 -69 266.499s-109.833 127.166 -191.5 164.499s-176.167 56 -283.5 56h-514v-1650zM503 868.001v572.001h175
c98.667 0 181.334 -23 248.001 -69s100 -117.667 100 -215c0 -96.667 -33.333 -168.834 -100 -216.501s-149.334 -71.5 -248.001 -71.5h-175z" />
    <glyph glyph-name="Q" unicode="Q" horiz-adv-x="1939" 
d="M1726 -54l115.999 234c-42 13.333 -85 29.333 -129 48s-88.667 39.667 -134 63c62 71.333 109.833 152.833 143.5 244.5s50.5 187.5 50.5 287.5c0 119.333 -21.5 230.833 -64.5 334.5s-102.5 194.667 -178.5 273s-164.333 139.5 -265 183.5s-208.667 66 -324 66
c-116 0 -224.333 -22.167 -325 -66.5s-189 -105.666 -265 -183.999s-135.333 -169.5 -178 -273.5s-64 -215.667 -64 -335c0 -120 21.167 -231.667 63.5 -335s101.166 -193.833 176.499 -271.5s163.333 -138.167 264 -181.5s209.334 -65 326.001 -65
c174 0 329.333 47.667 466 143c54 -34 107.833 -64.833 161.5 -92.5s106.834 -51.834 159.501 -72.501zM937.999 220c-106 0 -200.169 25.833 -282.502 77.5s-147.166 122.667 -194.499 213s-71 193.833 -71 310.5s23.833 220.667 71.5 312s113.167 163.333 196.5 216
s177.666 79 282.999 79s199.333 -26.167 282 -78.5s147.834 -124 195.501 -215s71.5 -194.833 71.5 -311.5c0 -159.333 -50.333 -293 -151 -401c-54 36.667 -106.333 76.167 -157 118.5s-99 87.5 -145 135.5l-113 -138c37.333 -44.667 77.333 -88 120 -130
s87.334 -82 134.001 -120c-71.333 -45.333 -151.333 -68 -240 -68z" />
    <glyph glyph-name="R" unicode="R" horiz-adv-x="1469" 
d="M241 0h262.001v648h117l494 -648h332l-543 677c123.333 25.333 220.166 81 290.499 167s105.5 192.333 105.5 319c0 153.333 -49 272.833 -147 358.5s-230.333 128.5 -397 128.5h-514v-1650zM503.001 868l-0.000976562 572h175c110 0 195.5 -25 256.5 -75
s91.5 -119.667 91.5 -209c0 -90 -30.667 -160.5 -92 -211.5s-146.666 -76.5 -255.999 -76.5h-175z" />
    <glyph glyph-name="S" unicode="S" horiz-adv-x="1365" 
d="M664 -32c112.667 0 212.166 19.165 298.499 57.498s154 94 203 167s73.5 161.167 73.5 264.5c0 98 -21.833 177.833 -65.5 239.5s-103.5 113.667 -179.5 156s-162.667 82.833 -260 121.5c-49.333 19.333 -94.833 38.5 -136.5 57.5s-74.834 42.667 -99.501 71
s-37 65.833 -37 112.5c0 60 22.333 112.833 67 158.5s108 68.5 190 68.5c70 0 135 -15.167 195 -45.5s108.667 -65.166 146 -104.499l114 199c-31.333 32.667 -71.166 63.334 -119.499 92.001s-101.666 52 -159.999 70s-118.5 27 -180.5 27c-100.667 0 -189 -22 -265 -66
s-135.167 -101.667 -177.5 -173s-63.5 -148.333 -63.5 -231c0 -76 17.333 -140.5 52 -193.5s78.834 -97.333 132.501 -133s108.834 -65.5 165.501 -89.5c79.333 -32.667 149 -63.5 209 -92.5s106.667 -62.667 140 -101s50 -88.166 50 -149.499
c0 -79.333 -27.333 -139.166 -82 -179.499s-122.334 -60.5 -203.001 -60.5c-76 0 -143.667 14.5 -203 43.5s-110 62.167 -152 99.5s-75.333 68.666 -100 93.999l-138 -212c17.333 -20 42.666 -44.833 75.999 -74.5s74.5 -59.334 123.5 -89.001s105.667 -54.5 170 -74.5
s136.5 -30 216.5 -30z" />
    <glyph glyph-name="T" unicode="T" horiz-adv-x="1289" 
d="M514 0h261v1417h450v233h-1160v-233h449v-1417z" />
    <glyph glyph-name="U" unicode="U" horiz-adv-x="1644" 
d="M822 -32c405.333 0 608 206.333 608 619v1063h-262v-992c0 -150 -27.833 -259.667 -83.5 -329s-143.167 -104 -262.5 -104s-206.833 34.667 -262.5 104s-83.5 179 -83.5 329v992h-261v-1063c0 -412.667 202.333 -619 607 -619z" />
    <glyph glyph-name="V" unicode="V" horiz-adv-x="1688" 
d="M742 0h204l692 1650h-295l-499 -1256l-499 1256h-295z" />
    <glyph glyph-name="W" unicode="W" horiz-adv-x="2417" 
d="M552 0h292l365 1143l364 -1143h292l481 1650h-291l-348 -1295l-400 1295h-198l-399 -1295l-348 1295h-292z" />
    <glyph glyph-name="X" unicode="X" horiz-adv-x="1662" 
d="M42 0h325l464 662l464 -662h325l-627 890l527 760h-314l-375 -542l-375 542h-314l528 -760z" />
    <glyph glyph-name="Y" unicode="Y" horiz-adv-x="1503" 
d="M621 0h261v728l588 922h-316l-403 -653l-402 653h-316l588 -922v-728z" />
    <glyph glyph-name="Z" unicode="Z" horiz-adv-x="1559" 
d="M66 0h1359v232h-896l949 1418h-1297v-232h834z" />
    <glyph glyph-name="bracketleft" unicode="[" horiz-adv-x="828" 
d="M232 -520h529v171h-313v1898h313v171h-529v-2240z" />
    <glyph glyph-name="backslash" unicode="\" horiz-adv-x="1024" 
d="M819 0h210l-824 1720h-210z" />
    <glyph glyph-name="bracketright" unicode="]" horiz-adv-x="828" 
d="M66 -520h530v2240h-530v-171h313v-1898h-313v-171z" />
    <glyph glyph-name="asciicircum" unicode="^" horiz-adv-x="1212" 
d="M128 1210h224l254 296l254 -296h224l-414 471h-128z" />
    <glyph glyph-name="underscore" unicode="_" horiz-adv-x="1412" 
d="M193 -201h1026v124h-1026v-124z" />
    <glyph glyph-name="grave" unicode="`" horiz-adv-x="474" 
d="M308 1126l111 87l-246 420l-173 -129z" />
    <glyph glyph-name="a" unicode="a" 
d="M624 -32c77.333 0 148.833 17.168 214.5 51.501s121.167 82.5 166.5 144.5v-164h249v1024h-249v-157c-39.333 59.333 -92.833 105.666 -160.5 138.999s-141.167 50 -220.5 50c-98.667 0 -186.167 -23.667 -262.5 -71s-136.333 -112 -180 -194s-65.5 -174.667 -65.5 -278
c0 -105.333 22.5 -199 67.5 -281s106 -146.5 183 -193.5s162.833 -70.5 257.5 -70.5zM695 181.001c-61.333 0 -116 14.333 -164 43s-85.667 67.834 -113 117.501s-41 106.5 -41 170.5s13.667 121 41 171s65 89.167 113 117.5s102.667 42.5 164 42.5
c62 0 116.833 -14.167 164.5 -42.5s85 -67.333 112 -117s40.5 -106.834 40.5 -171.501c0 -64 -13.5 -121 -40.5 -171s-64.333 -89.167 -112 -117.5s-102.5 -42.5 -164.5 -42.5z" />
    <glyph glyph-name="b" unicode="b" horiz-adv-x="1448" 
d="M825 -32c94 0 179.333 23.3311 256 69.998s137.667 110.834 183 192.501s68 175.5 68 281.5c0 104 -22.167 197 -66.5 279s-105 146.667 -182 194s-164.833 71 -263.5 71c-78.667 0 -151 -16.667 -217 -50s-119.667 -79.666 -161 -138.999v853h-249v-1720h249v164
c44.667 -61.333 100.167 -109.333 166.5 -144s138.5 -52 216.5 -52zM754 180.998c-62 0 -117 14.167 -165 42.5s-85.667 67.333 -113 117s-41 106.5 -41 170.5c0 64.667 13.667 121.834 41 171.501s65.166 88.834 113.499 117.501s103.166 43 164.499 43
c60.667 0 114.834 -14.333 162.501 -43s85.334 -67.834 113.001 -117.501s41.5 -106.834 41.5 -171.501c0 -63.333 -13.5 -120 -40.5 -170s-64.333 -89.167 -112 -117.5s-102.5 -42.5 -164.5 -42.5z" />
    <glyph glyph-name="c" unicode="c" horiz-adv-x="1092" 
d="M671 -32c67.333 0 131 9.83398 191 29.501s110.333 44.834 151 75.501l-90 168c-57.333 -44.667 -128.666 -67 -213.999 -67c-68 0 -127.833 15 -179.5 45s-92 70.5 -121 121.5s-43.5 108.167 -43.5 171.5c0 60 13.833 115.667 41.5 167s67 92.666 118 123.999
s111.833 47 182.5 47c86.667 0 159 -22.333 217 -67l89 168c-40 31.333 -90.5 56.666 -151.5 75.999s-124.833 29 -191.5 29c-80.667 0 -155.334 -14.333 -224.001 -43s-128.5 -68 -179.5 -118s-90.667 -107.833 -119 -173.5s-42.5 -135.5 -42.5 -209.5
c0 -76.667 14.667 -148 44 -214s70 -123.667 122 -173s112.167 -87.833 180.5 -115.5s141.5 -41.5 219.5 -41.5z" />
    <glyph glyph-name="d" unicode="d" 
d="M622 -32c78 0 150.167 17.335 216.5 52.002s121.833 82.667 166.5 144v-164h249v1721h-249v-854c-40.667 59.333 -94 105.666 -160 138.999s-138.333 50 -217 50c-98.667 0 -186.5 -23.667 -263.5 -71s-137.667 -112 -182 -194s-66.5 -175 -66.5 -279
c0 -106 22.5 -199.833 67.5 -281.5s105.833 -145.834 182.5 -192.501s162 -70 256 -70zM693 181.002c-61.333 0 -115.833 14.167 -163.5 42.5s-85 67.5 -112 117.5s-40.5 106.667 -40.5 170c0 64.667 13.667 121.834 41 171.501s65 88.834 113 117.501s102.667 43 164 43
s115.833 -14.333 163.5 -43s85.167 -67.834 112.5 -117.501s41 -106.834 41 -171.501c0 -64 -13.667 -120.833 -41 -170.5s-65 -88.667 -113 -117s-103 -42.5 -165 -42.5z" />
    <glyph glyph-name="e" unicode="e" horiz-adv-x="1308" 
d="M681 -32c106 0 202.167 22.832 288.5 68.499s153.833 109.167 202.5 190.5l-181 93c-78 -101.333 -177 -152 -297 -152c-98.667 0 -178.834 29 -240.501 87s-92.5 133.333 -92.5 226h834c3.33301 22 5 38.667 5 50c0 104.667 -22.5 196.334 -67.5 275.001
s-107.667 140 -188 184s-173.833 66 -280.5 66c-103.333 0 -197.166 -24.333 -281.499 -73s-151.333 -114.167 -201 -196.5s-74.5 -174.5 -74.5 -276.5c0 -102.667 25 -195 75 -277s118.333 -146.667 205 -194s184.667 -71 294 -71zM372 636.999
c10 70 41.3311 125.667 93.998 167s118.334 62 197.001 62c75.333 0 139.333 -20.833 192 -62.5s85.334 -97.167 98.001 -166.5h-581z" />
    <glyph glyph-name="f" unicode="f" horiz-adv-x="786" 
d="M229 0h249v835h249v189h-249v292c0 64.667 9.66699 116.5 29 155.5s55.666 58.5 108.999 58.5c42.667 0 79.334 -10.333 110.001 -31l87 175c-64.667 50.667 -144.667 76 -240 76c-108.667 0 -193.167 -38.5 -253.5 -115.5s-90.5 -182.167 -90.5 -315.5v-295h-124v-189
h124v-835z" />
    <glyph glyph-name="g" unicode="g" horiz-adv-x="1448" 
d="M671 -550c191.333 0 336.333 47.6709 435 143.004s148 221.666 148 378.999v1052h-249v-157c-40.667 59.333 -93.834 105.666 -159.501 138.999s-138.167 50 -217.5 50c-98.667 0 -186.5 -23.667 -263.5 -71s-137.667 -112 -182 -194s-66.5 -175 -66.5 -279
c0 -106 22.667 -199.833 68 -281.5s106.333 -145.834 183 -192.501s161.667 -70 255 -70c78.667 0 151.167 17.333 217.5 52s121.5 82.667 165.5 144v-182c0 -96.667 -31.333 -173.834 -94 -231.501s-142.667 -86.5 -240 -86.5c-74 0 -141.667 16.5 -203 49.5
s-106.666 77.167 -135.999 132.5l-204 -98c43.333 -97.333 111 -171.333 203 -222s205.333 -76 340 -76zM693 181.004c-61.333 0 -115.834 14.167 -163.501 42.5s-85 67.5 -112 117.5s-40.5 106.667 -40.5 170c0 64.667 13.667 121.834 41 171.501s65 88.834 113 117.501
s102.667 43 164 43s115.833 -14.333 163.5 -43s85.334 -67.834 113.001 -117.501s41.5 -106.834 41.5 -171.501c0 -64 -13.667 -120.833 -41 -170.5s-65 -88.667 -113 -117s-103.333 -42.5 -166 -42.5z" />
    <glyph glyph-name="h" unicode="h" horiz-adv-x="1353" 
d="M193 0h249.001v628c0 64 22.167 118.667 66.5 164s105.166 68 182.499 68c74.667 0 133.167 -23.167 175.5 -69.5s63.5 -112.166 63.5 -197.499v-593h249v645c0 125.333 -36 225.166 -108 299.499s-167 111.5 -285 111.5c-76 0 -143.5 -14.5 -202.5 -43.5
s-106.167 -66.167 -141.5 -111.5v820h-249v-1721z" />
    <glyph glyph-name="i" unicode="i" horiz-adv-x="635" 
d="M317 1234c41.333 0 76.666 14.833 105.999 44.5s44 65.167 44 106.5c0 42 -14.667 77.667 -44 107s-64.666 44 -105.999 44s-76.833 -14.667 -106.5 -44s-44.5 -65 -44.5 -107c0 -41.333 14.833 -76.833 44.5 -106.5s65.167 -44.5 106.5 -44.5zM192 0h249v1024h-249
v-1024z" />
    <glyph glyph-name="j" unicode="j" horiz-adv-x="636" 
d="M318 1235c41.333 0 76.833 15 106.5 45s44.5 65.667 44.5 107s-14.833 76.666 -44.5 105.999s-65.167 44 -106.5 44s-76.833 -14.667 -106.5 -44s-44.5 -64.666 -44.5 -105.999c0 -42 14.833 -77.833 44.5 -107.5s65.167 -44.5 106.5 -44.5zM117 -550
c103.333 0 183.5 31.5 240.5 94.5s85.5 150.833 85.5 263.5v1216h-249v-1176c0 -116.667 -42.333 -175 -127 -175c-38.667 0 -73.334 11.667 -104.001 35l-76 -201c27.333 -18 62.333 -32 105 -42s84.334 -15 125.001 -15z" />
    <glyph glyph-name="k" unicode="k" horiz-adv-x="1226" 
d="M193 0h249v434l416 -434h320l-512 529l489 495h-323l-390 -391v1087h-249v-1720z" />
    <glyph glyph-name="l" unicode="l" horiz-adv-x="635" 
d="M193 0h249v1720h-249v-1720z" />
    <glyph glyph-name="m" unicode="m" horiz-adv-x="2030" 
d="M193 0l248.999 -0.00195312v648c0 36.667 10.5 70.834 31.5 102.501s49.833 57.167 86.5 76.5s77.667 29 123 29c66.667 0 119.334 -21.5 158.001 -64.5s58 -100.5 58 -172.5v-619h249v647c0 55.333 22.5 104 67.5 146s101.833 63 170.5 63
c66.667 0 119.834 -22.167 159.501 -66.5s59.5 -104.5 59.5 -180.5v-609h249v677c0 78.667 -16.333 146.334 -49 203.001s-77.667 100.167 -135 130.5s-122.666 45.5 -195.999 45.5c-77.333 0 -145.333 -17.5 -204 -52.5s-111 -85.167 -157 -150.5
c-26.667 62 -71.334 111.333 -134.001 148s-134.334 55 -215.001 55c-122 0 -229.333 -51.667 -322 -155v123h-249v-1024z" />
    <glyph glyph-name="n" unicode="n" horiz-adv-x="1353" 
d="M193 0h249.001v628c0 64 22.167 118.667 66.5 164s105.166 68 182.499 68c74.667 0 133.167 -23.167 175.5 -69.5s63.5 -112.166 63.5 -197.499v-593h249v645c0 125.333 -36 225.166 -108 299.499s-167 111.5 -285 111.5c-76 0 -143.5 -14.5 -202.5 -43.5
s-106.167 -66.167 -141.5 -111.5v123h-249v-1024z" />
    <glyph glyph-name="o" unicode="o" horiz-adv-x="1392" 
d="M696 -32c110.667 0 210.334 23 299.001 69s159 110 211 192s78 176.333 78 283c0 107.333 -26 201.833 -78 283.5s-122.333 145.5 -211 191.5s-188.334 69 -299.001 69s-210.5 -23 -299.5 -69s-159.5 -109.833 -211.5 -191.5s-78 -176.167 -78 -283.5
c0 -106.667 26 -201 78 -283s122.5 -146 211.5 -192s188.833 -69 299.5 -69zM696 182c-62 0 -117.833 14.167 -167.5 42.5s-89 67.333 -118 117s-43.5 106.5 -43.5 170.5c0 64.667 14.5 121.667 43.5 171s68.333 88.166 118 116.499s105.5 42.5 167.5 42.5
c62.667 0 118.834 -14.167 168.501 -42.5s88.834 -67.166 117.501 -116.499s43 -106.333 43 -171c0 -64 -14.333 -120.833 -43 -170.5s-67.834 -88.667 -117.501 -117s-105.834 -42.5 -168.501 -42.5z" />
    <glyph glyph-name="p" unicode="p" horiz-adv-x="1448" 
d="M193 -520l249.003 -0.000976562v684c45.333 -62 101.166 -110.167 167.499 -144.5s138.166 -51.5 215.499 -51.5c96.667 0 183.167 23.833 259.5 71.5s136.666 112.5 180.999 194.5s66.5 174.667 66.5 278c0 104.667 -22.333 197.834 -67 279.501
s-105.5 146.167 -182.5 193.5s-164.833 71 -263.5 71c-78 0 -150 -16.5 -216 -49.5s-119.667 -79.167 -161 -138.5v156h-249v-1544zM754.003 180.999c-61.333 0 -116.168 14.1689 -164.501 42.502s-86.166 67.5 -113.499 117.5s-41 107 -41 171s13.667 121 41 171
s65.166 89.167 113.499 117.5s103.166 42.5 164.499 42.5c60.667 0 114.834 -14.333 162.501 -43s85.334 -67.834 113.001 -117.501s41.5 -106.834 41.5 -171.501c0 -64 -13.667 -120.833 -41 -170.5s-64.833 -88.667 -112.5 -117s-102.167 -42.5 -163.5 -42.5z" />
    <glyph glyph-name="q" unicode="q" 
d="M1005 -520l249.002 0.000976562v1544h-249v-157c-42 60 -95.667 106.5 -161 139.5s-137 49.5 -215 49.5c-98.667 0 -186.5 -23.667 -263.5 -71s-137.833 -111.833 -182.5 -193.5s-67 -174.834 -67 -279.501c0 -103.333 22.167 -196 66.5 -278
s104.666 -146.833 180.999 -194.5s162.833 -71.5 259.5 -71.5c77.333 0 149.166 17.167 215.499 51.5s121.833 82.5 166.5 144.5v-684zM694.002 181.001c-61.333 0 -116 14.167 -164 42.5s-85.5 67.5 -112.5 117.5s-40.5 107 -40.5 171s13.667 121 41 171
s65 89.167 113 117.5s102.667 42.5 164 42.5s115.833 -14.167 163.5 -42.5s85.167 -67.5 112.5 -117.5s41 -107 41 -171s-13.667 -121 -41 -171s-64.833 -89.167 -112.5 -117.5s-102.5 -42.5 -164.5 -42.5z" />
    <glyph glyph-name="r" unicode="r" horiz-adv-x="964" 
d="M193 0h248.999v610c0 40 11.833 77.5 35.5 112.5s54.5 63.333 92.5 85s78.333 32.5 121 32.5c25.333 0 52.333 -4 81 -12s54 -18.667 76 -32l103 211c-25.333 14.667 -55.833 26.5 -91.5 35.5s-70.5 13.5 -104.5 13.5c-135.333 0 -239.666 -60.333 -312.999 -181v149
h-249v-1024z" />
    <glyph glyph-name="s" unicode="s" horiz-adv-x="1012" 
d="M475 -32c130 0 233 30.001 309 90.001s114 144.333 114 253c0 60 -11.667 108 -35 144s-55.833 65.333 -97.5 88s-89.5 44 -143.5 64l-104.5 41.5c-35 14.333 -64 31.333 -87 51s-34.5 43.167 -34.5 70.5c0 33.333 13.5 60.666 40.5 81.999s62.833 32 107.5 32
c76 0 153 -32.333 231 -97l90 157c-54.667 36 -108.834 63.5 -162.501 82.5s-107.167 28.5 -160.5 28.5c-74 0 -139.833 -13 -197.5 -39s-103 -62 -136 -108s-49.5 -98.667 -49.5 -158c0 -52 12.333 -94.833 37 -128.5s56.5 -61.5 95.5 -83.5s79.833 -42 122.5 -60
c50.667 -20 92.667 -37.333 126 -52s58.333 -31 75 -49s25 -43 25 -75c0 -46.667 -15.833 -83 -47.5 -109s-71.167 -39 -118.5 -39c-52 0 -102.167 14.167 -150.5 42.5s-92.166 68.833 -131.499 121.5l-110 -162c85.333 -125.333 216.333 -188 393 -188z" />
    <glyph glyph-name="t" unicode="t" horiz-adv-x="820" 
d="M511 -32c80 0 152.333 18.333 217 55l-63 199c-28.667 -21.333 -60.334 -32 -95.001 -32c-69.333 0 -104 46 -104 138v507h236v189h-236v383h-249v-383h-125v-189h125v-524c0 -108 25.833 -192.167 77.5 -252.5s123.834 -90.5 216.501 -90.5z" />
    <glyph glyph-name="u" unicode="u" horiz-adv-x="1328" 
d="M664 -32c175.333 0 301.5 36.167 378.5 108.5s115.5 191.833 115.5 358.5v589h-249v-533c0 -116 -18.5 -198.167 -55.5 -246.5s-100.167 -72.5 -189.5 -72.5c-88.667 0 -151.667 24.167 -189 72.5s-56 130.5 -56 246.5v533h-249v-589
c0 -166.667 38.333 -286.167 115 -358.5s203 -108.5 379 -108.5z" />
    <glyph glyph-name="v" unicode="v" horiz-adv-x="1242" 
d="M538 0h166l524 1024h-294l-313 -689l-313 689h-294z" />
    <glyph glyph-name="w" unicode="w" horiz-adv-x="1966" 
d="M538 0h166l279 666l279 -666h167l523 1024h-285l-314 -687l-285 687h-169l-286 -687l-314 687h-285z" />
    <glyph glyph-name="x" unicode="x" horiz-adv-x="1211" 
d="M17 0h297l292 364l291 -364h297l-435 532l375 492h-288l-240 -318l-241 318h-288l375 -492z" />
    <glyph glyph-name="y" unicode="y" horiz-adv-x="1251" 
d="M196 -520h284l754 1544h-284l-307 -690l-347 690h-284l487 -933z" />
    <glyph glyph-name="z" unicode="z" horiz-adv-x="1191" 
d="M56 0h1031v193h-605l635 831h-980v-193h553z" />
    <glyph glyph-name="braceleft" unicode="{" horiz-adv-x="783" 
d="M550 -520l135 0.00488281v185h-63c-54.667 0 -97.334 17.5 -128.001 52.5s-46 82.833 -46 143.5v574c0 43.333 -8.33301 78.333 -25 105s-37.667 46.667 -63 60c25.333 13.333 46.333 33.166 63 59.499s25 61.5 25 105.5v574c0 60.667 15.333 108.5 46 143.5
s73.334 52.5 128.001 52.5h63v185h-135c-64 0 -116.667 -10.833 -158 -32.5s-73.666 -50.334 -96.999 -86.001s-39.666 -74.834 -48.999 -117.501s-14 -84.667 -14 -126v-575c0 -40.667 -10.167 -69.834 -30.5 -87.501s-48.166 -26.5 -83.499 -26.5v-138
c35.333 0 63.166 -8.66699 83.499 -26s30.5 -46.666 30.5 -87.999v-575c0 -41.333 4.66699 -83.333 14 -126s25.666 -81.834 48.999 -117.501s55.666 -64.334 96.999 -86.001s94 -32.5 158 -32.5z" />
    <glyph glyph-name="bar" unicode="|" horiz-adv-x="795" 
d="M289 0h217v1720h-217v-1720z" />
    <glyph glyph-name="braceright" unicode="}" horiz-adv-x="783" 
d="M98 -520l135 -0.00488281c64 0 116.667 10.833 158 32.5s73.666 50.334 96.999 86.001s39.666 74.834 48.999 117.501s14 84.667 14 126v575c0 41.333 10.167 70.666 30.5 87.999s48.5 26 84.5 26v138c-36 0 -64.167 8.83301 -84.5 26.5s-30.5 46.834 -30.5 87.501v575
c0 41.333 -4.66699 83.333 -14 126s-25.666 81.834 -48.999 117.501s-55.666 64.334 -96.999 86.001s-94 32.5 -158 32.5h-135v-185h63c55.333 0 98.166 -17.5 128.499 -52.5s45.5 -82.833 45.5 -143.5v-574c0 -44 8.33301 -79.167 25 -105.5s38 -46.166 64 -59.499
c-26 -13.333 -47.333 -33.333 -64 -60s-25 -61.667 -25 -105v-574c0 -60.667 -15.167 -108.5 -45.5 -143.5s-73.166 -52.5 -128.499 -52.5h-63v-185z" />
    <glyph glyph-name="asciitilde" unicode="~" horiz-adv-x="1491" 
d="M951 646c66.667 0 130.499 23.1699 191.499 69.5029s108.833 102.166 143.5 167.499l-134 116c-21.333 -48 -49.166 -85.667 -83.499 -113s-70.833 -41 -109.5 -41c-32.667 0 -65.167 8.33301 -97.5 25s-65.333 36.167 -99 58.5s-68.834 41.833 -105.501 58.5
s-76.334 25 -119.001 25c-45.333 0 -89.666 -11 -132.999 -33s-82.5 -50.833 -117.5 -86.5s-63.167 -74.834 -84.5 -117.501l132 -118c19.333 45.333 45.833 82.666 79.5 111.999s71.834 44 114.501 44c33.333 0 66 -8.33301 98 -25s64.833 -36.167 98.5 -58.5
s69 -41.833 106 -58.5s76.833 -25 119.5 -25z" />
    <glyph glyph-name="uni00A0" unicode="&#xa0;" horiz-adv-x="530" 
 />
    <glyph glyph-name="exclamdown" unicode="&#xa1;" horiz-adv-x="764" 
d="M380 900c46 0 85.167 16.167 117.5 48.5s48.5 71.166 48.5 116.499s-16.167 84.166 -48.5 116.499s-71.5 48.5 -117.5 48.5c-44.667 0 -83.167 -16.167 -115.5 -48.5s-48.5 -71.166 -48.5 -116.499s16.167 -84.166 48.5 -116.499s70.833 -48.5 115.5 -48.5zM258 -522h247
l-30 1253h-185z" />
    <glyph glyph-name="cent" unicode="&#xa2;" horiz-adv-x="1259" 
d="M646 -258l155.002 -0.00195312v230c110 10.667 202.333 44.334 277 101.001l-82 168c-28.667 -22.667 -63.334 -40.5 -104.001 -53.5s-82.667 -19.5 -126 -19.5c-66 0 -124.167 14.667 -174.5 44s-89.833 70.166 -118.5 122.499s-43 112.166 -43 179.499
c0 101.333 30.833 183.666 92.5 246.999s142.5 95 242.5 95c44 0 86.167 -6.33301 126.5 -19s75.166 -31 104.499 -55l82 168c-86 66.667 -196.667 101.667 -332 105v217h-155v-238c-83.333 -20 -156.5 -55.5 -219.5 -106.5s-112.167 -112.167 -147.5 -183.5
s-53 -148.666 -53 -231.999c0 -89.333 20.5 -172.166 61.5 -248.499s97.333 -139.666 169 -189.999s153.167 -82.166 244.5 -95.499v-236z" />
    <glyph glyph-name="sterling" unicode="&#xa3;" horiz-adv-x="1639" 
d="M1131 -30c100 0 182.504 28.001 247.504 84.001s105.5 128.333 121.5 217l-196 96c-6.66699 -54.667 -26.5 -100.5 -59.5 -137.5s-81.167 -55.5 -144.5 -55.5c-42.667 0 -85.667 8.16699 -129 24.5l-129 51c-42.667 17.667 -85 28.167 -127 31.5
c15.333 31.333 26.166 62 32.499 92s9.5 58.667 9.5 86s-2.83301 52.5 -8.5 75.5s-13.834 45.167 -24.501 66.5h386v142h-427c-34 70 -63.5 138.167 -88.5 204.5s-37.5 134.5 -37.5 204.5c0 97.333 26.5 173.666 79.5 228.999s126.5 83 220.5 83
c66.667 0 122.667 -13 168 -39s81.666 -60.333 108.999 -103s47 -89.334 59 -140.001l214 102c-29.333 119.333 -92.5 215.333 -189.5 288s-216.167 109 -357.5 109c-108.667 0 -204.334 -22 -287.001 -66s-147.167 -106.167 -193.5 -186.5s-69.5 -175.5 -69.5 -285.5
c0 -80.667 12.667 -153.667 38 -219s55.333 -125.666 90 -180.999h-242v-142h308c11.333 -18.667 20.666 -39.5 27.999 -62.5s11 -49.167 11 -78.5c0 -28.667 -3.33301 -57.334 -10 -86.001s-14.667 -53 -24 -73c-55.333 -2 -104.833 -16.667 -148.5 -44
s-78 -63.5 -103 -108.5s-37.833 -94.5 -38.5 -148.5h217c3.33301 35.333 20.333 62.666 51 81.999s67.334 29 110.001 29c40 0 80.5 -7.16699 121.5 -21.5s83.333 -30.666 127 -48.999s89.167 -34.666 136.5 -48.999s97 -21.5 149 -21.5z" />
    <glyph glyph-name="currency" unicode="&#xa4;" horiz-adv-x="1231" 
d="M196 120l137.001 138.002c39.333 -30 82.833 -53.333 130.5 -70s98.5 -25 152.5 -25c53.333 0 104.166 8.33301 152.499 25s91.833 39.667 130.5 69l137 -137l88 89l-138 137c29.333 39.333 52.333 82.833 69 130.5s25 98.5 25 152.5s-8.33301 105 -25 153
s-39.667 91.333 -69 130l138 137l-88 89l-137 -138c-80 63.333 -174.333 95 -283 95c-108 0 -202.333 -31.667 -283 -95l-137 138l-89 -89l138 -138c-28.667 -38.667 -51.334 -81.834 -68.001 -129.501s-25 -98.5 -25 -152.5s8.33301 -104.833 25 -152.5
s39.334 -90.834 68.001 -129.501l-138 -138zM616.001 370.002c-74 0 -136 24.5 -186 73.5s-75 110.833 -75 185.5s25 136.5 75 185.5s112 73.5 186 73.5c73.333 0 135.166 -24.5 185.499 -73.5s75.5 -110.833 75.5 -185.5s-25.167 -136.5 -75.5 -185.5
s-112.166 -73.5 -185.499 -73.5z" />
    <glyph glyph-name="yen" unicode="&#xa5;" horiz-adv-x="1700" 
d="M719 0h262v270h409v188h-409v180h409v188h-344l522 824h-315l-404 -653l-401 653h-316l522 -824h-345v-188h410v-180h-410v-188h410v-270z" />
    <glyph glyph-name="brokenbar" unicode="&#xa6;" horiz-adv-x="795" 
d="M289 1056h217v664h-217v-664zM289 0h217v664h-217v-664z" />
    <glyph glyph-name="section" unicode="&#xa7;" horiz-adv-x="1457" 
d="M716 -550c96 0 183.169 16.998 261.502 50.998s140.666 83.333 186.999 148s69.5 143.334 69.5 236.001c0 75.333 -16.5 141.333 -49.5 198s-80.5 106.334 -142.5 149.001c76.667 32.667 136.334 77.167 179.001 133.5s65 119.5 67 189.5
c2 57.333 -9.66699 108.666 -35 153.999s-59 85.833 -101 121.5s-88.333 67.167 -139 94.5s-100.667 52 -150 74c-46.667 20 -95.334 42.167 -146.001 66.5s-93.5 53.333 -128.5 87s-52.5 74.167 -52.5 121.5c0 54 19.667 100 59 138s90.333 57 153 57
c60.667 0 110.834 -15.833 150.501 -47.5s64.834 -68.5 75.501 -110.5l226 51c-14.667 52.667 -40.334 103.334 -77.001 152.001s-86.334 88.5 -149.001 119.5s-141 46.5 -235 46.5c-100 0 -185.5 -18.833 -256.5 -56.5s-125.167 -88.667 -162.5 -153
s-56 -136.166 -56 -215.499c0 -142 64.667 -254 194 -336c-76.667 -31.333 -136.5 -75.5 -179.5 -132.5s-66.167 -120.167 -69.5 -189.5c-2 -56.667 8.16699 -107.167 30.5 -151.5s52.833 -83.833 91.5 -118.5s81.5 -65.334 128.5 -92.001s93.5 -50.667 139.5 -72
c68 -28.667 129.167 -56.167 183.5 -82.5s97.166 -55.666 128.499 -87.999s47 -72.5 47 -120.5c0 -60.667 -21.833 -111 -65.5 -151s-103.167 -60 -178.5 -60c-78.667 0 -145.834 20.667 -201.501 62s-94.5 92.333 -116.5 153l-225 -53
c14.667 -56.667 43.834 -113.834 87.501 -171.501s103.5 -105.667 179.5 -144s168.667 -57.5 278 -57.5zM875.002 327.998l-86.502 41.001l-115.5 53c-72 32 -126 63.5 -162 94.5s-54 70.167 -54 117.5c0 48.667 17.833 88.667 53.5 120s73.834 52.666 114.501 63.999
l60.5 -28.5c15 -7 31.833 -13.833 50.5 -20.5c113.333 -46.667 192.333 -89.167 237 -127.5s67 -80.833 67 -127.5c0 -45.333 -17.667 -84.333 -53 -117s-72.666 -55.667 -111.999 -69z" />
    <glyph glyph-name="dieresis" unicode="&#xa8;" horiz-adv-x="744" 
d="M608 1262c37.333 0 69.333 13.333 96 40s40 58.667 40 96s-13.333 69.333 -40 96s-58.667 40 -96 40s-69.333 -13.333 -96 -40s-40 -58.667 -40 -96s13.333 -69.333 40 -96s58.667 -40 96 -40zM136 1262c37.333 0 69.333 13.333 96 40s40 58.667 40 96
s-13.333 69.333 -40 96s-58.667 40 -96 40s-69.333 -13.333 -96 -40s-40 -58.667 -40 -96s13.333 -69.333 40 -96s58.667 -40 96 -40z" />
    <glyph glyph-name="copyright" unicode="&#xa9;" horiz-adv-x="2032" 
d="M1016 -31c118 0 228.166 21.999 330.499 65.999s192.333 105 270 183s138.334 168.667 182.001 272s65.5 214.333 65.5 333s-22 229.834 -66 333.501s-104.833 194.667 -182.5 273s-167.834 139.666 -270.501 183.999s-212.667 66.5 -330 66.5
s-227.166 -22.167 -329.499 -66.5s-192.166 -105.833 -269.499 -184.5s-137.833 -169.667 -181.5 -273s-65.5 -214 -65.5 -332c0 -119.333 21.833 -230.666 65.5 -333.999s104.167 -194 181.5 -272s167.166 -139 269.499 -183s212.5 -66 330.5 -66zM1016 134.999
c-94.667 0 -183.165 17.666 -265.498 52.999s-154.5 84.333 -216.5 147s-110.333 135.667 -145 219s-52 173 -52 269c0 95.333 17.5 184.833 52.5 268.5s83.667 157.167 146 220.5s134.333 112.833 216 148.5s169.5 53.5 263.5 53.5s182.167 -17.833 264.5 -53.5
s154.666 -85.167 216.999 -148.5s111.166 -136.666 146.499 -219.999s53 -173 53 -269s-17.5 -185.5 -52.5 -268.5s-83.5 -156 -145.5 -219s-134.167 -112.167 -216.5 -147.5s-170.833 -53 -265.5 -53zM1048 368.998c96.667 0 193.331 28 289.998 84l-68 132
c-22 -17.333 -49.667 -30.833 -83 -40.5s-67.666 -14.5 -102.999 -14.5c-58.667 0 -110.667 13 -156 39s-80.833 61.333 -106.5 106s-38.5 95 -38.5 151c0 56.667 13.167 107.5 39.5 152.5s62 80.667 107 107s95.833 39.5 152.5 39.5c73.333 0 136.333 -19 189 -57l67 131
c-35.333 27.333 -78.333 48.5 -129 63.5s-102.667 22.5 -156 22.5c-89.333 0 -170.166 -20.833 -242.499 -62.5s-129.5 -97.167 -171.5 -166.5s-63 -146.333 -63 -231s21.333 -161.5 64 -230.5s99.667 -123.833 171 -164.5s150.333 -61 237 -61z" />
    <glyph glyph-name="ordfeminine" unicode="&#xaa;" horiz-adv-x="1072" 
d="M468 1008c51.333 0 97.333 11.1689 138 33.502s73.334 51.833 98.001 88.5v-102h154v632h-154v-96c-52.667 77.333 -129.334 116 -230.001 116c-62 0 -117 -14.833 -165 -44.5s-85.5 -69.834 -112.5 -120.501s-40.5 -107.667 -40.5 -171
c0 -64.667 13.833 -122.334 41.5 -173.001s65 -90.5 112 -119.5s99.833 -43.5 158.5 -43.5zM512 1139c-56.667 0 -103.332 19.5 -139.999 58.5s-55 87.833 -55 146.5c0 60 18.667 109.167 56 147.5s84 57.5 140 57.5c55.333 0 101.666 -19.167 138.999 -57.5
s56 -87.5 56 -147.5c0 -58.667 -18.333 -107.5 -55 -146.5s-83.667 -58.5 -141 -58.5z" />
    <glyph glyph-name="guillemotleft" unicode="&#xab;" horiz-adv-x="1152" 
d="M631 57l76 60l47 -60l136 107l-307 393l307 393l-136 107l-47 -60l-76 60l-390 -500z" />
    <glyph glyph-name="logicalnot" unicode="&#xac;" horiz-adv-x="1374" 
d="M984 316h216v621h-1026v-216h810v-405z" />
    <glyph glyph-name="uni00AD" unicode="&#xad;" horiz-adv-x="1030" 
d="M193 472h644v215h-644v-215z" />
    <glyph glyph-name="registered" unicode="&#xae;" horiz-adv-x="1313" 
d="M656 777c82.667 0 158.334 20.166 227.001 60.499s123.667 94.833 165 163.5s62 145.334 62 230.001c0 84 -20.5 160.5 -61.5 229.5s-95.833 124 -164.5 165s-144.667 61.5 -228 61.5c-84 0 -160.333 -20.833 -229 -62.5s-123.334 -97 -164.001 -166
s-61 -144.833 -61 -227.5s20.5 -158.5 61.5 -227.5s95.833 -124 164.5 -165s144.667 -61.5 228 -61.5zM656 871.999c-65.333 0 -125.169 16.1689 -179.502 48.502s-97.666 75.666 -129.999 129.999s-48.5 114.5 -48.5 180.5c0 65.333 16 125.333 48 180s75 98.5 129 131.5
s114.333 49.5 181 49.5c66 0 126.167 -16.167 180.5 -48.5s97.833 -75.833 130.5 -130.5s49 -115.334 49 -182.001s-16.5 -127.167 -49.5 -181.5s-76.667 -97.5 -131 -129.5s-114.166 -48 -179.499 -48zM518.997 988.001h79v197h11l150 -197h99l-162 203
c34.667 6.66699 62.834 22.5 84.501 47.5s32.5 56.833 32.5 95.5c0 47.333 -14.833 83 -44.5 107s-67.834 36 -114.501 36h-135v-489zM597.997 1248v165.999h33c26 0 49.167 -6.16699 69.5 -18.5s30.5 -33.166 30.5 -62.499c0 -28.667 -9.83301 -50 -29.5 -64
s-43.167 -21 -70.5 -21h-33z" />
    <glyph glyph-name="macron" unicode="&#xaf;" horiz-adv-x="816" 
d="M0 1303h816v171h-816v-171z" />
    <glyph glyph-name="degree" unicode="&#xb0;" horiz-adv-x="943" 
d="M471 1338c63.333 0 116.167 19.166 158.5 57.499s63.5 87.833 63.5 148.5c0 61.333 -21.333 111 -64 149s-95.334 57 -158.001 57c-62 0 -114.5 -19.167 -157.5 -57.5s-64.5 -88.166 -64.5 -149.499c0 -59.333 20.833 -108.333 62.5 -147s94.834 -58 159.501 -58z
M472.001 1430c-32.667 0 -59.334 10.667 -80.001 32s-31 48.333 -31 81c0 34 10.5 61.667 31.5 83s47.167 32 78.5 32c30.667 0 56.834 -10.5 78.501 -31.5s32.5 -48.833 32.5 -83.5c0 -32.667 -10.333 -59.667 -31 -81s-47 -32 -79 -32z" />
    <glyph glyph-name="plusminus" unicode="&#xb1;" horiz-adv-x="1448" 
d="M617 380h214v374h406v214h-406v373h-214v-373h-406v-214h406v-374zM211 0h1026v216h-1026v-216z" />
    <glyph glyph-name="uni00B2" unicode="&#xb2;" horiz-adv-x="659" 
d="M70 1026l487.001 0.000976562v107h-270c95.333 68.667 162.166 128.167 200.499 178.5s57.5 101.5 57.5 153.5c0 63.333 -22 115.166 -66 155.499s-99.667 60.5 -167 60.5c-59.333 0 -109.833 -17 -151.5 -51s-70.834 -80.667 -87.501 -140l103 -48
c11.333 42.667 28.833 76 52.5 100s51.167 36 82.5 36c29.333 0 54 -9.83301 74 -29.5s30 -45.167 30 -76.5c0 -46 -27.167 -99 -81.5 -159s-142.166 -133.667 -263.499 -221v-66z" />
    <glyph glyph-name="uni00B3" unicode="&#xb3;" horiz-adv-x="623" 
d="M300 1026c65.333 0 119.166 16.3301 161.499 48.9971s63.5 78.667 63.5 138c0 36 -8.66699 68.167 -26 96.5s-41.666 49.833 -72.999 64.5c52.667 36.667 79 85.334 79 146.001c0 49.333 -18.667 88.333 -56 117s-85.666 43 -144.999 43
c-56.667 0 -102.5 -13.167 -137.5 -39.5s-58.5 -61.166 -70.5 -104.499l95 -44c3.33301 26.667 14.833 48.5 34.5 65.5s42.834 25.5 69.501 25.5c25.333 0 46.666 -8 63.999 -24s26 -35.667 26 -59c0 -26 -10.333 -48.333 -31 -67s-44.334 -28 -71.001 -28h-28v-79
c7.33301 2.66699 16 4 26 4c31.333 0 58.333 -10.333 81 -31s34 -46.667 34 -78c0 -26.667 -9 -48.5 -27 -65.5s-43.333 -25.5 -76 -25.5c-34.667 0 -62.5 9.83301 -83.5 29.5s-32.5 44.834 -34.5 75.501l-111 -52c14 -47.333 41 -85.333 81 -114s91.667 -43 155 -43z" />
    <glyph glyph-name="acute" unicode="&#xb4;" horiz-adv-x="474" 
d="M110 1126l309 378l-174 129l-245 -420z" />
    <glyph glyph-name="uni00B5" unicode="&#xb5;" horiz-adv-x="1544" 
d="M253 -320l296.999 0.000976562v365c37.333 -51.333 97.666 -77 180.999 -77c61.333 0 120.333 14.333 177 43s100.334 66 131.001 112v-123h249v1025h-249v-625c0 -42.667 -11.333 -82 -34 -118s-53 -64.667 -91 -86s-80 -32 -126 -32c-75.333 0 -133.666 23 -174.999 69
s-62 111.333 -62 196v596h-249v-597c0 -79.333 -2.5 -150.333 -7.5 -213s-10.667 -121.834 -17 -177.501s-12 -112.167 -17 -169.5s-7.5 -120 -7.5 -188z" />
    <glyph glyph-name="paragraph" unicode="&#xb6;" horiz-adv-x="1547" 
d="M857 0h152v1499h96v-1499h153v1650h-594c-107.333 0 -199.666 -21.333 -276.999 -64s-136.833 -100.667 -178.5 -174s-62.5 -156.333 -62.5 -249c0 -91.333 20.833 -175.5 62.5 -252.5s101.167 -138.667 178.5 -185s169.666 -69.5 276.999 -69.5h193v-656z" />
    <glyph glyph-name="periodcentered" unicode="&#xb7;" horiz-adv-x="797" 
d="M398 374c45.333 0 84 16.167 116 48.5s48 71.166 48 116.499c0 46 -16 85 -48 117s-70.667 48 -116 48c-46 0 -85.167 -16 -117.5 -48s-48.5 -71 -48.5 -117c0 -45.333 16.167 -84.166 48.5 -116.499s71.5 -48.5 117.5 -48.5z" />
    <glyph glyph-name="cedilla" unicode="&#xb8;" horiz-adv-x="539" 
d="M279 -542c76 0 138.166 21.002 186.499 63.002s72.5 95.333 72.5 160c0 43.333 -12.5 80.166 -37.5 110.499s-58.167 50.166 -99.5 59.499c-16.667 7.33301 -34.5 12.5 -53.5 15.5s-40.167 3.5 -63.5 1.5l48 150h-112l-80 -248l14 -11c12 7.33301 28.833 13.5 50.5 18.5
s42.5 7.5 62.5 7.5c39.333 0 71 -9.16699 95 -27.5s36 -42.5 36 -72.5c0 -29.333 -11.167 -53.333 -33.5 -72s-52.166 -28 -89.499 -28c-71.333 0 -129.333 32 -174 96l-101 -74c74 -99.333 167 -149 279 -149z" />
    <glyph glyph-name="uni00B9" unicode="&#xb9;" horiz-adv-x="430" 
d="M172 1026h117v624h-209v-116h92v-508z" />
    <glyph glyph-name="ordmasculine" unicode="&#xba;" horiz-adv-x="978" 
d="M489 1006c67.333 0 128.166 14.333 182.499 43s97.333 68.334 129 119.001s47.5 109 47.5 175c0 66.667 -15.833 125.167 -47.5 175.5s-74.667 89.833 -129 118.5s-115.166 43 -182.499 43c-68 0 -129.167 -14.333 -183.5 -43s-97.333 -68.167 -129 -118.5
s-47.5 -108.833 -47.5 -175.5c0 -66 15.833 -124.333 47.5 -175s74.667 -90.334 129 -119.001s115.5 -43 183.5 -43zM488 1137c-56.667 0 -104.001 19.167 -142.001 57.5s-57 87.833 -57 148.5c0 60 19 109.333 57 148s85.667 58 143 58
c56.667 0 103.834 -19.333 141.501 -58s56.5 -88 56.5 -148s-18.833 -109.333 -56.5 -148s-85.167 -58 -142.5 -58z" />
    <glyph glyph-name="guillemotright" unicode="&#xbb;" horiz-adv-x="1143" 
d="M253 57l390 500l-390 500l-137 -107l308 -393l-308 -393zM655 57l390 500l-390 500l-135 -107l307 -393l-307 -393z" />
    <glyph glyph-name="onequarter" unicode="&#xbc;" horiz-adv-x="2318" 
d="M317 600h203v1050h-326v-199h123v-851zM335 0h178l1053 1650h-178zM1723 0h191v192h136v179h-136v679h-202l-574 -794v-64h585v-192zM1414 371l309 435v-435h-309z" />
    <glyph glyph-name="onehalf" unicode="&#xbd;" horiz-adv-x="2466" 
d="M317 600h203v1050h-326v-199h123v-851zM335 0h178l1053 1650h-178zM1274 0l895.001 -0.000976562v181h-518c122.667 74 220.167 141.333 292.5 202s124.333 118.5 156 173.5s47.5 111.167 47.5 168.5c0 68 -18.333 128.667 -55 182s-87 95.5 -151 126.5
s-137.667 46.5 -221 46.5c-110 0 -203.833 -28 -281.5 -84s-128.834 -132.667 -153.501 -230l173 -80c18.667 68.667 50.167 121.334 94.5 158.001s96.166 55 155.499 55c62.667 0 114.834 -17.833 156.501 -53.5s62.5 -78.167 62.5 -127.5c0 -43.333 -21 -92.333 -63 -147
s-110.667 -119.667 -206 -195s-223.333 -166 -384 -272v-104z" />
    <glyph glyph-name="threequarters" unicode="&#xbe;" horiz-adv-x="2776" 
d="M651 579c78 0 146.165 14.8311 204.498 44.498s103.5 69.834 135.5 120.501s48 107 48 169c0 56.667 -13.833 106.5 -41.5 149.5s-66.167 77.167 -115.5 102.5c81.333 49.333 122 120 122 212c0 56 -14.667 106.833 -44 152.5s-70 82.167 -122 109.5s-112 41 -180 41
c-86 0 -161.333 -22 -226 -66s-105.667 -102.667 -123 -176l162 -74c6 44 26.5 80.167 61.5 108.5s75.5 42.5 121.5 42.5c45.333 0 84 -13.833 116 -41.5s48 -61.167 48 -100.5c0 -40.667 -16.167 -76.5 -48.5 -107.5s-71.166 -46.5 -116.499 -46.5h-49v-136
c7.33301 3.33301 15.5 5.5 24.5 6.5s17.5 1.5 25.5 1.5c48 0 90 -16.667 126 -50s54 -75.666 54 -126.999c0 -46.667 -16.667 -84.667 -50 -114s-77.666 -44 -132.999 -44c-60 0 -108.833 16.5 -146.5 49.5s-58.167 75.5 -61.5 127.5l-189 -89
c21.333 -81.333 68.333 -145.833 141 -193.5s158 -71.5 256 -71.5zM792.998 -0.00195312h178l1053 1650h-178zM2182 -0.00195312h191v192h136v179h-136v679h-202l-574 -794v-64h585v-192zM1873 370.998l309 435v-435h-309z" />
    <glyph glyph-name="questiondown" unicode="&#xbf;" horiz-adv-x="1258" 
d="M671 832c46 0 85 16.167 117 48.5s48 71.166 48 116.499s-16 84.166 -48 116.499s-71 48.5 -117 48.5s-84.833 -16.167 -116.5 -48.5s-47.5 -71.166 -47.5 -116.499s15.833 -84.166 47.5 -116.499s70.5 -48.5 116.5 -48.5zM653 -550c88.667 0 170.166 17.5 244.499 52.5
s135.833 85.667 184.5 152s78.667 146.166 90 239.499l-209 41c-8 -82.667 -39.333 -147.167 -94 -193.5s-125.667 -69.5 -213 -69.5c-92 0 -165.333 24.333 -220 73s-82 115.334 -82 200.001c0 89.333 29.667 158.333 89 207s138.333 73 237 73c21.333 0 40.833 -1 58.5 -3
s33.167 -4.66699 46.5 -8v437h-230v-218c-83.333 -9.33301 -157.833 -36.833 -223.5 -82.5s-117.5 -103.5 -155.5 -173.5s-57 -147 -57 -231c0 -90.667 22.833 -173.667 68.5 -249s108.834 -135.333 189.501 -180s172.667 -67 276 -67z" />
    <glyph glyph-name="Agrave" unicode="&#xc0;" horiz-adv-x="1662" 
d="M52 0h281l163 430h670l162 -430h282l-658 1650h-243zM585 660l245 638l247 -638h-492zM916 1751l111 87l-246 420l-173 -129z" />
    <glyph glyph-name="Aacute" unicode="&#xc1;" horiz-adv-x="1662" 
d="M52 0h281l163 430h670l162 -430h282l-658 1650h-243zM585 660l245 638l247 -638h-492zM795 1751l309 378l-174 129l-245 -420z" />
    <glyph glyph-name="Acircumflex" unicode="&#xc2;" horiz-adv-x="1662" 
d="M52 0h281l163 430h670l162 -430h282l-658 1650h-243zM585 660l245 638l247 -638h-492zM524 1877l306 224l306 -224l98 132l-404 296l-403 -296z" />
    <glyph glyph-name="Atilde" unicode="&#xc3;" horiz-adv-x="1662" 
d="M52 0h281l163 430h670l162 -430h282l-658 1650h-243zM585 660l245 638l247 -638h-492zM1034 1832c56 0 114.666 20.998 175.999 62.998s109.333 97 144 165l-127 112c-18 -42.667 -43.667 -78.667 -77 -108s-68.666 -44 -105.999 -44c-30 0 -60.667 8.16699 -92 24.5
s-64.333 35.333 -99 57s-71 40.667 -109 57s-78.333 24.5 -121 24.5c-66.667 0 -127.5 -22 -182.5 -66s-99.167 -98 -132.5 -162l127 -112c16.667 38.667 40.5 73.5 71.5 104.5s70.833 46.5 119.5 46.5c36 0 70.5 -8.16699 103.5 -24.5s65.5 -35.166 97.5 -56.499
s65 -40.166 99 -56.499s70 -24.5 108 -24.5z" />
    <glyph glyph-name="Adieresis" unicode="&#xc4;" horiz-adv-x="1662" 
d="M52 0h281l163 430h670l162 -430h282l-658 1650h-243zM585 660l245 638l247 -638h-492zM1066 1887c37.333 0 69.333 13.333 96 40s40 58.667 40 96s-13.333 69.333 -40 96s-58.667 40 -96 40s-69.333 -13.333 -96 -40s-40 -58.667 -40 -96s13.333 -69.333 40 -96
s58.667 -40 96 -40zM594 1887c37.333 0 69.333 13.333 96 40s40 58.667 40 96s-13.333 69.333 -40 96s-58.667 40 -96 40s-69.333 -13.333 -96 -40s-40 -58.667 -40 -96s13.333 -69.333 40 -96s58.667 -40 96 -40z" />
    <glyph glyph-name="Aring" unicode="&#xc5;" horiz-adv-x="1662" 
d="M52 0h281l163 430h670l162 -430h282l-658 1650h-243zM585 660l245 638l247 -638h-492zM831 1846c77.333 0 142.666 22.833 195.999 68.5s80 104.167 80 175.5s-26.667 129.833 -80 175.5s-118.666 68.5 -195.999 68.5s-142.833 -22.833 -196.5 -68.5
s-80.5 -104.167 -80.5 -175.5s26.833 -129.833 80.5 -175.5s119.167 -68.5 196.5 -68.5zM831 1968c-35.333 0 -65.833 11.668 -91.5 35.001s-38.5 52.333 -38.5 86.999c0 34.667 12.833 63.667 38.5 87s56.167 35 91.5 35s65.666 -11.667 90.999 -35s38 -52.333 38 -87
s-12.667 -63.667 -38 -87s-55.666 -35 -90.999 -35z" />
    <glyph glyph-name="AE" unicode="&#xc6;" horiz-adv-x="2266" 
d="M52 0h281l163 430h670l162 -430h887l-88 230h-610l-190 482h590l-88 230h-595l-187 478h623l-89 230h-872zM585 660l245 637l247 -637h-492z" />
    <glyph glyph-name="Ccedilla" unicode="&#xc7;" horiz-adv-x="1558" 
d="M976 -32c103.333 0 200.501 15 291.501 45s168.833 68.667 233.5 116l-115 222c-50 -40 -109.333 -71 -178 -93s-141 -33 -217 -33c-120 0 -227 26.5 -321 79.5s-168 124.667 -222 215s-81 191.833 -81 304.5s27 214.167 81 304.5s128 162 222 215s201 79.5 321 79.5
c76 0 148.333 -11 217 -33s128 -53 178 -93l115 222c-66.667 48.667 -145.667 87.667 -237 117s-188 44 -290 44c-124 0 -239.833 -21.833 -347.5 -65.5s-202.334 -104.5 -284.001 -182.5s-145.5 -168.833 -191.5 -272.5s-69 -215.5 -69 -335.5s23 -231.833 69 -335.5
s109.833 -194.5 191.5 -272.5s176.5 -138.833 284.5 -182.5s224.333 -65.5 349 -65.5zM922.001 -592c76 0 138.166 21.002 186.499 63.002s72.5 95.333 72.5 160c0 43.333 -12.5 80.166 -37.5 110.499s-58.167 50.166 -99.5 59.499c-16.667 7.33301 -34.5 12.5 -53.5 15.5
s-40.167 3.5 -63.5 1.5l48 150h-112l-80 -248l14 -11c12 7.33301 28.833 13.5 50.5 18.5s42.5 7.5 62.5 7.5c39.333 0 71 -9.16699 95 -27.5s36 -42.5 36 -72.5c0 -29.333 -11.167 -53.333 -33.5 -72s-52.166 -28 -89.499 -28c-71.333 0 -129.333 32 -174 96l-101 -74
c74 -99.333 167 -149 279 -149z" />
    <glyph glyph-name="Egrave" unicode="&#xc8;" horiz-adv-x="1300" 
d="M241 0h887v230h-625v482h601v230h-601v478h625v230h-887v-1650zM772 1751l111 87l-246 420l-173 -129z" />
    <glyph glyph-name="Eacute" unicode="&#xc9;" horiz-adv-x="1300" 
d="M241 0h887v230h-625v482h601v230h-601v478h625v230h-887v-1650zM651 1751l309 378l-174 129l-245 -420z" />
    <glyph glyph-name="Ecircumflex" unicode="&#xca;" horiz-adv-x="1300" 
d="M241 0h887v230h-625v482h601v230h-601v478h625v230h-887v-1650zM380 1877l306 224l306 -224l98 132l-404 296l-403 -296z" />
    <glyph glyph-name="Edieresis" unicode="&#xcb;" horiz-adv-x="1300" 
d="M241 0h887v230h-625v482h601v230h-601v478h625v230h-887v-1650zM923 1887c37.333 0 69.333 13.333 96 40s40 58.667 40 96s-13.333 69.333 -40 96s-58.667 40 -96 40s-69.333 -13.333 -96 -40s-40 -58.667 -40 -96s13.333 -69.333 40 -96s58.667 -40 96 -40zM451 1887
c37.333 0 69.333 13.333 96 40s40 58.667 40 96s-13.333 69.333 -40 96s-58.667 40 -96 40s-69.333 -13.333 -96 -40s-40 -58.667 -40 -96s13.333 -69.333 40 -96s58.667 -40 96 -40z" />
    <glyph glyph-name="Igrave" unicode="&#xcc;" horiz-adv-x="744" 
d="M241 0h262v1650h-262v-1650zM457 1751l111 87l-246 420l-173 -129z" />
    <glyph glyph-name="Iacute" unicode="&#xcd;" horiz-adv-x="744" 
d="M241 0h262v1650h-262v-1650zM336 1751l309 378l-174 129l-245 -420z" />
    <glyph glyph-name="Icircumflex" unicode="&#xce;" horiz-adv-x="744" 
d="M241 0h262v1650h-262v-1650zM65 1877l306 224l306 -224l98 132l-404 296l-403 -296z" />
    <glyph glyph-name="Idieresis" unicode="&#xcf;" horiz-adv-x="744" 
d="M241 0h262v1650h-262v-1650zM608 1887c37.333 0 69.333 13.333 96 40s40 58.667 40 96s-13.333 69.333 -40 96s-58.667 40 -96 40s-69.333 -13.333 -96 -40s-40 -58.667 -40 -96s13.333 -69.333 40 -96s58.667 -40 96 -40zM136 1887c37.333 0 69.333 13.333 96 40
s40 58.667 40 96s-13.333 69.333 -40 96s-58.667 40 -96 40s-69.333 -13.333 -96 -40s-40 -58.667 -40 -96s13.333 -69.333 40 -96s58.667 -40 96 -40z" />
    <glyph glyph-name="Eth" unicode="&#xd0;" horiz-adv-x="1662" 
d="M282 0l423 -0.00390625c113.333 0 220.166 20.167 320.499 60.5s188.833 97.333 265.5 171s136.834 160.834 180.501 261.501s65.5 211.334 65.5 332.001c0 120 -21.833 230.333 -65.5 331s-104 187.834 -181 261.501s-165.5 130.834 -265.5 171.501s-206.667 61 -320 61
h-423v-718h-164v-214h164v-718zM543 234.996v483h333v214h-333v483h134c110 0 208.833 -25.833 296.5 -77.5s157 -122 208 -211s76.167 -189.5 75.5 -301.5c0 -112.667 -25.5 -213.5 -76.5 -302.5s-120.167 -159.167 -207.5 -210.5s-186 -77 -296 -77h-134z" />
    <glyph glyph-name="Ntilde" unicode="&#xd1;" horiz-adv-x="1780" 
d="M241 0h262v1210l774 -1210h262v1650h-262v-1211l-774 1211h-262v-1650zM1093 1832c56 0 114.666 20.998 175.999 62.998s109.333 97 144 165l-127 112c-18 -42.667 -43.667 -78.667 -77 -108s-68.666 -44 -105.999 -44c-30 0 -60.667 8.16699 -92 24.5
s-64.333 35.333 -99 57s-71 40.667 -109 57s-78.333 24.5 -121 24.5c-66.667 0 -127.5 -22 -182.5 -66s-99.167 -98 -132.5 -162l127 -112c16.667 38.667 40.5 73.5 71.5 104.5s70.833 46.5 119.5 46.5c36 0 70.5 -8.16699 103.5 -24.5s65.5 -35.166 97.5 -56.499
s65 -40.166 99 -56.499s70 -24.5 108 -24.5z" />
    <glyph glyph-name="Ograve" unicode="&#xd2;" horiz-adv-x="1919" 
d="M959 -32c115.333 0 223.333 22 324 66s189 105.167 265 183.5s135.5 169.333 178.5 273s64.5 214.834 64.5 333.501c0 119.333 -21.5 230.666 -64.5 333.999s-102.5 194.166 -178.5 272.499s-164.333 139.5 -265 183.5s-208.667 66 -324 66s-223.333 -22 -324 -66
s-189 -105.167 -265 -183.5s-135.5 -169.166 -178.5 -272.499s-64.5 -214.666 -64.5 -333.999c0 -118.667 21.5 -229.834 64.5 -333.501s102.5 -194.667 178.5 -273s164.333 -139.5 265 -183.5s208.667 -66 324 -66zM959 220c-104.667 0 -198.334 26.333 -281.001 79
s-148 124.5 -196 215.5s-72 194.167 -72 309.5s24 218.5 72 309.5s113.333 162.833 196 215.5s176.334 79 281.001 79c105.333 0 199.333 -26.333 282 -79s148 -124.5 196 -215.5s72 -194.167 72 -309.5s-24 -218.5 -72 -309.5s-113.333 -162.833 -196 -215.5
s-176.667 -79 -282 -79zM1045 1768l111 87l-246 420l-173 -129z" />
    <glyph glyph-name="Oacute" unicode="&#xd3;" horiz-adv-x="1919" 
d="M959 -32c115.333 0 223.333 22 324 66s189 105.167 265 183.5s135.5 169.333 178.5 273s64.5 214.834 64.5 333.501c0 119.333 -21.5 230.666 -64.5 333.999s-102.5 194.166 -178.5 272.499s-164.333 139.5 -265 183.5s-208.667 66 -324 66s-223.333 -22 -324 -66
s-189 -105.167 -265 -183.5s-135.5 -169.166 -178.5 -272.499s-64.5 -214.666 -64.5 -333.999c0 -118.667 21.5 -229.834 64.5 -333.501s102.5 -194.667 178.5 -273s164.333 -139.5 265 -183.5s208.667 -66 324 -66zM959 220c-104.667 0 -198.334 26.333 -281.001 79
s-148 124.5 -196 215.5s-72 194.167 -72 309.5s24 218.5 72 309.5s113.333 162.833 196 215.5s176.334 79 281.001 79c105.333 0 199.333 -26.333 282 -79s148 -124.5 196 -215.5s72 -194.167 72 -309.5s-24 -218.5 -72 -309.5s-113.333 -162.833 -196 -215.5
s-176.667 -79 -282 -79zM924 1768l309 378l-174 129l-245 -420z" />
    <glyph glyph-name="Ocircumflex" unicode="&#xd4;" horiz-adv-x="1919" 
d="M959 -32c115.333 0 223.333 22 324 66s189 105.167 265 183.5s135.5 169.333 178.5 273s64.5 214.834 64.5 333.501c0 119.333 -21.5 230.666 -64.5 333.999s-102.5 194.166 -178.5 272.499s-164.333 139.5 -265 183.5s-208.667 66 -324 66s-223.333 -22 -324 -66
s-189 -105.167 -265 -183.5s-135.5 -169.166 -178.5 -272.499s-64.5 -214.666 -64.5 -333.999c0 -118.667 21.5 -229.834 64.5 -333.501s102.5 -194.667 178.5 -273s164.333 -139.5 265 -183.5s208.667 -66 324 -66zM959 220c-104.667 0 -198.334 26.333 -281.001 79
s-148 124.5 -196 215.5s-72 194.167 -72 309.5s24 218.5 72 309.5s113.333 162.833 196 215.5s176.334 79 281.001 79c105.333 0 199.333 -26.333 282 -79s148 -124.5 196 -215.5s72 -194.167 72 -309.5s-24 -218.5 -72 -309.5s-113.333 -162.833 -196 -215.5
s-176.667 -79 -282 -79zM653 1894l306 224l306 -224l98 132l-404 296l-403 -296z" />
    <glyph glyph-name="Otilde" unicode="&#xd5;" horiz-adv-x="1919" 
d="M959 -32c115.333 0 223.333 22 324 66s189 105.167 265 183.5s135.5 169.333 178.5 273s64.5 214.834 64.5 333.501c0 119.333 -21.5 230.666 -64.5 333.999s-102.5 194.166 -178.5 272.499s-164.333 139.5 -265 183.5s-208.667 66 -324 66s-223.333 -22 -324 -66
s-189 -105.167 -265 -183.5s-135.5 -169.166 -178.5 -272.499s-64.5 -214.666 -64.5 -333.999c0 -118.667 21.5 -229.834 64.5 -333.501s102.5 -194.667 178.5 -273s164.333 -139.5 265 -183.5s208.667 -66 324 -66zM959 220c-104.667 0 -198.334 26.333 -281.001 79
s-148 124.5 -196 215.5s-72 194.167 -72 309.5s24 218.5 72 309.5s113.333 162.833 196 215.5s176.334 79 281.001 79c105.333 0 199.333 -26.333 282 -79s148 -124.5 196 -215.5s72 -194.167 72 -309.5s-24 -218.5 -72 -309.5s-113.333 -162.833 -196 -215.5
s-176.667 -79 -282 -79zM1163 1849c56 0 114.666 20.998 175.999 62.998s109.333 97 144 165l-127 112c-18 -42.667 -43.667 -78.667 -77 -108s-68.666 -44 -105.999 -44c-30 0 -60.667 8.16699 -92 24.5s-64.333 35.333 -99 57s-71 40.667 -109 57s-78.333 24.5 -121 24.5
c-66.667 0 -127.5 -22 -182.5 -66s-99.167 -98 -132.5 -162l127 -112c16.667 38.667 40.5 73.5 71.5 104.5s70.833 46.5 119.5 46.5c36 0 70.5 -8.16699 103.5 -24.5s65.5 -35.166 97.5 -56.499s65 -40.166 99 -56.499s70 -24.5 108 -24.5z" />
    <glyph glyph-name="Odieresis" unicode="&#xd6;" horiz-adv-x="1919" 
d="M959 -32c115.333 0 223.333 22 324 66s189 105.167 265 183.5s135.5 169.333 178.5 273s64.5 214.834 64.5 333.501c0 119.333 -21.5 230.666 -64.5 333.999s-102.5 194.166 -178.5 272.499s-164.333 139.5 -265 183.5s-208.667 66 -324 66s-223.333 -22 -324 -66
s-189 -105.167 -265 -183.5s-135.5 -169.166 -178.5 -272.499s-64.5 -214.666 -64.5 -333.999c0 -118.667 21.5 -229.834 64.5 -333.501s102.5 -194.667 178.5 -273s164.333 -139.5 265 -183.5s208.667 -66 324 -66zM959 220c-104.667 0 -198.334 26.333 -281.001 79
s-148 124.5 -196 215.5s-72 194.167 -72 309.5s24 218.5 72 309.5s113.333 162.833 196 215.5s176.334 79 281.001 79c105.333 0 199.333 -26.333 282 -79s148 -124.5 196 -215.5s72 -194.167 72 -309.5s-24 -218.5 -72 -309.5s-113.333 -162.833 -196 -215.5
s-176.667 -79 -282 -79zM1195 1904c37.333 0 69.333 13.333 96 40s40 58.667 40 96s-13.333 69.333 -40 96s-58.667 40 -96 40s-69.333 -13.333 -96 -40s-40 -58.667 -40 -96s13.333 -69.333 40 -96s58.667 -40 96 -40zM723 1904c37.333 0 69.333 13.333 96 40
s40 58.667 40 96s-13.333 69.333 -40 96s-58.667 40 -96 40s-69.333 -13.333 -96 -40s-40 -58.667 -40 -96s13.333 -69.333 40 -96s58.667 -40 96 -40z" />
    <glyph glyph-name="multiply" unicode="&#xd7;" horiz-adv-x="1303" 
d="M314 341l338 337l337 -337l150 150l-338 338l338 339l-150 149l-337 -337l-338 337l-151 -149l339 -339l-339 -338z" />
    <glyph glyph-name="Oslash" unicode="&#xd8;" horiz-adv-x="1919" 
d="M430 -15l91.998 115.997c64.667 -42 134.834 -74.667 210.501 -98s154.834 -35 237.501 -35c115.333 0 223.333 22 324 66s189 105.167 265 183.5s135.5 169.333 178.5 273s64.5 214.834 64.5 333.501c0 116 -20.833 225.167 -62.5 327.5s-98.5 191.833 -170.5 268.5
l112 141l-161 122l-106 -134c-64 41.333 -133.5 73.5 -208.5 96.5s-153.5 34.5 -235.5 34.5c-115.333 0 -223.333 -22 -324 -66s-189 -105.167 -265 -183.5s-135.5 -169.166 -178.5 -272.499s-64.5 -214.666 -64.5 -333.999c0 -116 20.667 -225 62 -327
s98 -191.333 170 -268l-100 -127zM419.998 823.997c0 115.333 24 218.5 72 309.5s113.5 162.833 196.5 215.5s176.833 79 281.5 79c52.667 0 103 -7 151 -21s92.333 -34 133 -60l-716 -906c-37.333 51.333 -66.333 109.5 -87 174.5s-31 134.5 -31 208.5zM969.998 219.997
c-53.333 0 -104.332 7.16602 -152.999 21.499s-93.334 34.833 -134.001 61.5l718 906c38 -51.333 67.333 -109.666 88 -174.999s31 -135.333 31 -210c0 -115.333 -24 -218.5 -72 -309.5s-113.333 -162.833 -196 -215.5s-176.667 -79 -282 -79z" />
    <glyph glyph-name="Ugrave" unicode="&#xd9;" horiz-adv-x="1644" 
d="M822 -32c405.333 0 608 206.333 608 619v1063h-262v-992c0 -150 -27.833 -259.667 -83.5 -329s-143.167 -104 -262.5 -104s-206.833 34.667 -262.5 104s-83.5 179 -83.5 329v992h-261v-1063c0 -412.667 202.333 -619 607 -619zM909 1751l111 87l-246 420l-173 -129z" />
    <glyph glyph-name="Uacute" unicode="&#xda;" horiz-adv-x="1644" 
d="M822 -32c405.333 0 608 206.333 608 619v1063h-262v-992c0 -150 -27.833 -259.667 -83.5 -329s-143.167 -104 -262.5 -104s-206.833 34.667 -262.5 104s-83.5 179 -83.5 329v992h-261v-1063c0 -412.667 202.333 -619 607 -619zM787 1751l309 378l-174 129l-245 -420z" />
    <glyph glyph-name="Ucircumflex" unicode="&#xdb;" horiz-adv-x="1644" 
d="M822 -32c405.333 0 608 206.333 608 619v1063h-262v-992c0 -150 -27.833 -259.667 -83.5 -329s-143.167 -104 -262.5 -104s-206.833 34.667 -262.5 104s-83.5 179 -83.5 329v992h-261v-1063c0 -412.667 202.333 -619 607 -619zM517 1877l306 224l306 -224l98 132
l-404 296l-403 -296z" />
    <glyph glyph-name="Udieresis" unicode="&#xdc;" horiz-adv-x="1644" 
d="M822 -32c405.333 0 608 206.333 608 619v1063h-262v-992c0 -150 -27.833 -259.667 -83.5 -329s-143.167 -104 -262.5 -104s-206.833 34.667 -262.5 104s-83.5 179 -83.5 329v992h-261v-1063c0 -412.667 202.333 -619 607 -619zM1059 1887c37.333 0 69.333 13.333 96 40
s40 58.667 40 96s-13.333 69.333 -40 96s-58.667 40 -96 40s-69.333 -13.333 -96 -40s-40 -58.667 -40 -96s13.333 -69.333 40 -96s58.667 -40 96 -40zM587 1887c37.333 0 69.333 13.333 96 40s40 58.667 40 96s-13.333 69.333 -40 96s-58.667 40 -96 40
s-69.333 -13.333 -96 -40s-40 -58.667 -40 -96s13.333 -69.333 40 -96s58.667 -40 96 -40z" />
    <glyph glyph-name="Yacute" unicode="&#xdd;" horiz-adv-x="1503" 
d="M621 0h261v728l588 922h-316l-403 -653l-402 653h-316l588 -922v-728zM715 1751l309 378l-174 129l-245 -420z" />
    <glyph glyph-name="Thorn" unicode="&#xde;" horiz-adv-x="1399" 
d="M241 0h262v325h252c112 0 208.667 21.333 290 64s144 102 188 178s66 164 66 264c0 149.333 -48 267.833 -144 355.5s-229.333 131.5 -400 131.5h-252v332h-262v-1650zM503 536v572.001h175c110 0 194.5 -25.167 253.5 -75.5s88.5 -118.833 88.5 -205.5
s-30 -156.834 -90 -210.501s-144 -80.5 -252 -80.5h-175z" />
    <glyph glyph-name="germandbls" unicode="&#xdf;" horiz-adv-x="1368" 
d="M613 -32l101.002 -0.00390625c105.333 1.33301 199.166 24.833 281.499 70.5s147.166 107.834 194.499 186.501s71 167.334 71 266.001c0 98 -25.333 184.5 -76 259.5s-121.334 131.5 -212.001 169.5c71.333 35.333 126.833 84.666 166.5 147.999s59.5 135.333 59.5 216
c0 88 -21.333 167.167 -64 237.5s-100.167 126 -172.5 167s-153.833 61.5 -244.5 61.5c-91.333 0 -173.5 -21.167 -246.5 -63.5s-130.833 -99.666 -173.5 -171.999s-64 -153.5 -64 -243.5v-388h-132v-196h132v-687h249v1279c0 76 22 138.333 66 187s99.333 73 166 73
c46.667 0 88.834 -11.5 126.501 -34.5s67.5 -54.167 89.5 -93.5s33 -83.666 33 -132.999c0 -50 -11 -95.167 -33 -135.5s-51.833 -72.166 -89.5 -95.499s-80.167 -35 -127.5 -35h-101v-194h101c54 0 102.5 -13.5 145.5 -40.5s77 -64 102 -111s37.5 -100.167 37.5 -159.5
c0 -58.667 -12.5 -111.5 -37.5 -158.5s-59 -84.167 -102 -111.5s-91.5 -41 -145.5 -41h-101v-228z" />
    <glyph glyph-name="agrave" unicode="&#xe0;" 
d="M624 -32c77.333 0 148.833 17.168 214.5 51.501s121.167 82.5 166.5 144.5v-164h249v1024h-249v-157c-39.333 59.333 -92.833 105.666 -160.5 138.999s-141.167 50 -220.5 50c-98.667 0 -186.167 -23.667 -262.5 -71s-136.333 -112 -180 -194s-65.5 -174.667 -65.5 -278
c0 -105.333 22.5 -199 67.5 -281s106 -146.5 183 -193.5s162.833 -70.5 257.5 -70.5zM695 181.001c-61.333 0 -116 14.333 -164 43s-85.667 67.834 -113 117.501s-41 106.5 -41 170.5s13.667 121 41 171s65 89.167 113 117.5s102.667 42.5 164 42.5
c62 0 116.833 -14.167 164.5 -42.5s85 -67.333 112 -117s40.5 -106.834 40.5 -171.501c0 -64 -13.5 -121 -40.5 -171s-64.333 -89.167 -112 -117.5s-102.5 -42.5 -164.5 -42.5zM850 1157l111 87l-246 420l-173 -129z" />
    <glyph glyph-name="aacute" unicode="&#xe1;" 
d="M624 -32c77.333 0 148.833 17.168 214.5 51.501s121.167 82.5 166.5 144.5v-164h249v1024h-249v-157c-39.333 59.333 -92.833 105.666 -160.5 138.999s-141.167 50 -220.5 50c-98.667 0 -186.167 -23.667 -262.5 -71s-136.333 -112 -180 -194s-65.5 -174.667 -65.5 -278
c0 -105.333 22.5 -199 67.5 -281s106 -146.5 183 -193.5s162.833 -70.5 257.5 -70.5zM695 181.001c-61.333 0 -116 14.333 -164 43s-85.667 67.834 -113 117.501s-41 106.5 -41 170.5s13.667 121 41 171s65 89.167 113 117.5s102.667 42.5 164 42.5
c62 0 116.833 -14.167 164.5 -42.5s85 -67.333 112 -117s40.5 -106.834 40.5 -171.501c0 -64 -13.5 -121 -40.5 -171s-64.333 -89.167 -112 -117.5s-102.5 -42.5 -164.5 -42.5zM728 1157l309 378l-174 129l-245 -420z" />
    <glyph glyph-name="acircumflex" unicode="&#xe2;" 
d="M624 -32c77.333 0 148.833 17.168 214.5 51.501s121.167 82.5 166.5 144.5v-164h249v1024h-249v-157c-39.333 59.333 -92.833 105.666 -160.5 138.999s-141.167 50 -220.5 50c-98.667 0 -186.167 -23.667 -262.5 -71s-136.333 -112 -180 -194s-65.5 -174.667 -65.5 -278
c0 -105.333 22.5 -199 67.5 -281s106 -146.5 183 -193.5s162.833 -70.5 257.5 -70.5zM695 181.001c-61.333 0 -116 14.333 -164 43s-85.667 67.834 -113 117.501s-41 106.5 -41 170.5s13.667 121 41 171s65 89.167 113 117.5s102.667 42.5 164 42.5
c62 0 116.833 -14.167 164.5 -42.5s85 -67.333 112 -117s40.5 -106.834 40.5 -171.501c0 -64 -13.5 -121 -40.5 -171s-64.333 -89.167 -112 -117.5s-102.5 -42.5 -164.5 -42.5zM458 1283l306 224l306 -224l98 132l-404 296l-403 -296z" />
    <glyph glyph-name="atilde" unicode="&#xe3;" 
d="M624 -32c77.333 0 148.833 17.168 214.5 51.501s121.167 82.5 166.5 144.5v-164h249v1024h-249v-157c-39.333 59.333 -92.833 105.666 -160.5 138.999s-141.167 50 -220.5 50c-98.667 0 -186.167 -23.667 -262.5 -71s-136.333 -112 -180 -194s-65.5 -174.667 -65.5 -278
c0 -105.333 22.5 -199 67.5 -281s106 -146.5 183 -193.5s162.833 -70.5 257.5 -70.5zM695 181.001c-61.333 0 -116 14.333 -164 43s-85.667 67.834 -113 117.501s-41 106.5 -41 170.5s13.667 121 41 171s65 89.167 113 117.5s102.667 42.5 164 42.5
c62 0 116.833 -14.167 164.5 -42.5s85 -67.333 112 -117s40.5 -106.834 40.5 -171.501c0 -64 -13.5 -121 -40.5 -171s-64.333 -89.167 -112 -117.5s-102.5 -42.5 -164.5 -42.5zM967 1238c56 0 114.666 20.998 175.999 62.998s109.333 97 144 165l-127 112
c-18 -42.667 -43.667 -78.667 -77 -108s-68.666 -44 -105.999 -44c-30 0 -60.667 8.16699 -92 24.5s-64.333 35.333 -99 57s-71 40.667 -109 57s-78.333 24.5 -121 24.5c-66.667 0 -127.5 -22 -182.5 -66s-99.167 -98 -132.5 -162l127 -112
c16.667 38.667 40.5 73.5 71.5 104.5s70.833 46.5 119.5 46.5c36 0 70.5 -8.16699 103.5 -24.5s65.5 -35.166 97.5 -56.499s65 -40.166 99 -56.499s70 -24.5 108 -24.5z" />
    <glyph glyph-name="adieresis" unicode="&#xe4;" 
d="M624 -32c77.333 0 148.833 17.168 214.5 51.501s121.167 82.5 166.5 144.5v-164h249v1024h-249v-157c-39.333 59.333 -92.833 105.666 -160.5 138.999s-141.167 50 -220.5 50c-98.667 0 -186.167 -23.667 -262.5 -71s-136.333 -112 -180 -194s-65.5 -174.667 -65.5 -278
c0 -105.333 22.5 -199 67.5 -281s106 -146.5 183 -193.5s162.833 -70.5 257.5 -70.5zM695 181.001c-61.333 0 -116 14.333 -164 43s-85.667 67.834 -113 117.501s-41 106.5 -41 170.5s13.667 121 41 171s65 89.167 113 117.5s102.667 42.5 164 42.5
c62 0 116.833 -14.167 164.5 -42.5s85 -67.333 112 -117s40.5 -106.834 40.5 -171.501c0 -64 -13.5 -121 -40.5 -171s-64.333 -89.167 -112 -117.5s-102.5 -42.5 -164.5 -42.5zM1000 1293c37.333 0 69.333 13.333 96 40s40 58.667 40 96s-13.333 69.333 -40 96
s-58.667 40 -96 40s-69.333 -13.333 -96 -40s-40 -58.667 -40 -96s13.333 -69.333 40 -96s58.667 -40 96 -40zM528 1293c37.333 0 69.333 13.333 96 40s40 58.667 40 96s-13.333 69.333 -40 96s-58.667 40 -96 40s-69.333 -13.333 -96 -40s-40 -58.667 -40 -96
s13.333 -69.333 40 -96s58.667 -40 96 -40z" />
    <glyph glyph-name="aring" unicode="&#xe5;" 
d="M624 -32c77.333 0 148.833 17.168 214.5 51.501s121.167 82.5 166.5 144.5v-164h249v1024h-249v-157c-39.333 59.333 -92.833 105.666 -160.5 138.999s-141.167 50 -220.5 50c-98.667 0 -186.167 -23.667 -262.5 -71s-136.333 -112 -180 -194s-65.5 -174.667 -65.5 -278
c0 -105.333 22.5 -199 67.5 -281s106 -146.5 183 -193.5s162.833 -70.5 257.5 -70.5zM695 181.001c-61.333 0 -116 14.333 -164 43s-85.667 67.834 -113 117.501s-41 106.5 -41 170.5s13.667 121 41 171s65 89.167 113 117.5s102.667 42.5 164 42.5
c62 0 116.833 -14.167 164.5 -42.5s85 -67.333 112 -117s40.5 -106.834 40.5 -171.501c0 -64 -13.5 -121 -40.5 -171s-64.333 -89.167 -112 -117.5s-102.5 -42.5 -164.5 -42.5zM764 1252c77.333 0 142.666 22.833 195.999 68.5s80 104.167 80 175.5
s-26.667 129.833 -80 175.5s-118.666 68.5 -195.999 68.5s-142.833 -22.833 -196.5 -68.5s-80.5 -104.167 -80.5 -175.5s26.833 -129.833 80.5 -175.5s119.167 -68.5 196.5 -68.5zM764 1374c-35.333 0 -65.833 11.667 -91.5 35s-38.5 52.333 -38.5 87s12.833 63.667 38.5 87
s56.167 35 91.5 35s65.666 -11.667 90.999 -35s38 -52.333 38 -87s-12.667 -63.667 -38 -87s-55.666 -35 -90.999 -35z" />
    <glyph glyph-name="ae" unicode="&#xe6;" horiz-adv-x="2004" 
d="M491 -32c79.333 0 154.497 17.001 225.497 51.001s143.833 84.333 218.5 151c108.667 -134.667 254.334 -202 437.001 -202c108.667 0 206 22.5 292 67.5s154 108.833 204 191.5l-180 93c-78 -101.333 -177 -152 -297 -152c-99.333 0 -179.666 28.833 -240.999 86.5
s-92 133.167 -92 226.5h836c0.666992 12 1.16699 20.5 1.5 25.5s0.5 10.5 0.5 16.5c0 103.333 -23.333 195 -70 275s-110.5 143 -191.5 189s-173.167 69 -276.5 69c-82.667 0 -159.167 -17.5 -229.5 -52.5s-129.5 -82.167 -177.5 -141.5
c-32.667 56 -83.5 102.333 -152.5 139s-151.833 55 -248.5 55c-73.333 0 -142.833 -9.83301 -208.5 -29.5s-123.834 -50.834 -174.501 -93.501l86 -167c34.667 26 77 47.667 127 65s101.333 26 154 26c82.667 0 149.334 -22.333 200.001 -67s76 -105.667 76 -183v-99
c-38 32.667 -85 58.334 -141 77.001s-114.333 28 -175 28c-75.333 0 -142.666 -13.667 -201.999 -41s-105.833 -65.333 -139.5 -114s-50.5 -105.334 -50.5 -170.001c0 -98.667 36 -176.667 108 -234s165.667 -86 281 -86zM1065 620.001
c6.66699 76.667 37.5 139.833 92.5 189.5s122.833 74.5 203.5 74.5c78.667 0 144.667 -24.5 198 -73.5s84.333 -112.5 93 -190.5h-587zM582.997 124c-65.333 0 -121.001 16.5 -167.001 49.5s-69 75.833 -69 128.5c0 51.333 22.667 92.833 68 124.5s100.333 47.5 165 47.5
c66 0 122.5 -16.167 169.5 -48.5s70.5 -74.5 70.5 -126.5s-23.167 -94.167 -69.5 -126.5s-102.166 -48.5 -167.499 -48.5z" />
    <glyph glyph-name="ccedilla" unicode="&#xe7;" horiz-adv-x="1092" 
d="M671 -32c67.333 0 131 9.83398 191 29.501s110.333 44.834 151 75.501l-90 168c-57.333 -44.667 -128.666 -67 -213.999 -67c-68 0 -127.833 15 -179.5 45s-92 70.5 -121 121.5s-43.5 108.167 -43.5 171.5c0 60 13.833 115.667 41.5 167s67 92.666 118 123.999
s111.833 47 182.5 47c86.667 0 159 -22.333 217 -67l89 168c-40 31.333 -90.5 56.666 -151.5 75.999s-124.833 29 -191.5 29c-80.667 0 -155.334 -14.333 -224.001 -43s-128.5 -68 -179.5 -118s-90.667 -107.833 -119 -173.5s-42.5 -135.5 -42.5 -209.5
c0 -76.667 14.667 -148 44 -214s70 -123.667 122 -173s112.167 -87.833 180.5 -115.5s141.5 -41.5 219.5 -41.5zM626 -544.999c76 0 138.166 21.002 186.499 63.002s72.5 95.333 72.5 160c0 43.333 -12.5 80.166 -37.5 110.499s-58.167 50.166 -99.5 59.499
c-16.667 7.33301 -34.5 12.5 -53.5 15.5s-40.167 3.5 -63.5 1.5l48 150h-112l-80 -248l14 -11c12 7.33301 28.833 13.5 50.5 18.5s42.5 7.5 62.5 7.5c39.333 0 71 -9.16699 95 -27.5s36 -42.5 36 -72.5c0 -29.333 -11.167 -53.333 -33.5 -72s-52.166 -28 -89.499 -28
c-71.333 0 -129.333 32 -174 96l-101 -74c74 -99.333 167 -149 279 -149z" />
    <glyph glyph-name="egrave" unicode="&#xe8;" horiz-adv-x="1308" 
d="M681 -32c106 0 202.167 22.832 288.5 68.499s153.833 109.167 202.5 190.5l-181 93c-78 -101.333 -177 -152 -297 -152c-98.667 0 -178.834 29 -240.501 87s-92.5 133.333 -92.5 226h834c3.33301 22 5 38.667 5 50c0 104.667 -22.5 196.334 -67.5 275.001
s-107.667 140 -188 184s-173.833 66 -280.5 66c-103.333 0 -197.166 -24.333 -281.499 -73s-151.333 -114.167 -201 -196.5s-74.5 -174.5 -74.5 -276.5c0 -102.667 25 -195 75 -277s118.333 -146.667 205 -194s184.667 -71 294 -71zM372 636.999
c10 70 41.3311 125.667 93.998 167s118.334 62 197.001 62c75.333 0 139.333 -20.833 192 -62.5s85.334 -97.167 98.001 -166.5h-581zM748.998 1144l111 87l-246 420l-173 -129z" />
    <glyph glyph-name="eacute" unicode="&#xe9;" horiz-adv-x="1308" 
d="M681 -32c106 0 202.167 22.832 288.5 68.499s153.833 109.167 202.5 190.5l-181 93c-78 -101.333 -177 -152 -297 -152c-98.667 0 -178.834 29 -240.501 87s-92.5 133.333 -92.5 226h834c3.33301 22 5 38.667 5 50c0 104.667 -22.5 196.334 -67.5 275.001
s-107.667 140 -188 184s-173.833 66 -280.5 66c-103.333 0 -197.166 -24.333 -281.499 -73s-151.333 -114.167 -201 -196.5s-74.5 -174.5 -74.5 -276.5c0 -102.667 25 -195 75 -277s118.333 -146.667 205 -194s184.667 -71 294 -71zM372 636.999
c10 70 41.3311 125.667 93.998 167s118.334 62 197.001 62c75.333 0 139.333 -20.833 192 -62.5s85.334 -97.167 98.001 -166.5h-581zM627.998 1144l309 378l-174 129l-245 -420z" />
    <glyph glyph-name="ecircumflex" unicode="&#xea;" horiz-adv-x="1308" 
d="M681 -32c106 0 202.167 22.832 288.5 68.499s153.833 109.167 202.5 190.5l-181 93c-78 -101.333 -177 -152 -297 -152c-98.667 0 -178.834 29 -240.501 87s-92.5 133.333 -92.5 226h834c3.33301 22 5 38.667 5 50c0 104.667 -22.5 196.334 -67.5 275.001
s-107.667 140 -188 184s-173.833 66 -280.5 66c-103.333 0 -197.166 -24.333 -281.499 -73s-151.333 -114.167 -201 -196.5s-74.5 -174.5 -74.5 -276.5c0 -102.667 25 -195 75 -277s118.333 -146.667 205 -194s184.667 -71 294 -71zM372 636.999
c10 70 41.3311 125.667 93.998 167s118.334 62 197.001 62c75.333 0 139.333 -20.833 192 -62.5s85.334 -97.167 98.001 -166.5h-581zM356.998 1270l306 224l306 -224l98 132l-404 296l-403 -296z" />
    <glyph glyph-name="edieresis" unicode="&#xeb;" horiz-adv-x="1308" 
d="M681 -32c106 0 202.167 22.832 288.5 68.499s153.833 109.167 202.5 190.5l-181 93c-78 -101.333 -177 -152 -297 -152c-98.667 0 -178.834 29 -240.501 87s-92.5 133.333 -92.5 226h834c3.33301 22 5 38.667 5 50c0 104.667 -22.5 196.334 -67.5 275.001
s-107.667 140 -188 184s-173.833 66 -280.5 66c-103.333 0 -197.166 -24.333 -281.499 -73s-151.333 -114.167 -201 -196.5s-74.5 -174.5 -74.5 -276.5c0 -102.667 25 -195 75 -277s118.333 -146.667 205 -194s184.667 -71 294 -71zM372 636.999
c10 70 41.3311 125.667 93.998 167s118.334 62 197.001 62c75.333 0 139.333 -20.833 192 -62.5s85.334 -97.167 98.001 -166.5h-581zM898.998 1280c37.333 0 69.333 13.333 96 40s40 58.667 40 96s-13.333 69.333 -40 96s-58.667 40 -96 40s-69.333 -13.333 -96 -40
s-40 -58.667 -40 -96s13.333 -69.333 40 -96s58.667 -40 96 -40zM426.998 1280c37.333 0 69.333 13.333 96 40s40 58.667 40 96s-13.333 69.333 -40 96s-58.667 40 -96 40s-69.333 -13.333 -96 -40s-40 -58.667 -40 -96s13.333 -69.333 40 -96s58.667 -40 96 -40z" />
    <glyph glyph-name="igrave" unicode="&#xec;" horiz-adv-x="635" 
d="M193 0h249v1024h-249v-1024zM403 1126l111 87l-246 420l-173 -129z" />
    <glyph glyph-name="iacute" unicode="&#xed;" horiz-adv-x="635" 
d="M193 0h249v1024h-249v-1024zM282 1126l309 378l-174 129l-245 -420z" />
    <glyph glyph-name="icircumflex" unicode="&#xee;" horiz-adv-x="635" 
d="M193 0h249v1024h-249v-1024zM11 1252l306 224l306 -224l98 132l-404 296l-403 -296z" />
    <glyph glyph-name="idieresis" unicode="&#xef;" horiz-adv-x="635" 
d="M193 0h249v1024h-249v-1024zM554 1262c37.333 0 69.333 13.333 96 40s40 58.667 40 96s-13.333 69.333 -40 96s-58.667 40 -96 40s-69.333 -13.333 -96 -40s-40 -58.667 -40 -96s13.333 -69.333 40 -96s58.667 -40 96 -40zM82 1262c37.333 0 69.333 13.333 96 40
s40 58.667 40 96s-13.333 69.333 -40 96s-58.667 40 -96 40s-69.333 -13.333 -96 -40s-40 -58.667 -40 -96s13.333 -69.333 40 -96s58.667 -40 96 -40z" />
    <glyph glyph-name="eth" unicode="&#xf0;" horiz-adv-x="1427" 
d="M703 -32c113.333 0 214.329 23.3369 302.996 70.0039s158.5 110.834 209.5 192.501s76.5 175.5 76.5 281.5c0 158 -22.167 300 -66.5 426s-103.666 236.833 -177.999 332.5s-157.166 177.5 -248.499 245.5l121 119l-113 115l-148 -147
c-56.667 33.333 -115 62.166 -175 86.499s-117 44.5 -171 60.5l-61 -210c35.333 -10.667 73.833 -24.834 115.5 -42.501s82.834 -38.5 123.501 -62.5l-132 -132l114 -114l161 161c62.667 -48 118.834 -105.667 168.501 -173s89.5 -145 119.5 -233
c-24 37.333 -56.833 66.666 -98.5 87.999s-87.5 32 -137.5 32c-69.333 0 -138.166 -12 -206.499 -36s-130.333 -59.333 -186 -106s-100.167 -104.334 -133.5 -173.001s-50 -147.667 -50 -237c0 -106 25.167 -199.833 75.5 -281.5s120.166 -145.834 209.499 -192.501
s192 -70 308 -70zM700.996 182.004c-64.667 0 -121.834 14.167 -171.501 42.5s-88.667 67.333 -117 117s-42.5 106.5 -42.5 170.5c0 64.667 14.5 121.834 43.5 171.501s68.5 88.667 118.5 117s106.333 42.5 169 42.5s118.834 -14.167 168.501 -42.5s89 -67.333 118 -117
s43.5 -106.834 43.5 -171.501c0 -64 -14.167 -120.833 -42.5 -170.5s-67.333 -88.667 -117 -117s-106.5 -42.5 -170.5 -42.5z" />
    <glyph glyph-name="ntilde" unicode="&#xf1;" horiz-adv-x="1353" 
d="M193 0h249.001v628c0 64 22.167 118.667 66.5 164s105.166 68 182.499 68c74.667 0 133.167 -23.167 175.5 -69.5s63.5 -112.166 63.5 -197.499v-593h249v645c0 125.333 -36 225.166 -108 299.499s-167 111.5 -285 111.5c-76 0 -143.5 -14.5 -202.5 -43.5
s-106.167 -66.167 -141.5 -111.5v123h-249v-1024zM903.001 1238c56 0 114.666 20.998 175.999 62.998s109.333 97 144 165l-127 112c-18 -42.667 -43.667 -78.667 -77 -108s-68.666 -44 -105.999 -44c-30 0 -60.667 8.16699 -92 24.5s-64.333 35.333 -99 57
s-71 40.667 -109 57s-78.333 24.5 -121 24.5c-66.667 0 -127.5 -22 -182.5 -66s-99.167 -98 -132.5 -162l127 -112c16.667 38.667 40.5 73.5 71.5 104.5s70.833 46.5 119.5 46.5c36 0 70.5 -8.16699 103.5 -24.5s65.5 -35.166 97.5 -56.499s65 -40.166 99 -56.499
s70 -24.5 108 -24.5z" />
    <glyph glyph-name="ograve" unicode="&#xf2;" horiz-adv-x="1392" 
d="M696 -32c110.667 0 210.334 23 299.001 69s159 110 211 192s78 176.333 78 283c0 107.333 -26 201.833 -78 283.5s-122.333 145.5 -211 191.5s-188.334 69 -299.001 69s-210.5 -23 -299.5 -69s-159.5 -109.833 -211.5 -191.5s-78 -176.167 -78 -283.5
c0 -106.667 26 -201 78 -283s122.5 -146 211.5 -192s188.833 -69 299.5 -69zM696 182c-62 0 -117.833 14.167 -167.5 42.5s-89 67.333 -118 117s-43.5 106.5 -43.5 170.5c0 64.667 14.5 121.667 43.5 171s68.333 88.166 118 116.499s105.5 42.5 167.5 42.5
c62.667 0 118.834 -14.167 168.501 -42.5s88.834 -67.166 117.501 -116.499s43 -106.333 43 -171c0 -64 -14.333 -120.833 -43 -170.5s-67.834 -88.667 -117.501 -117s-105.834 -42.5 -168.501 -42.5zM782 1157l111 87l-246 420l-173 -129z" />
    <glyph glyph-name="oacute" unicode="&#xf3;" horiz-adv-x="1392" 
d="M696 -32c110.667 0 210.334 23 299.001 69s159 110 211 192s78 176.333 78 283c0 107.333 -26 201.833 -78 283.5s-122.333 145.5 -211 191.5s-188.334 69 -299.001 69s-210.5 -23 -299.5 -69s-159.5 -109.833 -211.5 -191.5s-78 -176.167 -78 -283.5
c0 -106.667 26 -201 78 -283s122.5 -146 211.5 -192s188.833 -69 299.5 -69zM696 182c-62 0 -117.833 14.167 -167.5 42.5s-89 67.333 -118 117s-43.5 106.5 -43.5 170.5c0 64.667 14.5 121.667 43.5 171s68.333 88.166 118 116.499s105.5 42.5 167.5 42.5
c62.667 0 118.834 -14.167 168.501 -42.5s88.834 -67.166 117.501 -116.499s43 -106.333 43 -171c0 -64 -14.333 -120.833 -43 -170.5s-67.834 -88.667 -117.501 -117s-105.834 -42.5 -168.501 -42.5zM660 1157l309 378l-174 129l-245 -420z" />
    <glyph glyph-name="ocircumflex" unicode="&#xf4;" horiz-adv-x="1392" 
d="M696 -32c110.667 0 210.334 23 299.001 69s159 110 211 192s78 176.333 78 283c0 107.333 -26 201.833 -78 283.5s-122.333 145.5 -211 191.5s-188.334 69 -299.001 69s-210.5 -23 -299.5 -69s-159.5 -109.833 -211.5 -191.5s-78 -176.167 -78 -283.5
c0 -106.667 26 -201 78 -283s122.5 -146 211.5 -192s188.833 -69 299.5 -69zM696 182c-62 0 -117.833 14.167 -167.5 42.5s-89 67.333 -118 117s-43.5 106.5 -43.5 170.5c0 64.667 14.5 121.667 43.5 171s68.333 88.166 118 116.499s105.5 42.5 167.5 42.5
c62.667 0 118.834 -14.167 168.501 -42.5s88.834 -67.166 117.501 -116.499s43 -106.333 43 -171c0 -64 -14.333 -120.833 -43 -170.5s-67.834 -88.667 -117.501 -117s-105.834 -42.5 -168.501 -42.5zM389 1283l306 224l306 -224l98 132l-404 296l-403 -296z" />
    <glyph glyph-name="otilde" unicode="&#xf5;" horiz-adv-x="1392" 
d="M696 -32c110.667 0 210.334 23 299.001 69s159 110 211 192s78 176.333 78 283c0 107.333 -26 201.833 -78 283.5s-122.333 145.5 -211 191.5s-188.334 69 -299.001 69s-210.5 -23 -299.5 -69s-159.5 -109.833 -211.5 -191.5s-78 -176.167 -78 -283.5
c0 -106.667 26 -201 78 -283s122.5 -146 211.5 -192s188.833 -69 299.5 -69zM696 182c-62 0 -117.833 14.167 -167.5 42.5s-89 67.333 -118 117s-43.5 106.5 -43.5 170.5c0 64.667 14.5 121.667 43.5 171s68.333 88.166 118 116.499s105.5 42.5 167.5 42.5
c62.667 0 118.834 -14.167 168.501 -42.5s88.834 -67.166 117.501 -116.499s43 -106.333 43 -171c0 -64 -14.333 -120.833 -43 -170.5s-67.834 -88.667 -117.501 -117s-105.834 -42.5 -168.501 -42.5zM899 1238c56 0 114.666 20.998 175.999 62.998s109.333 97 144 165
l-127 112c-18 -42.667 -43.667 -78.667 -77 -108s-68.666 -44 -105.999 -44c-30 0 -60.667 8.16699 -92 24.5s-64.333 35.333 -99 57s-71 40.667 -109 57s-78.333 24.5 -121 24.5c-66.667 0 -127.5 -22 -182.5 -66s-99.167 -98 -132.5 -162l127 -112
c16.667 38.667 40.5 73.5 71.5 104.5s70.833 46.5 119.5 46.5c36 0 70.5 -8.16699 103.5 -24.5s65.5 -35.166 97.5 -56.499s65 -40.166 99 -56.499s70 -24.5 108 -24.5z" />
    <glyph glyph-name="odieresis" unicode="&#xf6;" horiz-adv-x="1392" 
d="M696 -32c110.667 0 210.334 23 299.001 69s159 110 211 192s78 176.333 78 283c0 107.333 -26 201.833 -78 283.5s-122.333 145.5 -211 191.5s-188.334 69 -299.001 69s-210.5 -23 -299.5 -69s-159.5 -109.833 -211.5 -191.5s-78 -176.167 -78 -283.5
c0 -106.667 26 -201 78 -283s122.5 -146 211.5 -192s188.833 -69 299.5 -69zM696 182c-62 0 -117.833 14.167 -167.5 42.5s-89 67.333 -118 117s-43.5 106.5 -43.5 170.5c0 64.667 14.5 121.667 43.5 171s68.333 88.166 118 116.499s105.5 42.5 167.5 42.5
c62.667 0 118.834 -14.167 168.501 -42.5s88.834 -67.166 117.501 -116.499s43 -106.333 43 -171c0 -64 -14.333 -120.833 -43 -170.5s-67.834 -88.667 -117.501 -117s-105.834 -42.5 -168.501 -42.5zM932 1293c37.333 0 69.333 13.333 96 40s40 58.667 40 96
s-13.333 69.333 -40 96s-58.667 40 -96 40s-69.333 -13.333 -96 -40s-40 -58.667 -40 -96s13.333 -69.333 40 -96s58.667 -40 96 -40zM460 1293c37.333 0 69.333 13.333 96 40s40 58.667 40 96s-13.333 69.333 -40 96s-58.667 40 -96 40s-69.333 -13.333 -96 -40
s-40 -58.667 -40 -96s13.333 -69.333 40 -96s58.667 -40 96 -40z" />
    <glyph glyph-name="divide" unicode="&#xf7;" horiz-adv-x="1345" 
d="M659 1176c33.333 0 61.666 11.833 84.999 35.5s35 52.5 35 86.5c0 34.667 -11.667 64 -35 88s-51.666 36 -84.999 36c-32.667 0 -60.667 -12 -84 -36s-35 -53.333 -35 -88c0 -34 11.667 -62.833 35 -86.5s51.333 -35.5 84 -35.5zM146 722h1026v216h-1026v-216zM659 238
c33.333 0 61.666 12 84.999 36s35 53.333 35 88s-11.667 63.834 -35 87.501s-51.666 35.5 -84.999 35.5c-32.667 0 -60.667 -11.833 -84 -35.5s-35 -52.834 -35 -87.501s11.667 -64 35 -88s51.333 -36 84 -36z" />
    <glyph glyph-name="oslash" unicode="&#xf8;" horiz-adv-x="1392" 
d="M187 -32h124.999l65 79c94.667 -52.667 201 -79 319 -79c110.667 0 210.334 23 299.001 69s159 110 211 192s78 176.333 78 283c0 85.333 -17 163 -51 233s-80.333 129 -139 177l110 134h-125l-65 -79c-94 52.667 -200 79 -318 79c-110.667 0 -210.5 -23 -299.5 -69
s-159.5 -109.833 -211.5 -191.5s-78 -176.167 -78 -283.5c0 -85.333 17 -163 51 -233s80.333 -129 139 -177zM366.999 512c0 64.667 14.5 121.668 43.5 171.001s68.333 88.166 118 116.499s105.5 42.5 167.5 42.5c63.333 0 120.333 -14.667 171 -44l-418 -510
c-26 28.667 -46.167 62 -60.5 100s-21.5 79.333 -21.5 124zM695.999 182.001c-63.333 0 -120.665 15 -171.998 45l419 510c25.333 -28.667 45.333 -62.167 60 -100.5s22 -79.833 22 -124.5c0 -64 -14.333 -120.833 -43 -170.5s-67.834 -88.667 -117.501 -117
s-105.834 -42.5 -168.501 -42.5z" />
    <glyph glyph-name="ugrave" unicode="&#xf9;" horiz-adv-x="1328" 
d="M664 -32c175.333 0 301.5 36.167 378.5 108.5s115.5 191.833 115.5 358.5v589h-249v-533c0 -116 -18.5 -198.167 -55.5 -246.5s-100.167 -72.5 -189.5 -72.5c-88.667 0 -151.667 24.167 -189 72.5s-56 130.5 -56 246.5v533h-249v-589
c0 -166.667 38.333 -286.167 115 -358.5s203 -108.5 379 -108.5zM750 1126l111 87l-246 420l-173 -129z" />
    <glyph glyph-name="uacute" unicode="&#xfa;" horiz-adv-x="1328" 
d="M664 -32c175.333 0 301.5 36.167 378.5 108.5s115.5 191.833 115.5 358.5v589h-249v-533c0 -116 -18.5 -198.167 -55.5 -246.5s-100.167 -72.5 -189.5 -72.5c-88.667 0 -151.667 24.167 -189 72.5s-56 130.5 -56 246.5v533h-249v-589
c0 -166.667 38.333 -286.167 115 -358.5s203 -108.5 379 -108.5zM629 1126l309 378l-174 129l-245 -420z" />
    <glyph glyph-name="ucircumflex" unicode="&#xfb;" horiz-adv-x="1328" 
d="M664 -32c175.333 0 301.5 36.167 378.5 108.5s115.5 191.833 115.5 358.5v589h-249v-533c0 -116 -18.5 -198.167 -55.5 -246.5s-100.167 -72.5 -189.5 -72.5c-88.667 0 -151.667 24.167 -189 72.5s-56 130.5 -56 246.5v533h-249v-589
c0 -166.667 38.333 -286.167 115 -358.5s203 -108.5 379 -108.5zM358 1252l306 224l306 -224l98 132l-404 296l-403 -296z" />
    <glyph glyph-name="udieresis" unicode="&#xfc;" horiz-adv-x="1328" 
d="M664 -32c175.333 0 301.5 36.167 378.5 108.5s115.5 191.833 115.5 358.5v589h-249v-533c0 -116 -18.5 -198.167 -55.5 -246.5s-100.167 -72.5 -189.5 -72.5c-88.667 0 -151.667 24.167 -189 72.5s-56 130.5 -56 246.5v533h-249v-589
c0 -166.667 38.333 -286.167 115 -358.5s203 -108.5 379 -108.5zM901 1262c37.333 0 69.333 13.333 96 40s40 58.667 40 96s-13.333 69.333 -40 96s-58.667 40 -96 40s-69.333 -13.333 -96 -40s-40 -58.667 -40 -96s13.333 -69.333 40 -96s58.667 -40 96 -40zM429 1262
c37.333 0 69.333 13.333 96 40s40 58.667 40 96s-13.333 69.333 -40 96s-58.667 40 -96 40s-69.333 -13.333 -96 -40s-40 -58.667 -40 -96s13.333 -69.333 40 -96s58.667 -40 96 -40z" />
    <glyph glyph-name="yacute" unicode="&#xfd;" horiz-adv-x="1251" 
d="M196 -520h284l754 1544h-284l-307 -690l-347 690h-284l487 -933zM590 1126l309 378l-174 129l-245 -420z" />
    <glyph glyph-name="thorn" unicode="&#xfe;" horiz-adv-x="1448" 
d="M193 -520l249.001 -0.000976562v684c40.667 -58.667 94 -106 160 -142s139.333 -54 220 -54c99.333 0 187.333 24 264 72s136.834 113.167 180.501 195.5s65.5 174.5 65.5 276.5c0 102.667 -21.833 195 -65.5 277s-103.834 147 -180.501 195s-164.667 72 -264 72
c-80.667 0 -153.834 -16.667 -219.501 -50s-119.167 -79.666 -160.5 -138.999v853h-249v-2240zM752.001 180.999c-61.333 0 -115.833 14.167 -163.5 42.5s-85.167 67.5 -112.5 117.5s-41 107 -41 171c0 65.333 14 122.833 42 172.5s66 88.5 114 116.5s101.667 42 161 42
c60.667 0 115 -14 163 -42s86 -66.833 114 -116.5s42 -107.167 42 -172.5c0 -64 -13.5 -121 -40.5 -171s-64.5 -89.167 -112.5 -117.5s-103.333 -42.5 -166 -42.5z" />
    <glyph glyph-name="ydieresis" unicode="&#xff;" horiz-adv-x="1251" 
d="M196 -520h284l754 1544h-284l-307 -690l-347 690h-284l487 -933zM862 1262c37.333 0 69.333 13.333 96 40s40 58.667 40 96s-13.333 69.333 -40 96s-58.667 40 -96 40s-69.333 -13.333 -96 -40s-40 -58.667 -40 -96s13.333 -69.333 40 -96s58.667 -40 96 -40zM390 1262
c37.333 0 69.333 13.333 96 40s40 58.667 40 96s-13.333 69.333 -40 96s-58.667 40 -96 40s-69.333 -13.333 -96 -40s-40 -58.667 -40 -96s13.333 -69.333 40 -96s58.667 -40 96 -40z" />
    <glyph glyph-name="Amacron" unicode="&#x100;" horiz-adv-x="1662" 
d="M52 0h281l163 430h670l162 -430h282l-658 1650h-243zM585 660l245 638l247 -638h-492zM422 1928h816v171h-816v-171z" />
    <glyph glyph-name="amacron" unicode="&#x101;" 
d="M624 -32c77.333 0 148.833 17.168 214.5 51.501s121.167 82.5 166.5 144.5v-164h249v1024h-249v-157c-39.333 59.333 -92.833 105.666 -160.5 138.999s-141.167 50 -220.5 50c-98.667 0 -186.167 -23.667 -262.5 -71s-136.333 -112 -180 -194s-65.5 -174.667 -65.5 -278
c0 -105.333 22.5 -199 67.5 -281s106 -146.5 183 -193.5s162.833 -70.5 257.5 -70.5zM695 181.001c-61.333 0 -116 14.333 -164 43s-85.667 67.834 -113 117.501s-41 106.5 -41 170.5s13.667 121 41 171s65 89.167 113 117.5s102.667 42.5 164 42.5
c62 0 116.833 -14.167 164.5 -42.5s85 -67.333 112 -117s40.5 -106.834 40.5 -171.501c0 -64 -13.5 -121 -40.5 -171s-64.333 -89.167 -112 -117.5s-102.5 -42.5 -164.5 -42.5zM356 1334h816v171h-816v-171z" />
    <glyph glyph-name="Abreve" unicode="&#x102;" horiz-adv-x="1662" 
d="M52 0h281l163 430h670l162 -430h282l-658 1650h-243zM585 660l245 638l247 -638h-492zM830 1919c117.333 0 215.666 31.667 294.999 95s126.333 145.666 141 247l-180 44c-8.66699 -60.667 -34.667 -113.5 -78 -158.5s-102.666 -67.5 -177.999 -67.5
c-76 0 -135.333 22.5 -178 67.5s-68.667 97.833 -78 158.5l-180 -44c15.333 -101.333 62.5 -183.666 141.5 -247c79 -63.333 177.167 -95 294.5 -95z" />
    <glyph glyph-name="abreve" unicode="&#x103;" 
d="M624 -32c77.333 0 148.833 17.168 214.5 51.501s121.167 82.5 166.5 144.5v-164h249v1024h-249v-157c-39.333 59.333 -92.833 105.666 -160.5 138.999s-141.167 50 -220.5 50c-98.667 0 -186.167 -23.667 -262.5 -71s-136.333 -112 -180 -194s-65.5 -174.667 -65.5 -278
c0 -105.333 22.5 -199 67.5 -281s106 -146.5 183 -193.5s162.833 -70.5 257.5 -70.5zM695 181.001c-61.333 0 -116 14.333 -164 43s-85.667 67.834 -113 117.501s-41 106.5 -41 170.5s13.667 121 41 171s65 89.167 113 117.5s102.667 42.5 164 42.5
c62 0 116.833 -14.167 164.5 -42.5s85 -67.333 112 -117s40.5 -106.834 40.5 -171.501c0 -64 -13.5 -121 -40.5 -171s-64.333 -89.167 -112 -117.5s-102.5 -42.5 -164.5 -42.5zM764 1325c117.333 0 215.666 31.667 294.999 95s126.333 145.666 141 246.999l-180 44
c-8.66699 -60.667 -34.667 -113.5 -78 -158.5s-102.666 -67.5 -177.999 -67.5c-76 0 -135.333 22.5 -178 67.5s-68.667 97.833 -78 158.5l-180 -44c15.333 -101.333 62.5 -183.666 141.5 -246.999s177.167 -95 294.5 -95z" />
    <glyph glyph-name="Aogonek" unicode="&#x104;" horiz-adv-x="1662" 
d="M52 0h281l163 430h670l162 -430h282l-658 1650h-243zM585 660l245 638l247 -638h-492zM1563 -553c54 0 105.667 12.8301 155 38.4971s89.333 60.834 120 105.501l-105 78c-42 -52.667 -91.333 -79 -148 -79c-40.667 0 -71.167 11.333 -91.5 34s-30.5 50.334 -30.5 83.001
c0 39.333 13.167 85.833 39.5 139.5s62.5 106.834 108.5 159.501h-123c-56.667 -62.667 -100.167 -122.5 -130.5 -179.5s-45.5 -108.5 -45.5 -154.5c0 -62 23.667 -115 71 -159s107.333 -66 180 -66z" />
    <glyph glyph-name="aogonek" unicode="&#x105;" 
d="M624 -32c77.333 0 148.833 17.168 214.5 51.501s121.167 82.5 166.5 144.5v-164h249v1024h-249v-157c-39.333 59.333 -92.833 105.666 -160.5 138.999s-141.167 50 -220.5 50c-98.667 0 -186.167 -23.667 -262.5 -71s-136.333 -112 -180 -194s-65.5 -174.667 -65.5 -278
c0 -105.333 22.5 -199 67.5 -281s106 -146.5 183 -193.5s162.833 -70.5 257.5 -70.5zM695 181.001c-61.333 0 -116 14.333 -164 43s-85.667 67.834 -113 117.501s-41 106.5 -41 170.5s13.667 121 41 171s65 89.167 113 117.5s102.667 42.5 164 42.5
c62 0 116.833 -14.167 164.5 -42.5s85 -67.333 112 -117s40.5 -106.834 40.5 -171.501c0 -64 -13.5 -121 -40.5 -171s-64.333 -89.167 -112 -117.5s-102.5 -42.5 -164.5 -42.5zM1207 -558.999c54 0 105.667 12.8301 155 38.4971s89.333 60.834 120 105.501l-105 78
c-42 -52.667 -91.333 -79 -148 -79c-40.667 0 -71.167 11.333 -91.5 34s-30.5 50.334 -30.5 83.001c0 39.333 13.167 85.833 39.5 139.5s62.5 106.834 108.5 159.501h-123c-56.667 -62.667 -100.167 -122.5 -130.5 -179.5s-45.5 -108.5 -45.5 -154.5
c0 -62 23.667 -115 71 -159s107.333 -66 180 -66z" />
    <glyph glyph-name="Cacute" unicode="&#x106;" horiz-adv-x="1558" 
d="M976 -32c103.333 0 200.501 15 291.501 45s168.833 68.667 233.5 116l-115 222c-50 -40 -109.333 -71 -178 -93s-141 -33 -217 -33c-120 0 -227 26.5 -321 79.5s-168 124.667 -222 215s-81 191.833 -81 304.5s27 214.167 81 304.5s128 162 222 215s201 79.5 321 79.5
c76 0 148.333 -11 217 -33s128 -53 178 -93l115 222c-66.667 48.667 -145.667 87.667 -237 117s-188 44 -290 44c-124 0 -239.833 -21.833 -347.5 -65.5s-202.334 -104.5 -284.001 -182.5s-145.5 -168.833 -191.5 -272.5s-69 -215.5 -69 -335.5s23 -231.833 69 -335.5
s109.833 -194.5 191.5 -272.5s176.5 -138.833 284.5 -182.5s224.333 -65.5 349 -65.5zM939.001 1781l309 378l-174 129l-245 -420z" />
    <glyph glyph-name="cacute" unicode="&#x107;" horiz-adv-x="1092" 
d="M671 -32c67.333 0 131 9.83398 191 29.501s110.333 44.834 151 75.501l-90 168c-57.333 -44.667 -128.666 -67 -213.999 -67c-68 0 -127.833 15 -179.5 45s-92 70.5 -121 121.5s-43.5 108.167 -43.5 171.5c0 60 13.833 115.667 41.5 167s67 92.666 118 123.999
s111.833 47 182.5 47c86.667 0 159 -22.333 217 -67l89 168c-40 31.333 -90.5 56.666 -151.5 75.999s-124.833 29 -191.5 29c-80.667 0 -155.334 -14.333 -224.001 -43s-128.5 -68 -179.5 -118s-90.667 -107.833 -119 -173.5s-42.5 -135.5 -42.5 -209.5
c0 -76.667 14.667 -148 44 -214s70 -123.667 122 -173s112.167 -87.833 180.5 -115.5s141.5 -41.5 219.5 -41.5zM597 1157l309 378l-174 129l-245 -420z" />
    <glyph glyph-name="Cdotaccent" unicode="&#x10a;" horiz-adv-x="1558" 
d="M976 -32c103.333 0 200.501 15 291.501 45s168.833 68.667 233.5 116l-115 222c-50 -40 -109.333 -71 -178 -93s-141 -33 -217 -33c-120 0 -227 26.5 -321 79.5s-168 124.667 -222 215s-81 191.833 -81 304.5s27 214.167 81 304.5s128 162 222 215s201 79.5 321 79.5
c76 0 148.333 -11 217 -33s128 -53 178 -93l115 222c-66.667 48.667 -145.667 87.667 -237 117s-188 44 -290 44c-124 0 -239.833 -21.833 -347.5 -65.5s-202.334 -104.5 -284.001 -182.5s-145.5 -168.833 -191.5 -272.5s-69 -215.5 -69 -335.5s23 -231.833 69 -335.5
s109.833 -194.5 191.5 -272.5s176.5 -138.833 284.5 -182.5s224.333 -65.5 349 -65.5zM975.001 1982c42 0 77.667 14.833 107 44.5s44 65.5 44 107.5c0 41.333 -14.667 76.666 -44 106c-29.333 29.333 -65 44 -107 44s-77.667 -14.667 -107 -44s-44 -64.666 -44 -106
c0 -42 14.667 -77.833 44 -107.5s65 -44.5 107 -44.5z" />
    <glyph glyph-name="cdotaccent" unicode="&#x10b;" horiz-adv-x="1092" 
d="M671 -32c67.333 0 131 9.83398 191 29.501s110.333 44.834 151 75.501l-90 168c-57.333 -44.667 -128.666 -67 -213.999 -67c-68 0 -127.833 15 -179.5 45s-92 70.5 -121 121.5s-43.5 108.167 -43.5 171.5c0 60 13.833 115.667 41.5 167s67 92.666 118 123.999
s111.833 47 182.5 47c86.667 0 159 -22.333 217 -67l89 168c-40 31.333 -90.5 56.666 -151.5 75.999s-124.833 29 -191.5 29c-80.667 0 -155.334 -14.333 -224.001 -43s-128.5 -68 -179.5 -118s-90.667 -107.833 -119 -173.5s-42.5 -135.5 -42.5 -209.5
c0 -76.667 14.667 -148 44 -214s70 -123.667 122 -173s112.167 -87.833 180.5 -115.5s141.5 -41.5 219.5 -41.5zM634 1358c42 0 77.667 14.833 107 44.5s44 65.5 44 107.5c0 41.333 -14.667 76.666 -44 105.999s-65 44 -107 44s-77.667 -14.667 -107 -44
s-44 -64.666 -44 -105.999c0 -42 14.667 -77.833 44 -107.5s65 -44.5 107 -44.5z" />
    <glyph glyph-name="Ccaron" unicode="&#x10c;" horiz-adv-x="1558" 
d="M976 -32c103.333 0 200.501 15 291.501 45s168.833 68.667 233.5 116l-115 222c-50 -40 -109.333 -71 -178 -93s-141 -33 -217 -33c-120 0 -227 26.5 -321 79.5s-168 124.667 -222 215s-81 191.833 -81 304.5s27 214.167 81 304.5s128 162 222 215s201 79.5 321 79.5
c76 0 148.333 -11 217 -33s128 -53 178 -93l115 222c-66.667 48.667 -145.667 87.667 -237 117s-188 44 -290 44c-124 0 -239.833 -21.833 -347.5 -65.5s-202.334 -104.5 -284.001 -182.5s-145.5 -168.833 -191.5 -272.5s-69 -215.5 -69 -335.5s23 -231.833 69 -335.5
s109.833 -194.5 191.5 -272.5s176.5 -138.833 284.5 -182.5s224.333 -65.5 349 -65.5zM974.001 1841l404 297l-98 132l-306 -224l-306 224l-97 -132z" />
    <glyph glyph-name="ccaron" unicode="&#x10d;" horiz-adv-x="1092" 
d="M671 -32c67.333 0 131 9.83398 191 29.501s110.333 44.834 151 75.501l-90 168c-57.333 -44.667 -128.666 -67 -213.999 -67c-68 0 -127.833 15 -179.5 45s-92 70.5 -121 121.5s-43.5 108.167 -43.5 171.5c0 60 13.833 115.667 41.5 167s67 92.666 118 123.999
s111.833 47 182.5 47c86.667 0 159 -22.333 217 -67l89 168c-40 31.333 -90.5 56.666 -151.5 75.999s-124.833 29 -191.5 29c-80.667 0 -155.334 -14.333 -224.001 -43s-128.5 -68 -179.5 -118s-90.667 -107.833 -119 -173.5s-42.5 -135.5 -42.5 -209.5
c0 -76.667 14.667 -148 44 -214s70 -123.667 122 -173s112.167 -87.833 180.5 -115.5s141.5 -41.5 219.5 -41.5zM633 1217l404 297l-98 132l-306 -224l-306 224l-97 -132z" />
    <glyph glyph-name="Dcaron" unicode="&#x10e;" horiz-adv-x="1621" 
d="M241 0h424.001c117.333 -0 226.5 20.833 327.5 62.5s189.333 100 265 175s134.5 162.5 176.5 262.5s63 208 63 324s-21.167 224.167 -63.5 324.5s-101.333 188 -177 263s-163.834 133.5 -264.501 175.5s-209.667 63 -327 63h-424v-1650zM503.001 235v1180h134
c110 0 208.667 -25.833 296 -77.5s156.333 -122 207 -211s76 -189.5 76 -301.5s-25.333 -212.5 -76 -301.5s-119.667 -159.333 -207 -211s-186 -77.5 -296 -77.5h-134zM811.001 1811l404 297l-98 132l-306 -224l-306 224l-97 -132z" />
    <glyph glyph-name="dcaron" unicode="&#x10f;" 
d="M622 -32c78 0 150.167 17.335 216.5 52.002s121.833 82.667 166.5 144v-164h249v1721h-249v-854c-40.667 59.333 -94 105.666 -160 138.999s-138.333 50 -217 50c-98.667 0 -186.5 -23.667 -263.5 -71s-137.667 -112 -182 -194s-66.5 -175 -66.5 -279
c0 -106 22.5 -199.833 67.5 -281.5s105.833 -145.834 182.5 -192.501s162 -70 256 -70zM693 181.002c-61.333 0 -115.833 14.167 -163.5 42.5s-85 67.5 -112 117.5s-40.5 106.667 -40.5 170c0 64.667 13.667 121.834 41 171.501s65 88.834 113 117.501s102.667 43 164 43
s115.833 -14.333 163.5 -43s85.167 -67.834 112.5 -117.501s41 -106.834 41 -171.501c0 -64 -13.667 -120.833 -41 -170.5s-65 -88.667 -113 -117s-103 -42.5 -165 -42.5zM643 1578l404 297l-98 132l-306 -224l-306 224l-97 -132z" />
    <glyph glyph-name="Dcroat" unicode="&#x110;" horiz-adv-x="1662" 
d="M282 0l423 -0.00390625c113.333 0 220.166 20.167 320.499 60.5s188.833 97.333 265.5 171s136.834 160.834 180.501 261.501s65.5 211.334 65.5 332.001c0 120 -21.833 230.333 -65.5 331s-104 187.834 -181 261.501s-165.5 130.834 -265.5 171.501s-206.667 61 -320 61
h-423v-718h-164v-214h164v-718zM543 234.996v483h333v214h-333v483h134c110 0 208.833 -25.833 296.5 -77.5s157 -122 208 -211s76.167 -189.5 75.5 -301.5c0 -112.667 -25.5 -213.5 -76.5 -302.5s-120.167 -159.167 -207.5 -210.5s-186 -77 -296 -77h-134z" />
    <glyph glyph-name="dcroat" unicode="&#x111;" 
d="M626 -32c80.667 0 153.831 18.001 219.498 54.001s118.834 83.333 159.501 142v-164h249v1289h147v163h-147v269h-249v-269h-328v-163h328v-422c-41.333 59.333 -94.666 105.666 -159.999 138.999s-138.333 50 -219 50c-98.667 0 -186.5 -24 -263.5 -72
s-137.333 -113 -181 -195s-65.5 -174.333 -65.5 -277c0 -102 21.833 -194.167 65.5 -276.5s104 -147.5 181 -195.5s164.833 -72 263.5 -72zM694.997 181.001c-62.667 0 -117.833 14.167 -165.5 42.5s-85 67.5 -112 117.5s-40.5 107 -40.5 171c0 65.333 14 122.833 42 172.5
s66 88.5 114 116.5s102 42 162 42s114 -14 162 -42s85.833 -66.833 113.5 -116.5s41.5 -107.167 41.5 -172.5c0 -64 -13.667 -121 -41 -171s-64.833 -89.167 -112.5 -117.5s-102.167 -42.5 -163.5 -42.5z" />
    <glyph glyph-name="Emacron" unicode="&#x112;" horiz-adv-x="1300" 
d="M241 0h887v230h-625v482h601v230h-601v478h625v230h-887v-1650zM279 1928h816v171h-816v-171z" />
    <glyph glyph-name="emacron" unicode="&#x113;" horiz-adv-x="1308" 
d="M681 -32c106 0 202.167 22.832 288.5 68.499s153.833 109.167 202.5 190.5l-181 93c-78 -101.333 -177 -152 -297 -152c-98.667 0 -178.834 29 -240.501 87s-92.5 133.333 -92.5 226h834c3.33301 22 5 38.667 5 50c0 104.667 -22.5 196.334 -67.5 275.001
s-107.667 140 -188 184s-173.833 66 -280.5 66c-103.333 0 -197.166 -24.333 -281.499 -73s-151.333 -114.167 -201 -196.5s-74.5 -174.5 -74.5 -276.5c0 -102.667 25 -195 75 -277s118.333 -146.667 205 -194s184.667 -71 294 -71zM372 636.999
c10 70 41.3311 125.667 93.998 167s118.334 62 197.001 62c75.333 0 139.333 -20.833 192 -62.5s85.334 -97.167 98.001 -166.5h-581zM254.998 1321h816v171h-816v-171z" />
    <glyph glyph-name="Edotaccent" unicode="&#x116;" horiz-adv-x="1300" 
d="M241 0h887v230h-625v482h601v230h-601v478h625v230h-887v-1650zM687 1952c42 0 77.667 14.833 107 44.5s44 65.5 44 107.5c0 41.333 -14.667 76.666 -44 106c-29.333 29.333 -65 44 -107 44s-77.667 -14.667 -107 -44s-44 -64.666 -44 -106
c0 -42 14.667 -77.833 44 -107.5s65 -44.5 107 -44.5z" />
    <glyph glyph-name="edotaccent" unicode="&#x117;" horiz-adv-x="1308" 
d="M681 -32c106 0 202.167 22.832 288.5 68.499s153.833 109.167 202.5 190.5l-181 93c-78 -101.333 -177 -152 -297 -152c-98.667 0 -178.834 29 -240.501 87s-92.5 133.333 -92.5 226h834c3.33301 22 5 38.667 5 50c0 104.667 -22.5 196.334 -67.5 275.001
s-107.667 140 -188 184s-173.833 66 -280.5 66c-103.333 0 -197.166 -24.333 -281.499 -73s-151.333 -114.167 -201 -196.5s-74.5 -174.5 -74.5 -276.5c0 -102.667 25 -195 75 -277s118.333 -146.667 205 -194s184.667 -71 294 -71zM372 636.999
c10 70 41.3311 125.667 93.998 167s118.334 62 197.001 62c75.333 0 139.333 -20.833 192 -62.5s85.334 -97.167 98.001 -166.5h-581zM663.998 1345c42 0 77.667 14.833 107 44.5s44 65.5 44 107.5c0 41.333 -14.667 76.666 -44 105.999s-65 44 -107 44
s-77.667 -14.667 -107 -44s-44 -64.666 -44 -105.999c0 -42 14.667 -77.833 44 -107.5s65 -44.5 107 -44.5z" />
    <glyph glyph-name="Eogonek" unicode="&#x118;" horiz-adv-x="1300" 
d="M241 0h887v230h-625v482h601v230h-601v478h625v230h-887v-1650zM1080 -559c54 0 105.667 12.8301 155 38.4971s89.333 60.834 120 105.501l-105 78c-42 -52.667 -91.333 -79 -148 -79c-40.667 0 -71.167 11.333 -91.5 34s-30.5 50.334 -30.5 83.001
c0 39.333 13.167 85.833 39.5 139.5s62.5 106.834 108.5 159.501h-123c-56.667 -62.667 -100.167 -122.5 -130.5 -179.5s-45.5 -108.5 -45.5 -154.5c0 -62 23.667 -115 71 -159s107.333 -66 180 -66z" />
    <glyph glyph-name="eogonek" unicode="&#x119;" horiz-adv-x="1308" 
d="M681 -32c106 0 202.167 22.832 288.5 68.499s153.833 109.167 202.5 190.5l-181 93c-78 -101.333 -177 -152 -297 -152c-98.667 0 -178.834 29 -240.501 87s-92.5 133.333 -92.5 226h834c3.33301 22 5 38.667 5 50c0 104.667 -22.5 196.334 -67.5 275.001
s-107.667 140 -188 184s-173.833 66 -280.5 66c-103.333 0 -197.166 -24.333 -281.499 -73s-151.333 -114.167 -201 -196.5s-74.5 -174.5 -74.5 -276.5c0 -102.667 25 -195 75 -277s118.333 -146.667 205 -194s184.667 -71 294 -71zM372 636.999
c10 70 41.3311 125.667 93.998 167s118.334 62 197.001 62c75.333 0 139.333 -20.833 192 -62.5s85.334 -97.167 98.001 -166.5h-581zM697.998 -553.001c54 0 105.667 12.8301 155 38.4971s89.333 60.834 120 105.501l-105 78c-42 -52.667 -91.333 -79 -148 -79
c-40.667 0 -71.167 11.333 -91.5 34s-30.5 50.334 -30.5 83.001c0 39.333 13.167 85.833 39.5 139.5s62.5 106.834 108.5 159.501h-123c-56.667 -62.667 -100.167 -122.5 -130.5 -179.5s-45.5 -108.5 -45.5 -154.5c0 -62 23.667 -115 71 -159s107.333 -66 180 -66z" />
    <glyph glyph-name="Ecaron" unicode="&#x11a;" horiz-adv-x="1300" 
d="M241 0h887v230h-625v482h601v230h-601v478h625v230h-887v-1650zM686 1811l404 297l-98 132l-306 -224l-306 224l-97 -132z" />
    <glyph glyph-name="ecaron" unicode="&#x11b;" horiz-adv-x="1308" 
d="M681 -32c106 0 202.167 22.832 288.5 68.499s153.833 109.167 202.5 190.5l-181 93c-78 -101.333 -177 -152 -297 -152c-98.667 0 -178.834 29 -240.501 87s-92.5 133.333 -92.5 226h834c3.33301 22 5 38.667 5 50c0 104.667 -22.5 196.334 -67.5 275.001
s-107.667 140 -188 184s-173.833 66 -280.5 66c-103.333 0 -197.166 -24.333 -281.499 -73s-151.333 -114.167 -201 -196.5s-74.5 -174.5 -74.5 -276.5c0 -102.667 25 -195 75 -277s118.333 -146.667 205 -194s184.667 -71 294 -71zM372 636.999
c10 70 41.3311 125.667 93.998 167s118.334 62 197.001 62c75.333 0 139.333 -20.833 192 -62.5s85.334 -97.167 98.001 -166.5h-581zM662.998 1204l404 297l-98 132l-306 -224l-306 224l-97 -132z" />
    <glyph glyph-name="Gbreve" unicode="&#x11e;" horiz-adv-x="1818" 
d="M939 -32c95.333 0 188 15.834 278 47.501s171.167 77.334 243.5 137.001s129.833 132 172.5 217s64 180.5 64 286.5v213h-763v-205h496v-36c0 -82.667 -22.833 -155.5 -68.5 -218.5s-105.167 -112.167 -178.5 -147.5s-151 -53 -233 -53
c-100.667 0 -191.667 26.833 -273 80.5s-145.833 127.5 -193.5 221.5s-71.5 202 -71.5 324c0 112.667 21.5 215.167 64.5 307.5s105.333 166 187 221s180.834 82.5 297.501 82.5c90.667 0 179.334 -17.167 266.001 -51.5s160 -81.5 220 -141.5l126 202
c-78.667 71.333 -171.834 126.666 -279.501 165.999s-219.167 59 -334.5 59c-128 0 -243.167 -22.833 -345.5 -68.5s-189.5 -108.5 -261.5 -188.5s-127 -171.333 -165 -274s-57 -211 -57 -325c0 -120 20.667 -232 62 -336s98.666 -194.833 171.999 -272.5
s159 -138.334 257 -182.001s204 -65.5 318 -65.5zM962 1936c117.333 0 215.666 31.666 294.999 94.999s126.333 145.666 141 247l-180 44c-8.66699 -60.667 -34.667 -113.5 -78 -158.5s-102.666 -67.5 -177.999 -67.5c-76 0 -135.333 22.5 -178 67.5
s-68.667 97.833 -78 158.5l-180 -44c15.333 -101.333 62.5 -183.666 141.5 -246.999s177.167 -95 294.5 -95z" />
    <glyph glyph-name="gbreve" unicode="&#x11f;" 
d="M671 -550c191.333 0 336.333 47.6709 435 143.004s148 221.666 148 378.999v1052h-249v-157c-40.667 59.333 -93.834 105.666 -159.501 138.999s-138.167 50 -217.5 50c-98.667 0 -186.5 -23.667 -263.5 -71s-137.667 -112 -182 -194s-66.5 -175 -66.5 -279
c0 -106 22.667 -199.833 68 -281.5s106.333 -145.834 183 -192.501s161.667 -70 255 -70c78.667 0 151.167 17.333 217.5 52s121.5 82.667 165.5 144v-182c0 -96.667 -31.333 -173.834 -94 -231.501s-142.667 -86.5 -240 -86.5c-74 0 -141.667 16.5 -203 49.5
s-106.666 77.167 -135.999 132.5l-204 -98c43.333 -97.333 111 -171.333 203 -222s205.333 -76 340 -76zM693 181.004c-61.333 0 -115.834 14.167 -163.501 42.5s-85 67.5 -112 117.5s-40.5 106.667 -40.5 170c0 64.667 13.667 121.834 41 171.501s65 88.834 113 117.501
s102.667 43 164 43s115.833 -14.333 163.5 -43s85.334 -67.834 113.001 -117.501s41.5 -106.834 41.5 -171.501c0 -64 -13.667 -120.833 -41 -170.5s-65 -88.667 -113 -117s-103.333 -42.5 -166 -42.5zM706.999 1308c117.333 0 215.666 31.667 294.999 95
s126.333 145.666 141 246.999l-180 44c-8.66699 -60.667 -34.667 -113.5 -78 -158.5s-102.666 -67.5 -177.999 -67.5c-76 0 -135.333 22.5 -178 67.5s-68.667 97.833 -78 158.5l-180 -44c15.333 -101.333 62.5 -183.666 141.5 -246.999s177.167 -95 294.5 -95z" />
    <glyph glyph-name="Gdotaccent" unicode="&#x120;" horiz-adv-x="1818" 
d="M939 -32c95.333 0 188 15.834 278 47.501s171.167 77.334 243.5 137.001s129.833 132 172.5 217s64 180.5 64 286.5v213h-763v-205h496v-36c0 -82.667 -22.833 -155.5 -68.5 -218.5s-105.167 -112.167 -178.5 -147.5s-151 -53 -233 -53
c-100.667 0 -191.667 26.833 -273 80.5s-145.833 127.5 -193.5 221.5s-71.5 202 -71.5 324c0 112.667 21.5 215.167 64.5 307.5s105.333 166 187 221s180.834 82.5 297.501 82.5c90.667 0 179.334 -17.167 266.001 -51.5s160 -81.5 220 -141.5l126 202
c-78.667 71.333 -171.834 126.666 -279.501 165.999s-219.167 59 -334.5 59c-128 0 -243.167 -22.833 -345.5 -68.5s-189.5 -108.5 -261.5 -188.5s-127 -171.333 -165 -274s-57 -211 -57 -325c0 -120 20.667 -232 62 -336s98.666 -194.833 171.999 -272.5
s159 -138.334 257 -182.001s204 -65.5 318 -65.5zM962 1969c42 0 77.667 14.832 107 44.499s44 65.5 44 107.5c0 41.333 -14.667 76.666 -44 106c-29.333 29.333 -65 44 -107 44s-77.667 -14.667 -107 -44s-44 -64.666 -44 -105.999c0 -42 14.667 -77.833 44 -107.5
s65 -44.5 107 -44.5z" />
    <glyph glyph-name="gdotaccent" unicode="&#x121;" 
d="M671 -550c191.333 0 336.333 47.6709 435 143.004s148 221.666 148 378.999v1052h-249v-157c-40.667 59.333 -93.834 105.666 -159.501 138.999s-138.167 50 -217.5 50c-98.667 0 -186.5 -23.667 -263.5 -71s-137.667 -112 -182 -194s-66.5 -175 -66.5 -279
c0 -106 22.667 -199.833 68 -281.5s106.333 -145.834 183 -192.501s161.667 -70 255 -70c78.667 0 151.167 17.333 217.5 52s121.5 82.667 165.5 144v-182c0 -96.667 -31.333 -173.834 -94 -231.501s-142.667 -86.5 -240 -86.5c-74 0 -141.667 16.5 -203 49.5
s-106.666 77.167 -135.999 132.5l-204 -98c43.333 -97.333 111 -171.333 203 -222s205.333 -76 340 -76zM693 181.004c-61.333 0 -115.834 14.167 -163.501 42.5s-85 67.5 -112 117.5s-40.5 106.667 -40.5 170c0 64.667 13.667 121.834 41 171.501s65 88.834 113 117.501
s102.667 43 164 43s115.833 -14.333 163.5 -43s85.334 -67.834 113.001 -117.501s41.5 -106.834 41.5 -171.501c0 -64 -13.667 -120.833 -41 -170.5s-65 -88.667 -113 -117s-103.333 -42.5 -166 -42.5zM707.999 1341c42 0 77.667 14.833 107 44.5s44 65.5 44 107.5
c0 41.333 -14.667 76.666 -44 105.999s-65 44 -107 44s-77.667 -14.667 -107 -44s-44 -64.666 -44 -105.999c0 -42 14.667 -77.833 44 -107.5s65 -44.5 107 -44.5z" />
    <glyph glyph-name="uni0122" unicode="&#x122;" horiz-adv-x="1818" 
d="M939 -32c95.333 0 188 15.834 278 47.501s171.167 77.334 243.5 137.001s129.833 132 172.5 217s64 180.5 64 286.5v213h-763v-205h496v-36c0 -82.667 -22.833 -155.5 -68.5 -218.5s-105.167 -112.167 -178.5 -147.5s-151 -53 -233 -53
c-100.667 0 -191.667 26.833 -273 80.5s-145.833 127.5 -193.5 221.5s-71.5 202 -71.5 324c0 112.667 21.5 215.167 64.5 307.5s105.333 166 187 221s180.834 82.5 297.501 82.5c90.667 0 179.334 -17.167 266.001 -51.5s160 -81.5 220 -141.5l126 202
c-78.667 71.333 -171.834 126.666 -279.501 165.999s-219.167 59 -334.5 59c-128 0 -243.167 -22.833 -345.5 -68.5s-189.5 -108.5 -261.5 -188.5s-127 -171.333 -165 -274s-57 -211 -57 -325c0 -120 20.667 -232 62 -336s98.666 -194.833 171.999 -272.5
s159 -138.334 257 -182.001s204 -65.5 318 -65.5zM945 -501.999c43.333 34.667 78.1641 77 104.497 127s39.5 97.667 39.5 143c0 37.333 -8.66699 65.333 -26 84s-40.666 28 -69.999 28c-28.667 0 -52 -9 -70 -27s-27 -40.667 -27 -68c0 -23.333 7.33301 -43.5 22 -60.5
s33.334 -27.5 56.001 -31.5c-2 -30.667 -9.66699 -61.167 -23 -91.5s-27.666 -54.5 -42.999 -72.5z" />
    <glyph glyph-name="gcommaaccent" unicode="&#x123;" 
d="M671 -550c191.333 0 336.333 47.6709 435 143.004s148 221.666 148 378.999v1052h-249v-157c-40.667 59.333 -93.834 105.666 -159.501 138.999s-138.167 50 -217.5 50c-98.667 0 -186.5 -23.667 -263.5 -71s-137.667 -112 -182 -194s-66.5 -175 -66.5 -279
c0 -106 22.667 -199.833 68 -281.5s106.333 -145.834 183 -192.501s161.667 -70 255 -70c78.667 0 151.167 17.333 217.5 52s121.5 82.667 165.5 144v-182c0 -96.667 -31.333 -173.834 -94 -231.501s-142.667 -86.5 -240 -86.5c-74 0 -141.667 16.5 -203 49.5
s-106.666 77.167 -135.999 132.5l-204 -98c43.333 -97.333 111 -171.333 203 -222s205.333 -76 340 -76zM693 181.004c-61.333 0 -115.834 14.167 -163.501 42.5s-85 67.5 -112 117.5s-40.5 106.667 -40.5 170c0 64.667 13.667 121.834 41 171.501s65 88.834 113 117.501
s102.667 43 164 43s115.833 -14.333 163.5 -43s85.334 -67.834 113.001 -117.501s41.5 -106.834 41.5 -171.501c0 -64 -13.667 -120.833 -41 -170.5s-65 -88.667 -113 -117s-103.333 -42.5 -166 -42.5zM717.999 1343c36.667 0 66.5 8.50195 89.5 25.502
s34.5 38.833 34.5 65.5c0 21.333 -8 40.166 -24 56.499s-37.667 26.5 -65 30.5c3.33301 27.333 12.833 55 28.5 83s31.834 49.667 48.501 65l-63 30c-50.667 -33.333 -91.334 -73 -122.001 -119s-46 -90 -46 -132c0 -32.667 10.667 -58.334 32 -77.001s50.333 -28 87 -28z
" />
    <glyph glyph-name="Hbar" unicode="&#x126;" horiz-adv-x="1725" 
d="M241 0h262v669h719v-669h261v1067h140v180h-140v403h-261v-403h-719v403h-262v-403h-132v-180h132v-1067zM503 850v217h719v-217h-719z" />
    <glyph glyph-name="hbar" unicode="&#x127;" horiz-adv-x="1353" 
d="M193 0h249.001v628c0 64 22.167 118.667 66.5 164s105.166 68 182.499 68c74.667 0 133.167 -23.167 175.5 -69.5s63.5 -112.166 63.5 -197.499v-593h249v645c0 125.333 -36 225.166 -108 299.499s-167 111.5 -285 111.5c-76 0 -143.5 -14.5 -202.5 -43.5
s-106.167 -66.167 -141.5 -111.5v373h222v155h-222v292h-249v-292h-140v-155h140v-1274z" />
    <glyph glyph-name="Imacron" unicode="&#x12a;" horiz-adv-x="744" 
d="M241 0h262v1650h-262v-1650zM-36 1928h816v171h-816v-171z" />
    <glyph glyph-name="imacron" unicode="&#x12b;" horiz-adv-x="635" 
d="M193 0h249v1024h-249v-1024zM-90 1303h816v171h-816v-171z" />
    <glyph glyph-name="Iogonek" unicode="&#x12e;" horiz-adv-x="744" 
d="M241 0h262v1650h-262v-1650zM455 -559c54 0 105.667 12.8301 155 38.4971s89.333 60.834 120 105.501l-105 78c-42 -52.667 -91.333 -79 -148 -79c-40.667 0 -71.167 11.333 -91.5 34s-30.5 50.334 -30.5 83.001c0 39.333 13.167 85.833 39.5 139.5
s62.5 106.834 108.5 159.501h-123c-56.667 -62.667 -100.167 -122.5 -130.5 -179.5s-45.5 -108.5 -45.5 -154.5c0 -62 23.667 -115 71 -159s107.333 -66 180 -66z" />
    <glyph glyph-name="iogonek" unicode="&#x12f;" horiz-adv-x="635" 
d="M193 0h249v1024h-249v-1024zM318 1327c42 0 77.667 14.833 107 44.5s44 65.5 44 107.5c0 41.333 -14.667 76.666 -44 105.999s-65 44 -107 44s-77.667 -14.667 -107 -44s-44 -64.666 -44 -105.999c0 -42 14.667 -77.833 44 -107.5s65 -44.5 107 -44.5zM395 -559
c54 0 105.667 12.8301 155 38.4971s89.333 60.834 120 105.501l-105 78c-42 -52.667 -91.333 -79 -148 -79c-40.667 0 -71.167 11.333 -91.5 34s-30.5 50.334 -30.5 83.001c0 39.333 13.167 85.833 39.5 139.5s62.5 106.834 108.5 159.501h-123
c-56.667 -62.667 -100.167 -122.5 -130.5 -179.5s-45.5 -108.5 -45.5 -154.5c0 -62 23.667 -115 71 -159s107.333 -66 180 -66z" />
    <glyph glyph-name="Idotaccent" unicode="&#x130;" horiz-adv-x="744" 
d="M241 0h262v1650h-262v-1650zM372 1952c42 0 77.667 14.833 107 44.5s44 65.5 44 107.5c0 41.333 -14.667 76.666 -44 106c-29.333 29.333 -65 44 -107 44s-77.667 -14.667 -107 -44s-44 -64.666 -44 -106c0 -42 14.667 -77.833 44 -107.5s65 -44.5 107 -44.5z" />
    <glyph glyph-name="dotlessi" unicode="&#x131;" horiz-adv-x="635" 
d="M193 0h249v1024h-249v-1024z" />
    <glyph glyph-name="uni0136" unicode="&#x136;" horiz-adv-x="1596" 
d="M241 0h262v716l707 -716h363l-833 848l739 802h-322l-654 -713v713h-262v-1650zM755 -499c43.333 34.667 78.1641 77 104.497 127s39.5 97.667 39.5 143c0 37.333 -8.66699 65.333 -26 84s-40.666 28 -69.999 28c-28.667 0 -52 -9 -70 -27s-27 -40.667 -27 -68
c0 -23.333 7.33301 -43.5 22 -60.5s33.334 -27.5 56.001 -31.5c-2 -30.667 -9.66699 -61.167 -23 -91.5s-27.666 -54.5 -42.999 -72.5z" />
    <glyph glyph-name="kcommaaccent" unicode="&#x137;" horiz-adv-x="1226" 
d="M193 0h249v434l416 -434h320l-512 529l489 495h-323l-390 -391v1087h-249v-1720zM566 -499c43.333 34.667 78.1641 77 104.497 127s39.5 97.667 39.5 143c0 37.333 -8.66699 65.333 -26 84s-40.666 28 -69.999 28c-28.667 0 -52 -9 -70 -27s-27 -40.667 -27 -68
c0 -23.333 7.33301 -43.5 22 -60.5s33.334 -27.5 56.001 -31.5c-2 -30.667 -9.66699 -61.167 -23 -91.5s-27.666 -54.5 -42.999 -72.5z" />
    <glyph glyph-name="Lacute" unicode="&#x139;" horiz-adv-x="1198" 
d="M241 0h892v230h-630v1420h-262v-1650zM656 1751l309 378l-174 129l-245 -420z" />
    <glyph glyph-name="lacute" unicode="&#x13a;" horiz-adv-x="635" 
d="M193 0h249v1720h-249v-1720zM282 1821l309 378l-174 129l-245 -420z" />
    <glyph glyph-name="uni013B" unicode="&#x13b;" horiz-adv-x="1198" 
d="M241 0h892v230h-630v1420h-262v-1650zM629 -499c43.333 34.667 78.1641 77 104.497 127s39.5 97.667 39.5 143c0 37.333 -8.66699 65.333 -26 84s-40.666 28 -69.999 28c-28.667 0 -52 -9 -70 -27s-27 -40.667 -27 -68c0 -23.333 7.33301 -43.5 22 -60.5
s33.334 -27.5 56.001 -31.5c-2 -30.667 -9.66699 -61.167 -23 -91.5s-27.666 -54.5 -42.999 -72.5z" />
    <glyph glyph-name="lcommaaccent" unicode="&#x13c;" horiz-adv-x="635" 
d="M193 0h249v1720h-249v-1720zM270 -499c43.333 34.667 78.1641 77 104.497 127s39.5 97.667 39.5 143c0 37.333 -8.66699 65.333 -26 84s-40.666 28 -69.999 28c-28.667 0 -52 -9 -70 -27s-27 -40.667 -27 -68c0 -23.333 7.33301 -43.5 22 -60.5
s33.334 -27.5 56.001 -31.5c-2 -30.667 -9.66699 -61.167 -23 -91.5s-27.666 -54.5 -42.999 -72.5z" />
    <glyph glyph-name="Lcaron" unicode="&#x13d;" horiz-adv-x="1198" 
d="M241 0h892v230h-630v1420h-262v-1650zM691 1811l404 297l-98 132l-306 -224l-306 224l-97 -132z" />
    <glyph glyph-name="lcaron" unicode="&#x13e;" horiz-adv-x="635" 
d="M193 0h249v1720h-249v-1720zM317 1881l404 297l-98 132l-306 -224l-306 224l-97 -132z" />
    <glyph glyph-name="Lslash" unicode="&#x141;" horiz-adv-x="1236" 
d="M280 0h892v230h-629v639l211 167v212l-211 -166v568h-263v-774l-157 -123v-214l157 123v-662z" />
    <glyph glyph-name="lslash" unicode="&#x142;" horiz-adv-x="714" 
d="M262 0h249v909l166 130v218l-166 -130v593h-249v-789l-166 -130v-218l166 130v-713z" />
    <glyph glyph-name="Nacute" unicode="&#x143;" horiz-adv-x="1780" 
d="M241 0h262v1210l774 -1210h262v1650h-262v-1211l-774 1211h-262v-1650zM854 1751l309 378l-174 129l-245 -420z" />
    <glyph glyph-name="nacute" unicode="&#x144;" horiz-adv-x="1353" 
d="M193 0h249.001v628c0 64 22.167 118.667 66.5 164s105.166 68 182.499 68c74.667 0 133.167 -23.167 175.5 -69.5s63.5 -112.166 63.5 -197.499v-593h249v645c0 125.333 -36 225.166 -108 299.499s-167 111.5 -285 111.5c-76 0 -143.5 -14.5 -202.5 -43.5
s-106.167 -66.167 -141.5 -111.5v123h-249v-1024zM664.001 1157l309 378l-174 129l-245 -420z" />
    <glyph glyph-name="Ncommaaccent" unicode="&#x145;" horiz-adv-x="1780" 
d="M241 0h262v1210l774 -1210h262v1650h-262v-1211l-774 1211h-262v-1650zM842 -499c43.333 34.667 78.1641 77 104.497 127s39.5 97.667 39.5 143c0 37.333 -8.66699 65.333 -26 84s-40.666 28 -69.999 28c-28.667 0 -52 -9 -70 -27s-27 -40.667 -27 -68
c0 -23.333 7.33301 -43.5 22 -60.5s33.334 -27.5 56.001 -31.5c-2 -30.667 -9.66699 -61.167 -23 -91.5s-27.666 -54.5 -42.999 -72.5z" />
    <glyph glyph-name="ncommaaccent" unicode="&#x146;" horiz-adv-x="1353" 
d="M193 0h249.001v628c0 64 22.167 118.667 66.5 164s105.166 68 182.499 68c74.667 0 133.167 -23.167 175.5 -69.5s63.5 -112.166 63.5 -197.499v-593h249v645c0 125.333 -36 225.166 -108 299.499s-167 111.5 -285 111.5c-76 0 -143.5 -14.5 -202.5 -43.5
s-106.167 -66.167 -141.5 -111.5v123h-249v-1024zM629.001 -499c43.333 34.667 78.1641 77 104.497 127s39.5 97.667 39.5 143c0 37.333 -8.66699 65.333 -26 84s-40.666 28 -69.999 28c-28.667 0 -52 -9 -70 -27s-27 -40.667 -27 -68c0 -23.333 7.33301 -43.5 22 -60.5
s33.334 -27.5 56.001 -31.5c-2 -30.667 -9.66699 -61.167 -23 -91.5s-27.666 -54.5 -42.999 -72.5z" />
    <glyph glyph-name="Ncaron" unicode="&#x147;" horiz-adv-x="1780" 
d="M241 0h262v1210l774 -1210h262v1650h-262v-1211l-774 1211h-262v-1650zM890 1811l404 297l-98 132l-306 -224l-306 224l-97 -132z" />
    <glyph glyph-name="ncaron" unicode="&#x148;" horiz-adv-x="1353" 
d="M193 0h249.001v628c0 64 22.167 118.667 66.5 164s105.166 68 182.499 68c74.667 0 133.167 -23.167 175.5 -69.5s63.5 -112.166 63.5 -197.499v-593h249v645c0 125.333 -36 225.166 -108 299.499s-167 111.5 -285 111.5c-76 0 -143.5 -14.5 -202.5 -43.5
s-106.167 -66.167 -141.5 -111.5v123h-249v-1024zM700.001 1217l404 297l-98 132l-306 -224l-306 224l-97 -132z" />
    <glyph glyph-name="Eng" unicode="&#x14a;" horiz-adv-x="1762" 
d="M1046 -551c154 0 274.666 43.5 361.999 130.5s131 208.833 131 365.5v1705h-262v-1211l-774 1211h-262v-1650h262v1210l774 -1210v-15c0 -88.667 -23.333 -158.5 -70 -209.5s-113 -76.5 -199 -76.5c-43.333 0 -86.666 9.66699 -129.999 29s-87 50.333 -131 93l-91 -217
c106 -103.333 236 -155 390 -155z" />
    <glyph glyph-name="eng" unicode="&#x14b;" horiz-adv-x="1346" 
d="M852 -550c104 0 184.502 31.667 241.502 95s85.5 151 85.5 263v839c0 78 -17 147.833 -51 209.5s-81 110.334 -141 146.001s-129 53.5 -207 53.5c-68.667 0 -133.334 -14 -194.001 -42s-108.667 -65.667 -144 -113v123h-249v-1024h249v628
c0 71.333 24.167 127.833 72.5 169.5s106.166 62.5 173.499 62.5c76.667 0 136.167 -26 178.5 -78s63.5 -115.667 63.5 -191v-743c0 -116.667 -42.333 -175 -127 -175c-38 0 -72.333 11.667 -103 35l-76 -201c25.333 -16.667 59 -30.334 101 -41.001s84.333 -16 127 -16z
" />
    <glyph glyph-name="Omacron" unicode="&#x14c;" horiz-adv-x="1919" 
d="M959 -32c115.333 0 223.333 22 324 66s189 105.167 265 183.5s135.5 169.333 178.5 273s64.5 214.834 64.5 333.501c0 119.333 -21.5 230.666 -64.5 333.999s-102.5 194.166 -178.5 272.499s-164.333 139.5 -265 183.5s-208.667 66 -324 66s-223.333 -22 -324 -66
s-189 -105.167 -265 -183.5s-135.5 -169.166 -178.5 -272.499s-64.5 -214.666 -64.5 -333.999c0 -118.667 21.5 -229.834 64.5 -333.501s102.5 -194.667 178.5 -273s164.333 -139.5 265 -183.5s208.667 -66 324 -66zM959 220c-104.667 0 -198.334 26.333 -281.001 79
s-148 124.5 -196 215.5s-72 194.167 -72 309.5s24 218.5 72 309.5s113.333 162.833 196 215.5s176.334 79 281.001 79c105.333 0 199.333 -26.333 282 -79s148 -124.5 196 -215.5s72 -194.167 72 -309.5s-24 -218.5 -72 -309.5s-113.333 -162.833 -196 -215.5
s-176.667 -79 -282 -79zM551 1945h816v171h-816v-171z" />
    <glyph glyph-name="omacron" unicode="&#x14d;" horiz-adv-x="1392" 
d="M696 -32c110.667 0 210.334 23 299.001 69s159 110 211 192s78 176.333 78 283c0 107.333 -26 201.833 -78 283.5s-122.333 145.5 -211 191.5s-188.334 69 -299.001 69s-210.5 -23 -299.5 -69s-159.5 -109.833 -211.5 -191.5s-78 -176.167 -78 -283.5
c0 -106.667 26 -201 78 -283s122.5 -146 211.5 -192s188.833 -69 299.5 -69zM696 182c-62 0 -117.833 14.167 -167.5 42.5s-89 67.333 -118 117s-43.5 106.5 -43.5 170.5c0 64.667 14.5 121.667 43.5 171s68.333 88.166 118 116.499s105.5 42.5 167.5 42.5
c62.667 0 118.834 -14.167 168.501 -42.5s88.834 -67.166 117.501 -116.499s43 -106.333 43 -171c0 -64 -14.333 -120.833 -43 -170.5s-67.834 -88.667 -117.501 -117s-105.834 -42.5 -168.501 -42.5zM288 1334h816v171h-816v-171z" />
    <glyph glyph-name="Ohungarumlaut" unicode="&#x150;" horiz-adv-x="1919" 
d="M959 -32c115.333 0 223.333 22 324 66s189 105.167 265 183.5s135.5 169.333 178.5 273s64.5 214.834 64.5 333.501c0 119.333 -21.5 230.666 -64.5 333.999s-102.5 194.166 -178.5 272.499s-164.333 139.5 -265 183.5s-208.667 66 -324 66s-223.333 -22 -324 -66
s-189 -105.167 -265 -183.5s-135.5 -169.166 -178.5 -272.499s-64.5 -214.666 -64.5 -333.999c0 -118.667 21.5 -229.834 64.5 -333.501s102.5 -194.667 178.5 -273s164.333 -139.5 265 -183.5s208.667 -66 324 -66zM959 220c-104.667 0 -198.334 26.333 -281.001 79
s-148 124.5 -196 215.5s-72 194.167 -72 309.5s24 218.5 72 309.5s113.333 162.833 196 215.5s176.334 79 281.001 79c105.333 0 199.333 -26.333 282 -79s148 -124.5 196 -215.5s72 -194.167 72 -309.5s-24 -218.5 -72 -309.5s-113.333 -162.833 -196 -215.5
s-176.667 -79 -282 -79zM1134 1921l352 231l-158 170l-292 -287zM685 1921l350 231l-156 170l-293 -287z" />
    <glyph glyph-name="ohungarumlaut" unicode="&#x151;" horiz-adv-x="1392" 
d="M696 -32c110.667 0 210.334 23 299.001 69s159 110 211 192s78 176.333 78 283c0 107.333 -26 201.833 -78 283.5s-122.333 145.5 -211 191.5s-188.334 69 -299.001 69s-210.5 -23 -299.5 -69s-159.5 -109.833 -211.5 -191.5s-78 -176.167 -78 -283.5
c0 -106.667 26 -201 78 -283s122.5 -146 211.5 -192s188.833 -69 299.5 -69zM696 182c-62 0 -117.833 14.167 -167.5 42.5s-89 67.333 -118 117s-43.5 106.5 -43.5 170.5c0 64.667 14.5 121.667 43.5 171s68.333 88.166 118 116.499s105.5 42.5 167.5 42.5
c62.667 0 118.834 -14.167 168.501 -42.5s88.834 -67.166 117.501 -116.499s43 -106.333 43 -171c0 -64 -14.333 -120.833 -43 -170.5s-67.834 -88.667 -117.501 -117s-105.834 -42.5 -168.501 -42.5zM870 1310l352 231l-158 170l-292 -287zM421 1310l350 231l-156 170
l-293 -287z" />
    <glyph glyph-name="OE" unicode="&#x152;" horiz-adv-x="2081" 
d="M955 0l954.001 0.000976562v230h-625v482h601v230h-601v478h625v230h-842c-196.667 0 -365.334 -35.167 -506.001 -105.5s-248.334 -167 -323.001 -290s-112 -263.5 -112 -421.5c0 -120 21 -230.833 63 -332.5s100.667 -189.834 176 -264.501s163.333 -132.667 264 -174
s209.334 -62 326.001 -62zM1021 234.001c-123.333 0 -230.998 25.334 -322.998 76.001s-163.333 120.5 -214 209.5s-76 191.167 -76 306.5c0 118 26.167 221.167 78.5 309.5s124.666 157.166 216.999 206.499s198.166 74 317.499 74v-1182z" />
    <glyph glyph-name="oe" unicode="&#x153;" horiz-adv-x="2218" 
d="M687 -32c100.667 0 190 21.1709 268 63.5039s137.333 100.833 178 175.5c48 -76 110.667 -134.833 188 -176.5s165 -62.5 263 -62.5c109.333 0 207 22.5 293 67.5s154.333 108.833 205 191.5l-181 93c-78 -101.333 -177 -152 -297 -152
c-99.333 0 -179.5 28.833 -240.5 86.5s-91.5 133.167 -91.5 226.5h835c1.33301 15.333 2.16602 25.166 2.5 29.499c0.333008 4.33301 0.5 9.16602 0.5 14.499c-0.666992 102 -24.334 193 -71 273c-46.667 80 -110.334 143 -191.001 189s-172.334 69 -275.001 69
c-92.667 0 -177.167 -21.667 -253.5 -65s-138.5 -102 -186.5 -176c-41.333 76 -101.166 135.167 -179.499 177.5s-167.166 63.5 -266.499 63.5c-110.667 0 -209.5 -23.167 -296.5 -69.5s-155.5 -110.333 -205.5 -192s-75 -175.834 -75 -282.501s25 -200.834 75 -282.501
s118.5 -145.667 205.5 -192s185.833 -69.5 296.5 -69.5zM1278 620.004c6.66699 76.667 37.498 139.833 92.498 189.5s122.833 74.5 203.5 74.5c78.667 0 144.834 -24.5 198.501 -73.5s84.834 -112.5 93.501 -190.5h-588zM697.998 181.003c-63.333 0 -120 14.333 -170 43
s-89.333 68 -118 118s-43 106.667 -43 170c0 64 14.333 120.833 43 170.5s68 88.834 118 117.501s106.667 43 170 43c64 0 120.833 -14.333 170.5 -43s88.834 -67.834 117.501 -117.501s43 -106.5 43 -170.5c0 -63.333 -14.333 -120 -43 -170s-67.834 -89.333 -117.501 -118
s-106.5 -43 -170.5 -43z" />
    <glyph glyph-name="Racute" unicode="&#x154;" horiz-adv-x="1469" 
d="M241 0h262.001v648h117l494 -648h332l-543 677c123.333 25.333 220.166 81 290.499 167s105.5 192.333 105.5 319c0 153.333 -49 272.833 -147 358.5s-230.333 128.5 -397 128.5h-514v-1650zM503.001 868l-0.000976562 572h175c110 0 195.5 -25 256.5 -75
s91.5 -119.667 91.5 -209c0 -90 -30.667 -160.5 -92 -211.5s-146.666 -76.5 -255.999 -76.5h-175zM699 1751l309 378l-174 129l-245 -420z" />
    <glyph glyph-name="racute" unicode="&#x155;" horiz-adv-x="964" 
d="M193 0h248.999v610c0 40 11.833 77.5 35.5 112.5s54.5 63.333 92.5 85s78.333 32.5 121 32.5c25.333 0 52.333 -4 81 -12s54 -18.667 76 -32l103 211c-25.333 14.667 -55.833 26.5 -91.5 35.5s-70.5 13.5 -104.5 13.5c-135.333 0 -239.666 -60.333 -312.999 -181v149
h-249v-1024zM501.999 1157l309 378l-174 129l-245 -420z" />
    <glyph glyph-name="Rcommaaccent" unicode="&#x156;" horiz-adv-x="1469" 
d="M241 0h262.001v648h117l494 -648h332l-543 677c123.333 25.333 220.166 81 290.499 167s105.5 192.333 105.5 319c0 153.333 -49 272.833 -147 358.5s-230.333 128.5 -397 128.5h-514v-1650zM503.001 868l-0.000976562 572h175c110 0 195.5 -25 256.5 -75
s91.5 -119.667 91.5 -209c0 -90 -30.667 -160.5 -92 -211.5s-146.666 -76.5 -255.999 -76.5h-175zM687 -499c43.333 34.667 78.1641 77 104.497 127s39.5 97.667 39.5 143c0 37.333 -8.66699 65.333 -26 84s-40.666 28 -69.999 28c-28.667 0 -52 -9 -70 -27
s-27 -40.667 -27 -68c0 -23.333 7.33301 -43.5 22 -60.5s33.334 -27.5 56.001 -31.5c-2 -30.667 -9.66699 -61.167 -23 -91.5s-27.666 -54.5 -42.999 -72.5z" />
    <glyph glyph-name="rcommaaccent" unicode="&#x157;" horiz-adv-x="964" 
d="M193 0h248.999v610c0 40 11.833 77.5 35.5 112.5s54.5 63.333 92.5 85s78.333 32.5 121 32.5c25.333 0 52.333 -4 81 -12s54 -18.667 76 -32l103 211c-25.333 14.667 -55.833 26.5 -91.5 35.5s-70.5 13.5 -104.5 13.5c-135.333 0 -239.666 -60.333 -312.999 -181v149
h-249v-1024zM452.999 -499c43.333 34.667 78.1641 77 104.497 127s39.5 97.667 39.5 143c0 37.333 -8.66699 65.333 -26 84s-40.666 28 -69.999 28c-28.667 0 -52 -9 -70 -27s-27 -40.667 -27 -68c0 -23.333 7.33301 -43.5 22 -60.5s33.334 -27.5 56.001 -31.5
c-2 -30.667 -9.66699 -61.167 -23 -91.5s-27.666 -54.5 -42.999 -72.5z" />
    <glyph glyph-name="Rcaron" unicode="&#x158;" horiz-adv-x="1469" 
d="M241 0h262.001v648h117l494 -648h332l-543 677c123.333 25.333 220.166 81 290.499 167s105.5 192.333 105.5 319c0 153.333 -49 272.833 -147 358.5s-230.333 128.5 -397 128.5h-514v-1650zM503.001 868l-0.000976562 572h175c110 0 195.5 -25 256.5 -75
s91.5 -119.667 91.5 -209c0 -90 -30.667 -160.5 -92 -211.5s-146.666 -76.5 -255.999 -76.5h-175zM735 1811l404 297l-98 132l-306 -224l-306 224l-97 -132z" />
    <glyph glyph-name="rcaron" unicode="&#x159;" horiz-adv-x="964" 
d="M193 0h248.999v610c0 40 11.833 77.5 35.5 112.5s54.5 63.333 92.5 85s78.333 32.5 121 32.5c25.333 0 52.333 -4 81 -12s54 -18.667 76 -32l103 211c-25.333 14.667 -55.833 26.5 -91.5 35.5s-70.5 13.5 -104.5 13.5c-135.333 0 -239.666 -60.333 -312.999 -181v149
h-249v-1024zM536.999 1217l404 297l-98 132l-306 -224l-306 224l-97 -132z" />
    <glyph glyph-name="Sacute" unicode="&#x15a;" horiz-adv-x="1365" 
d="M664 -32c112.667 0 212.166 19.165 298.499 57.498s154 94 203 167s73.5 161.167 73.5 264.5c0 98 -21.833 177.833 -65.5 239.5s-103.5 113.667 -179.5 156s-162.667 82.833 -260 121.5c-49.333 19.333 -94.833 38.5 -136.5 57.5s-74.834 42.667 -99.501 71
s-37 65.833 -37 112.5c0 60 22.333 112.833 67 158.5s108 68.5 190 68.5c70 0 135 -15.167 195 -45.5s108.667 -65.166 146 -104.499l114 199c-31.333 32.667 -71.166 63.334 -119.499 92.001s-101.666 52 -159.999 70s-118.5 27 -180.5 27c-100.667 0 -189 -22 -265 -66
s-135.167 -101.667 -177.5 -173s-63.5 -148.333 -63.5 -231c0 -76 17.333 -140.5 52 -193.5s78.834 -97.333 132.501 -133s108.834 -65.5 165.501 -89.5c79.333 -32.667 149 -63.5 209 -92.5s106.667 -62.667 140 -101s50 -88.166 50 -149.499
c0 -79.333 -27.333 -139.166 -82 -179.499s-122.334 -60.5 -203.001 -60.5c-76 0 -143.667 14.5 -203 43.5s-110 62.167 -152 99.5s-75.333 68.666 -100 93.999l-138 -212c17.333 -20 42.666 -44.833 75.999 -74.5s74.5 -59.334 123.5 -89.001s105.667 -54.5 170 -74.5
s136.5 -30 216.5 -30zM676.999 1772l309 378l-174 129l-245 -420z" />
    <glyph glyph-name="sacute" unicode="&#x15b;" horiz-adv-x="1012" 
d="M475 -32c130 0 233 30.001 309 90.001s114 144.333 114 253c0 60 -11.667 108 -35 144s-55.833 65.333 -97.5 88s-89.5 44 -143.5 64l-104.5 41.5c-35 14.333 -64 31.333 -87 51s-34.5 43.167 -34.5 70.5c0 33.333 13.5 60.666 40.5 81.999s62.833 32 107.5 32
c76 0 153 -32.333 231 -97l90 157c-54.667 36 -108.834 63.5 -162.501 82.5s-107.167 28.5 -160.5 28.5c-74 0 -139.833 -13 -197.5 -39s-103 -62 -136 -108s-49.5 -98.667 -49.5 -158c0 -52 12.333 -94.833 37 -128.5s56.5 -61.5 95.5 -83.5s79.833 -42 122.5 -60
c50.667 -20 92.667 -37.333 126 -52s58.333 -31 75 -49s25 -43 25 -75c0 -46.667 -15.833 -83 -47.5 -109s-71.167 -39 -118.5 -39c-52 0 -102.167 14.167 -150.5 42.5s-92.166 68.833 -131.499 121.5l-110 -162c85.333 -125.333 216.333 -188 393 -188zM473 1140l309 378
l-174 129l-245 -420z" />
    <glyph glyph-name="Scedilla" unicode="&#x15e;" horiz-adv-x="1365" 
d="M664 -32c112.667 0 212.166 19.165 298.499 57.498s154 94 203 167s73.5 161.167 73.5 264.5c0 98 -21.833 177.833 -65.5 239.5s-103.5 113.667 -179.5 156s-162.667 82.833 -260 121.5c-49.333 19.333 -94.833 38.5 -136.5 57.5s-74.834 42.667 -99.501 71
s-37 65.833 -37 112.5c0 60 22.333 112.833 67 158.5s108 68.5 190 68.5c70 0 135 -15.167 195 -45.5s108.667 -65.166 146 -104.499l114 199c-31.333 32.667 -71.166 63.334 -119.499 92.001s-101.666 52 -159.999 70s-118.5 27 -180.5 27c-100.667 0 -189 -22 -265 -66
s-135.167 -101.667 -177.5 -173s-63.5 -148.333 -63.5 -231c0 -76 17.333 -140.5 52 -193.5s78.834 -97.333 132.501 -133s108.834 -65.5 165.501 -89.5c79.333 -32.667 149 -63.5 209 -92.5s106.667 -62.667 140 -101s50 -88.166 50 -149.499
c0 -79.333 -27.333 -139.166 -82 -179.499s-122.334 -60.5 -203.001 -60.5c-76 0 -143.667 14.5 -203 43.5s-110 62.167 -152 99.5s-75.333 68.666 -100 93.999l-138 -212c17.333 -20 42.666 -44.833 75.999 -74.5s74.5 -59.334 123.5 -89.001s105.667 -54.5 170 -74.5
s136.5 -30 216.5 -30zM632.999 -560.002c76 0 138.166 21.002 186.499 63.002s72.5 95.333 72.5 160c0 43.333 -12.5 80.166 -37.5 110.499s-58.167 50.166 -99.5 59.499c-16.667 7.33301 -34.5 12.5 -53.5 15.5s-40.167 3.5 -63.5 1.5l48 150h-112l-80 -248l14 -11
c12 7.33301 28.833 13.5 50.5 18.5s42.5 7.5 62.5 7.5c39.333 0 71 -9.16699 95 -27.5s36 -42.5 36 -72.5c0 -29.333 -11.167 -53.333 -33.5 -72s-52.166 -28 -89.499 -28c-71.333 0 -129.333 32 -174 96l-101 -74c74 -99.333 167 -149 279 -149z" />
    <glyph glyph-name="scedilla" unicode="&#x15f;" horiz-adv-x="1012" 
d="M475 -32c130 0 233 30.001 309 90.001s114 144.333 114 253c0 60 -11.667 108 -35 144s-55.833 65.333 -97.5 88s-89.5 44 -143.5 64l-104.5 41.5c-35 14.333 -64 31.333 -87 51s-34.5 43.167 -34.5 70.5c0 33.333 13.5 60.666 40.5 81.999s62.833 32 107.5 32
c76 0 153 -32.333 231 -97l90 157c-54.667 36 -108.834 63.5 -162.501 82.5s-107.167 28.5 -160.5 28.5c-74 0 -139.833 -13 -197.5 -39s-103 -62 -136 -108s-49.5 -98.667 -49.5 -158c0 -52 12.333 -94.833 37 -128.5s56.5 -61.5 95.5 -83.5s79.833 -42 122.5 -60
c50.667 -20 92.667 -37.333 126 -52s58.333 -31 75 -49s25 -43 25 -75c0 -46.667 -15.833 -83 -47.5 -109s-71.167 -39 -118.5 -39c-52 0 -102.167 14.167 -150.5 42.5s-92.166 68.833 -131.499 121.5l-110 -162c85.333 -125.333 216.333 -188 393 -188zM500 -559.999
c76 0 138.166 21.002 186.499 63.002s72.5 95.333 72.5 160c0 43.333 -12.5 80.166 -37.5 110.499s-58.167 50.166 -99.5 59.499c-16.667 7.33301 -34.5 12.5 -53.5 15.5s-40.167 3.5 -63.5 1.5l48 150h-112l-80 -248l14 -11c12 7.33301 28.833 13.5 50.5 18.5
s42.5 7.5 62.5 7.5c39.333 0 71 -9.16699 95 -27.5s36 -42.5 36 -72.5c0 -29.333 -11.167 -53.333 -33.5 -72s-52.166 -28 -89.499 -28c-71.333 0 -129.333 32 -174 96l-101 -74c74 -99.333 167 -149 279 -149z" />
    <glyph glyph-name="Scaron" unicode="&#x160;" horiz-adv-x="1365" 
d="M664 -32c112.667 0 212.166 19.165 298.499 57.498s154 94 203 167s73.5 161.167 73.5 264.5c0 98 -21.833 177.833 -65.5 239.5s-103.5 113.667 -179.5 156s-162.667 82.833 -260 121.5c-49.333 19.333 -94.833 38.5 -136.5 57.5s-74.834 42.667 -99.501 71
s-37 65.833 -37 112.5c0 60 22.333 112.833 67 158.5s108 68.5 190 68.5c70 0 135 -15.167 195 -45.5s108.667 -65.166 146 -104.499l114 199c-31.333 32.667 -71.166 63.334 -119.499 92.001s-101.666 52 -159.999 70s-118.5 27 -180.5 27c-100.667 0 -189 -22 -265 -66
s-135.167 -101.667 -177.5 -173s-63.5 -148.333 -63.5 -231c0 -76 17.333 -140.5 52 -193.5s78.834 -97.333 132.501 -133s108.834 -65.5 165.501 -89.5c79.333 -32.667 149 -63.5 209 -92.5s106.667 -62.667 140 -101s50 -88.166 50 -149.499
c0 -79.333 -27.333 -139.166 -82 -179.499s-122.334 -60.5 -203.001 -60.5c-76 0 -143.667 14.5 -203 43.5s-110 62.167 -152 99.5s-75.333 68.666 -100 93.999l-138 -212c17.333 -20 42.666 -44.833 75.999 -74.5s74.5 -59.334 123.5 -89.001s105.667 -54.5 170 -74.5
s136.5 -30 216.5 -30zM712.999 1832l404 297l-98 132l-306 -224l-306 224l-97 -132z" />
    <glyph glyph-name="scaron" unicode="&#x161;" horiz-adv-x="1012" 
d="M475 -32c130 0 233 30.001 309 90.001s114 144.333 114 253c0 60 -11.667 108 -35 144s-55.833 65.333 -97.5 88s-89.5 44 -143.5 64l-104.5 41.5c-35 14.333 -64 31.333 -87 51s-34.5 43.167 -34.5 70.5c0 33.333 13.5 60.666 40.5 81.999s62.833 32 107.5 32
c76 0 153 -32.333 231 -97l90 157c-54.667 36 -108.834 63.5 -162.501 82.5s-107.167 28.5 -160.5 28.5c-74 0 -139.833 -13 -197.5 -39s-103 -62 -136 -108s-49.5 -98.667 -49.5 -158c0 -52 12.333 -94.833 37 -128.5s56.5 -61.5 95.5 -83.5s79.833 -42 122.5 -60
c50.667 -20 92.667 -37.333 126 -52s58.333 -31 75 -49s25 -43 25 -75c0 -46.667 -15.833 -83 -47.5 -109s-71.167 -39 -118.5 -39c-52 0 -102.167 14.167 -150.5 42.5s-92.166 68.833 -131.499 121.5l-110 -162c85.333 -125.333 216.333 -188 393 -188zM508 1200l404 297
l-98 132l-306 -224l-306 224l-97 -132z" />
    <glyph glyph-name="Tcommaaccent" unicode="&#x162;" horiz-adv-x="1289" 
d="M514 0h261v1417h450v233h-1160v-233h449v-1417zM615 -560c76 0 138.166 21.002 186.499 63.002s72.5 95.333 72.5 160c0 43.333 -12.5 80.166 -37.5 110.499s-58.167 50.166 -99.5 59.499c-16.667 7.33301 -34.5 12.5 -53.5 15.5s-40.167 3.5 -63.5 1.5l48 150h-112
l-80 -248l14 -11c12 7.33301 28.833 13.5 50.5 18.5s42.5 7.5 62.5 7.5c39.333 0 71 -9.16699 95 -27.5s36 -42.5 36 -72.5c0 -29.333 -11.167 -53.333 -33.5 -72s-52.166 -28 -89.499 -28c-71.333 0 -129.333 32 -174 96l-101 -74c74 -99.333 167 -149 279 -149z" />
    <glyph glyph-name="tcommaaccent" unicode="&#x163;" horiz-adv-x="820" 
d="M511 -32c80 0 152.333 18.333 217 55l-63 199c-28.667 -21.333 -60.334 -32 -95.001 -32c-69.333 0 -104 46 -104 138v507h236v189h-236v383h-249v-383h-125v-189h125v-524c0 -108 25.833 -192.167 77.5 -252.5s123.834 -90.5 216.501 -90.5zM465 -560
c76 0 138.166 21.002 186.499 63.002s72.5 95.333 72.5 160c0 43.333 -12.5 80.166 -37.5 110.499s-58.167 50.166 -99.5 59.499c-16.667 7.33301 -34.5 12.5 -53.5 15.5s-40.167 3.5 -63.5 1.5l48 150h-112l-80 -248l14 -11c12 7.33301 28.833 13.5 50.5 18.5
s42.5 7.5 62.5 7.5c39.333 0 71 -9.16699 95 -27.5s36 -42.5 36 -72.5c0 -29.333 -11.167 -53.333 -33.5 -72s-52.166 -28 -89.499 -28c-71.333 0 -129.333 32 -174 96l-101 -74c74 -99.333 167 -149 279 -149z" />
    <glyph glyph-name="Tcaron" unicode="&#x164;" horiz-adv-x="1289" 
d="M514 0h261v1417h450v233h-1160v-233h449v-1417zM645 1811l404 297l-98 132l-306 -224l-306 224l-97 -132z" />
    <glyph glyph-name="tcaron" unicode="&#x165;" horiz-adv-x="820" 
d="M511 -32c80 0 152.333 18.333 217 55l-63 199c-28.667 -21.333 -60.334 -32 -95.001 -32c-69.333 0 -104 46 -104 138v507h236v189h-236v383h-249v-383h-125v-189h125v-524c0 -108 25.833 -192.167 77.5 -252.5s123.834 -90.5 216.501 -90.5zM432 1448l404 297l-98 132
l-306 -224l-306 224l-97 -132z" />
    <glyph glyph-name="Tbar" unicode="&#x166;" horiz-adv-x="1289" 
d="M514 0h261v877h248v180h-248v360h450v233h-1160v-233h449v-360h-247v-180h247v-877z" />
    <glyph glyph-name="tbar" unicode="&#x167;" horiz-adv-x="820" 
d="M511 -32c80 0 152.333 18.333 217 55l-63 199c-28.667 -21.333 -60.334 -32 -95.001 -32c-69.333 0 -104 46 -104 138v360h236v136h-236v119h236v134h-236v330h-249v-330h-125v-134h125v-119h-125v-136h125v-377c0 -108 25.833 -192.167 77.5 -252.5
s123.834 -90.5 216.501 -90.5z" />
    <glyph glyph-name="Umacron" unicode="&#x16a;" horiz-adv-x="1644" 
d="M822 -32c405.333 0 608 206.333 608 619v1063h-262v-992c0 -150 -27.833 -259.667 -83.5 -329s-143.167 -104 -262.5 -104s-206.833 34.667 -262.5 104s-83.5 179 -83.5 329v992h-261v-1063c0 -412.667 202.333 -619 607 -619zM415 1928h816v171h-816v-171z" />
    <glyph glyph-name="umacron" unicode="&#x16b;" horiz-adv-x="1328" 
d="M664 -32c175.333 0 301.5 36.167 378.5 108.5s115.5 191.833 115.5 358.5v589h-249v-533c0 -116 -18.5 -198.167 -55.5 -246.5s-100.167 -72.5 -189.5 -72.5c-88.667 0 -151.667 24.167 -189 72.5s-56 130.5 -56 246.5v533h-249v-589
c0 -166.667 38.333 -286.167 115 -358.5s203 -108.5 379 -108.5zM257 1303h816v171h-816v-171z" />
    <glyph glyph-name="Uring" unicode="&#x16e;" horiz-adv-x="1644" 
d="M822 -32c405.333 0 608 206.333 608 619v1063h-262v-992c0 -150 -27.833 -259.667 -83.5 -329s-143.167 -104 -262.5 -104s-206.833 34.667 -262.5 104s-83.5 179 -83.5 329v992h-261v-1063c0 -412.667 202.333 -619 607 -619zM823 1846
c77.333 0 142.666 22.833 195.999 68.5s80 104.167 80 175.5s-26.667 129.833 -80 175.5s-118.666 68.5 -195.999 68.5s-142.833 -22.833 -196.5 -68.5s-80.5 -104.167 -80.5 -175.5s26.833 -129.833 80.5 -175.5s119.167 -68.5 196.5 -68.5zM823 1968
c-35.333 0 -65.833 11.668 -91.5 35.001s-38.5 52.333 -38.5 86.999c0 34.667 12.833 63.667 38.5 87s56.167 35 91.5 35s65.666 -11.667 90.999 -35s38 -52.333 38 -87s-12.667 -63.667 -38 -87s-55.666 -35 -90.999 -35z" />
    <glyph glyph-name="uring" unicode="&#x16f;" horiz-adv-x="1328" 
d="M664 -32c175.333 0 301.5 36.167 378.5 108.5s115.5 191.833 115.5 358.5v589h-249v-533c0 -116 -18.5 -198.167 -55.5 -246.5s-100.167 -72.5 -189.5 -72.5c-88.667 0 -151.667 24.167 -189 72.5s-56 130.5 -56 246.5v533h-249v-589
c0 -166.667 38.333 -286.167 115 -358.5s203 -108.5 379 -108.5zM665 1221c77.333 0 142.666 22.833 195.999 68.5s80 104.167 80 175.5s-26.667 129.833 -80 175.5s-118.666 68.5 -195.999 68.5s-142.833 -22.833 -196.5 -68.5s-80.5 -104.167 -80.5 -175.5
s26.833 -129.833 80.5 -175.5s119.167 -68.5 196.5 -68.5zM665 1343c-35.333 0 -65.833 11.667 -91.5 35s-38.5 52.333 -38.5 87s12.833 63.667 38.5 87s56.167 35 91.5 35s65.666 -11.667 90.999 -35s38 -52.333 38 -87s-12.667 -63.667 -38 -87s-55.666 -35 -90.999 -35z
" />
    <glyph glyph-name="Uhungarumlaut" unicode="&#x170;" horiz-adv-x="1644" 
d="M822 -32c405.333 0 608 206.333 608 619v1063h-262v-992c0 -150 -27.833 -259.667 -83.5 -329s-143.167 -104 -262.5 -104s-206.833 34.667 -262.5 104s-83.5 179 -83.5 329v992h-261v-1063c0 -412.667 202.333 -619 607 -619zM997 1904l352 231l-158 170l-292 -287z
M548 1904l350 231l-156 170l-293 -287z" />
    <glyph glyph-name="uhungarumlaut" unicode="&#x171;" horiz-adv-x="1328" 
d="M664 -32c175.333 0 301.5 36.167 378.5 108.5s115.5 191.833 115.5 358.5v589h-249v-533c0 -116 -18.5 -198.167 -55.5 -246.5s-100.167 -72.5 -189.5 -72.5c-88.667 0 -151.667 24.167 -189 72.5s-56 130.5 -56 246.5v533h-249v-589
c0 -166.667 38.333 -286.167 115 -358.5s203 -108.5 379 -108.5zM839 1279l352 231l-158 170l-292 -287zM390 1279l350 231l-156 170l-293 -287z" />
    <glyph glyph-name="Uogonek" unicode="&#x172;" horiz-adv-x="1644" 
d="M822 -32c405.333 0 608 206.333 608 619v1063h-262v-992c0 -150 -27.833 -259.667 -83.5 -329s-143.167 -104 -262.5 -104s-206.833 34.667 -262.5 104s-83.5 179 -83.5 329v992h-261v-1063c0 -412.667 202.333 -619 607 -619zM859 -553
c54 0 105.667 12.8301 155 38.4971s89.333 60.834 120 105.501l-105 78c-42 -52.667 -91.333 -79 -148 -79c-40.667 0 -71.167 11.333 -91.5 34s-30.5 50.334 -30.5 83.001c0 39.333 13.167 85.833 39.5 139.5s62.5 106.834 108.5 159.501h-123
c-56.667 -62.667 -100.167 -122.5 -130.5 -179.5s-45.5 -108.5 -45.5 -154.5c0 -62 23.667 -115 71 -159s107.333 -66 180 -66z" />
    <glyph glyph-name="uogonek" unicode="&#x173;" horiz-adv-x="1328" 
d="M664 -32c175.333 0 301.5 36.167 378.5 108.5s115.5 191.833 115.5 358.5v589h-249v-533c0 -116 -18.5 -198.167 -55.5 -246.5s-100.167 -72.5 -189.5 -72.5c-88.667 0 -151.667 24.167 -189 72.5s-56 130.5 -56 246.5v533h-249v-589
c0 -166.667 38.333 -286.167 115 -358.5s203 -108.5 379 -108.5zM703 -548c54 0 105.667 12.8301 155 38.4971s89.333 60.834 120 105.501l-105 78c-42 -52.667 -91.333 -79 -148 -79c-40.667 0 -71.167 11.333 -91.5 34s-30.5 50.334 -30.5 83.001
c0 39.333 13.167 85.833 39.5 139.5s62.5 106.834 108.5 159.501h-123c-56.667 -62.667 -100.167 -122.5 -130.5 -179.5s-45.5 -108.5 -45.5 -154.5c0 -62 23.667 -115 71 -159s107.333 -66 180 -66z" />
    <glyph glyph-name="Wcircumflex" unicode="&#x174;" horiz-adv-x="2417" 
d="M552 0h292l365 1143l364 -1143h292l481 1650h-291l-348 -1295l-400 1295h-198l-399 -1295l-348 1295h-292zM902 1877l306 224l306 -224l98 132l-404 296l-403 -296z" />
    <glyph glyph-name="wcircumflex" unicode="&#x175;" horiz-adv-x="1967" 
d="M538 0h166l279 666l279 -666h167l523 1024h-285l-314 -687l-285 687h-169l-286 -687l-314 687h-285zM677 1252l306 224l306 -224l98 132l-404 296l-403 -296z" />
    <glyph glyph-name="Ycircumflex" unicode="&#x176;" horiz-adv-x="1503" 
d="M621 0h261v728l588 922h-316l-403 -653l-402 653h-316l588 -922v-728zM445 1877l306 224l306 -224l98 132l-404 296l-403 -296z" />
    <glyph glyph-name="ycircumflex" unicode="&#x177;" horiz-adv-x="1251" 
d="M196 -520h284l754 1544h-284l-307 -690l-347 690h-284l487 -933zM320 1252l306 224l306 -224l98 132l-404 296l-403 -296z" />
    <glyph glyph-name="Ydieresis" unicode="&#x178;" horiz-adv-x="1503" 
d="M621 0h261v728l588 922h-316l-403 -653l-402 653h-316l588 -922v-728zM987 1887c37.333 0 69.333 13.333 96 40s40 58.667 40 96s-13.333 69.333 -40 96s-58.667 40 -96 40s-69.333 -13.333 -96 -40s-40 -58.667 -40 -96s13.333 -69.333 40 -96s58.667 -40 96 -40z
M515 1887c37.333 0 69.333 13.333 96 40s40 58.667 40 96s-13.333 69.333 -40 96s-58.667 40 -96 40s-69.333 -13.333 -96 -40s-40 -58.667 -40 -96s13.333 -69.333 40 -96s58.667 -40 96 -40z" />
    <glyph glyph-name="Zacute" unicode="&#x179;" horiz-adv-x="1559" 
d="M66 0h1359v232h-896l949 1418h-1297v-232h834zM744 1751l309 378l-174 129l-245 -420z" />
    <glyph glyph-name="zacute" unicode="&#x17a;" horiz-adv-x="1191" 
d="M56 0h1031v193h-605l635 831h-980v-193h553zM560 1126l309 378l-174 129l-245 -420z" />
    <glyph glyph-name="Zdotaccent" unicode="&#x17b;" horiz-adv-x="1559" 
d="M66 0h1359v232h-896l949 1418h-1297v-232h834zM780 1952c42 0 77.667 14.833 107 44.5s44 65.5 44 107.5c0 41.333 -14.667 76.666 -44 106c-29.333 29.333 -65 44 -107 44s-77.667 -14.667 -107 -44s-44 -64.666 -44 -106c0 -42 14.667 -77.833 44 -107.5
s65 -44.5 107 -44.5z" />
    <glyph glyph-name="zdotaccent" unicode="&#x17c;" horiz-adv-x="1191" 
d="M56 0h1031v193h-605l635 831h-980v-193h553zM596 1327c42 0 77.667 14.833 107 44.5s44 65.5 44 107.5c0 41.333 -14.667 76.666 -44 105.999s-65 44 -107 44s-77.667 -14.667 -107 -44s-44 -64.666 -44 -105.999c0 -42 14.667 -77.833 44 -107.5s65 -44.5 107 -44.5z
" />
    <glyph glyph-name="Zcaron" unicode="&#x17d;" horiz-adv-x="1559" 
d="M66 0h1359v232h-896l949 1418h-1297v-232h834zM779 1811l404 297l-98 132l-306 -224l-306 224l-97 -132z" />
    <glyph glyph-name="zcaron" unicode="&#x17e;" horiz-adv-x="1191" 
d="M56 0h1031v193h-605l635 831h-980v-193h553zM595 1186l404 297l-98 132l-306 -224l-306 224l-97 -132z" />
    <glyph glyph-name="florin" unicode="&#x192;" horiz-adv-x="985" 
d="M121 -551c107.333 0 194.836 38.167 262.503 114.5s107.834 181.833 120.501 316.5l93 955h249l16 189h-248l29 292c7.33301 75.333 23.666 129.833 48.999 163.5s62 50.5 110 50.5c43.333 0 79 -10.333 107 -31l102 175c-60 50.667 -137.667 76 -233 76
c-107.333 0 -194.833 -38 -262.5 -114s-107.834 -181.667 -120.501 -317l-30 -295h-125l-17 -189h125l-93 -952c-6.66699 -75.333 -22.834 -129.833 -48.501 -163.5s-62.167 -50.5 -109.5 -50.5c-44.667 0 -80.334 10.333 -107.001 31l-103 -175c60 -50.667 138 -76 234 -76
z" />
    <glyph glyph-name="Scommaaccent" unicode="&#x218;" horiz-adv-x="1365" 
d="M664 -32c112.667 0 212.166 19.165 298.499 57.498s154 94 203 167s73.5 161.167 73.5 264.5c0 98 -21.833 177.833 -65.5 239.5s-103.5 113.667 -179.5 156s-162.667 82.833 -260 121.5c-49.333 19.333 -94.833 38.5 -136.5 57.5s-74.834 42.667 -99.501 71
s-37 65.833 -37 112.5c0 60 22.333 112.833 67 158.5s108 68.5 190 68.5c70 0 135 -15.167 195 -45.5s108.667 -65.166 146 -104.499l114 199c-31.333 32.667 -71.166 63.334 -119.499 92.001s-101.666 52 -159.999 70s-118.5 27 -180.5 27c-100.667 0 -189 -22 -265 -66
s-135.167 -101.667 -177.5 -173s-63.5 -148.333 -63.5 -231c0 -76 17.333 -140.5 52 -193.5s78.834 -97.333 132.501 -133s108.834 -65.5 165.501 -89.5c79.333 -32.667 149 -63.5 209 -92.5s106.667 -62.667 140 -101s50 -88.166 50 -149.499
c0 -79.333 -27.333 -139.166 -82 -179.499s-122.334 -60.5 -203.001 -60.5c-76 0 -143.667 14.5 -203 43.5s-110 62.167 -152 99.5s-75.333 68.666 -100 93.999l-138 -212c17.333 -20 42.666 -44.833 75.999 -74.5s74.5 -59.334 123.5 -89.001s105.667 -54.5 170 -74.5
s136.5 -30 216.5 -30zM638.999 -499.002c43.333 34.667 78.1641 77 104.497 127s39.5 97.667 39.5 143c0 37.333 -8.66699 65.333 -26 84s-40.666 28 -69.999 28c-28.667 0 -52 -9 -70 -27s-27 -40.667 -27 -68c0 -23.333 7.33301 -43.5 22 -60.5s33.334 -27.5 56.001 -31.5
c-2 -30.667 -9.66699 -61.167 -23 -91.5s-27.666 -54.5 -42.999 -72.5z" />
    <glyph glyph-name="scommaaccent" unicode="&#x219;" horiz-adv-x="1012" 
d="M475 -32c130 0 233 30.001 309 90.001s114 144.333 114 253c0 60 -11.667 108 -35 144s-55.833 65.333 -97.5 88s-89.5 44 -143.5 64l-104.5 41.5c-35 14.333 -64 31.333 -87 51s-34.5 43.167 -34.5 70.5c0 33.333 13.5 60.666 40.5 81.999s62.833 32 107.5 32
c76 0 153 -32.333 231 -97l90 157c-54.667 36 -108.834 63.5 -162.501 82.5s-107.167 28.5 -160.5 28.5c-74 0 -139.833 -13 -197.5 -39s-103 -62 -136 -108s-49.5 -98.667 -49.5 -158c0 -52 12.333 -94.833 37 -128.5s56.5 -61.5 95.5 -83.5s79.833 -42 122.5 -60
c50.667 -20 92.667 -37.333 126 -52s58.333 -31 75 -49s25 -43 25 -75c0 -46.667 -15.833 -83 -47.5 -109s-71.167 -39 -118.5 -39c-52 0 -102.167 14.167 -150.5 42.5s-92.166 68.833 -131.499 121.5l-110 -162c85.333 -125.333 216.333 -188 393 -188zM506 -498.999
c43.333 34.667 78.1641 77 104.497 127s39.5 97.667 39.5 143c0 37.333 -8.66699 65.333 -26 84s-40.666 28 -69.999 28c-28.667 0 -52 -9 -70 -27s-27 -40.667 -27 -68c0 -23.333 7.33301 -43.5 22 -60.5s33.334 -27.5 56.001 -31.5c-2 -30.667 -9.66699 -61.167 -23 -91.5
s-27.666 -54.5 -42.999 -72.5z" />
    <glyph glyph-name="uni021A" unicode="&#x21a;" horiz-adv-x="1289" 
d="M514 0h261v1417h450v233h-1160v-233h449v-1417zM621 -499c43.333 34.667 78.1641 77 104.497 127s39.5 97.667 39.5 143c0 37.333 -8.66699 65.333 -26 84s-40.666 28 -69.999 28c-28.667 0 -52 -9 -70 -27s-27 -40.667 -27 -68c0 -23.333 7.33301 -43.5 22 -60.5
s33.334 -27.5 56.001 -31.5c-2 -30.667 -9.66699 -61.167 -23 -91.5s-27.666 -54.5 -42.999 -72.5z" />
    <glyph glyph-name="uni021B" unicode="&#x21b;" horiz-adv-x="820" 
d="M511 -32c80 0 152.333 18.333 217 55l-63 199c-28.667 -21.333 -60.334 -32 -95.001 -32c-69.333 0 -104 46 -104 138v507h236v189h-236v383h-249v-383h-125v-189h125v-524c0 -108 25.833 -192.167 77.5 -252.5s123.834 -90.5 216.501 -90.5zM471 -499
c43.333 34.667 78.1641 77 104.497 127s39.5 97.667 39.5 143c0 37.333 -8.66699 65.333 -26 84s-40.666 28 -69.999 28c-28.667 0 -52 -9 -70 -27s-27 -40.667 -27 -68c0 -23.333 7.33301 -43.5 22 -60.5s33.334 -27.5 56.001 -31.5c-2 -30.667 -9.66699 -61.167 -23 -91.5
s-27.666 -54.5 -42.999 -72.5z" />
    <glyph glyph-name="circumflex" unicode="&#x2c6;" horiz-adv-x="807" 
d="M97 1252l306 224l306 -224l98 132l-404 296l-403 -296z" />
    <glyph glyph-name="caron" unicode="&#x2c7;" horiz-adv-x="807" 
d="M403 1186l404 297l-98 132l-306 -224l-306 224l-97 -132z" />
    <glyph glyph-name="breve" unicode="&#x2d8;" horiz-adv-x="872" 
d="M436 1294c117.333 0 215.666 31.667 294.999 95s126.333 145.666 141 246.999l-180 44c-8.66699 -60.667 -34.667 -113.5 -78 -158.5s-102.666 -67.5 -177.999 -67.5c-76 0 -135.333 22.5 -178 67.5s-68.667 97.833 -78 158.5l-180 -44
c15.333 -101.333 62.5 -183.666 141.5 -246.999s177.167 -95 294.5 -95z" />
    <glyph glyph-name="dotaccent" unicode="&#x2d9;" horiz-adv-x="302" 
d="M151 1327c42 0 77.667 14.833 107 44.5s44 65.5 44 107.5c0 41.333 -14.667 76.666 -44 105.999s-65 44 -107 44s-77.667 -14.667 -107 -44s-44 -64.666 -44 -105.999c0 -42 14.667 -77.833 44 -107.5s65 -44.5 107 -44.5z" />
    <glyph glyph-name="ring" unicode="&#x2da;" horiz-adv-x="553" 
d="M277 1221c77.333 0 142.666 22.833 195.999 68.5s80 104.167 80 175.5s-26.667 129.833 -80 175.5s-118.666 68.5 -195.999 68.5s-142.833 -22.833 -196.5 -68.5s-80.5 -104.167 -80.5 -175.5s26.833 -129.833 80.5 -175.5s119.167 -68.5 196.5 -68.5zM277 1343
c-35.333 0 -65.833 11.667 -91.5 35s-38.5 52.333 -38.5 87s12.833 63.667 38.5 87s56.167 35 91.5 35s65.666 -11.667 90.999 -35s38 -52.333 38 -87s-12.667 -63.667 -38 -87s-55.666 -35 -90.999 -35z" />
    <glyph glyph-name="ogonek" unicode="&#x2db;" horiz-adv-x="526" 
d="M251 -541c54 0 105.667 12.8301 155 38.4971s89.333 60.834 120 105.501l-105 78c-42 -52.667 -91.333 -79 -148 -79c-40.667 0 -71.167 11.333 -91.5 34s-30.5 50.334 -30.5 83.001c0 39.333 13.167 85.833 39.5 139.5s62.5 106.834 108.5 159.501h-123
c-56.667 -62.667 -100.167 -122.5 -130.5 -179.5s-45.5 -108.5 -45.5 -154.5c0 -62 23.667 -115 71 -159s107.333 -66 180 -66z" />
    <glyph glyph-name="tilde" unicode="&#x2dc;" horiz-adv-x="1083" 
d="M726 1207c56 0 114.666 20.998 175.999 62.998s109.333 97 144 165l-127 112c-18 -42.667 -43.667 -78.667 -77 -108s-68.666 -44 -105.999 -44c-30 0 -60.667 8.16699 -92 24.5s-64.333 35.333 -99 57s-71 40.667 -109 57s-78.333 24.5 -121 24.5
c-66.667 0 -127.5 -22 -182.5 -66s-99.167 -98 -132.5 -162l127 -112c16.667 38.667 40.5 73.5 71.5 104.5s70.833 46.5 119.5 46.5c36 0 70.5 -8.16699 103.5 -24.5s65.5 -35.166 97.5 -56.499s65 -40.166 99 -56.499s70 -24.5 108 -24.5z" />
    <glyph glyph-name="hungarumlaut" unicode="&#x2dd;" horiz-adv-x="924" 
d="M548 1279l352 231l-158 170l-292 -287zM99 1279l350 231l-156 170l-293 -287z" />
    <glyph glyph-name="gravecomb" unicode="&#x300;" horiz-adv-x="0" 
d="M308 1126l111 87l-246 420l-173 -129z" />
    <glyph glyph-name="acutecomb" unicode="&#x301;" horiz-adv-x="0" 
d="M110 1126l309 378l-174 129l-245 -420z" />
    <glyph glyph-name="uni0302" unicode="&#x302;" horiz-adv-x="0" 
d="M97 1252l306 224l306 -224l98 132l-404 296l-403 -296z" />
    <glyph glyph-name="tildecomb" unicode="&#x303;" horiz-adv-x="0" 
d="M726 1207c56 0 114.666 20.998 175.999 62.998s109.333 97 144 165l-127 112c-18 -42.667 -43.667 -78.667 -77 -108s-68.666 -44 -105.999 -44c-30 0 -60.667 8.16699 -92 24.5s-64.333 35.333 -99 57s-71 40.667 -109 57s-78.333 24.5 -121 24.5
c-66.667 0 -127.5 -22 -182.5 -66s-99.167 -98 -132.5 -162l127 -112c16.667 38.667 40.5 73.5 71.5 104.5s70.833 46.5 119.5 46.5c36 0 70.5 -8.16699 103.5 -24.5s65.5 -35.166 97.5 -56.499s65 -40.166 99 -56.499s70 -24.5 108 -24.5z" />
    <glyph glyph-name="uni0304" unicode="&#x304;" horiz-adv-x="0" 
d="M0 1303h816v171h-816v-171z" />
    <glyph glyph-name="uni0306" unicode="&#x306;" horiz-adv-x="0" 
d="M436 1294c117.333 0 215.666 31.667 294.999 95s126.333 145.666 141 246.999l-180 44c-8.66699 -60.667 -34.667 -113.5 -78 -158.5s-102.666 -67.5 -177.999 -67.5c-76 0 -135.333 22.5 -178 67.5s-68.667 97.833 -78 158.5l-180 -44
c15.333 -101.333 62.5 -183.666 141.5 -246.999s177.167 -95 294.5 -95z" />
    <glyph glyph-name="uni0307" unicode="&#x307;" horiz-adv-x="0" 
d="M151 1327c42 0 77.667 14.833 107 44.5s44 65.5 44 107.5c0 41.333 -14.667 76.666 -44 105.999s-65 44 -107 44s-77.667 -14.667 -107 -44s-44 -64.666 -44 -105.999c0 -42 14.667 -77.833 44 -107.5s65 -44.5 107 -44.5z" />
    <glyph glyph-name="uni0308" unicode="&#x308;" horiz-adv-x="0" 
d="M608 1262c37.333 0 69.333 13.333 96 40s40 58.667 40 96s-13.333 69.333 -40 96s-58.667 40 -96 40s-69.333 -13.333 -96 -40s-40 -58.667 -40 -96s13.333 -69.333 40 -96s58.667 -40 96 -40zM136 1262c37.333 0 69.333 13.333 96 40s40 58.667 40 96
s-13.333 69.333 -40 96s-58.667 40 -96 40s-69.333 -13.333 -96 -40s-40 -58.667 -40 -96s13.333 -69.333 40 -96s58.667 -40 96 -40z" />
    <glyph glyph-name="uni030A" unicode="&#x30a;" horiz-adv-x="0" 
d="M277 1221c77.333 0 142.666 22.833 195.999 68.5s80 104.167 80 175.5s-26.667 129.833 -80 175.5s-118.666 68.5 -195.999 68.5s-142.833 -22.833 -196.5 -68.5s-80.5 -104.167 -80.5 -175.5s26.833 -129.833 80.5 -175.5s119.167 -68.5 196.5 -68.5zM277 1343
c-35.333 0 -65.833 11.667 -91.5 35s-38.5 52.333 -38.5 87s12.833 63.667 38.5 87s56.167 35 91.5 35s65.666 -11.667 90.999 -35s38 -52.333 38 -87s-12.667 -63.667 -38 -87s-55.666 -35 -90.999 -35z" />
    <glyph glyph-name="uni030B" unicode="&#x30b;" horiz-adv-x="0" 
d="M548 1279l352 231l-158 170l-292 -287zM99 1279l350 231l-156 170l-293 -287z" />
    <glyph glyph-name="uni030C" unicode="&#x30c;" horiz-adv-x="0" 
d="M403 1186l404 297l-98 132l-306 -224l-306 224l-97 -132z" />
    <glyph glyph-name="uni0312" unicode="&#x312;" horiz-adv-x="0" 
d="M388 1329c36.667 0 66.5 8.50195 89.5 25.502s34.5 38.833 34.5 65.5c0 21.333 -8 40.166 -24 56.499s-37.667 26.5 -65 30.5c3.33301 27.333 12.833 55 28.5 83s31.834 49.667 48.501 65l-63 30c-50.667 -33.333 -91.334 -73 -122.001 -119s-46 -90 -46 -132
c0 -32.667 10.667 -58.334 32 -77.001s50.333 -28 87 -28z" />
    <glyph glyph-name="uni0326" unicode="&#x326;" horiz-adv-x="0" 
d="M327 -499c43.333 34.667 78.1641 77 104.497 127s39.5 97.667 39.5 143c0 37.333 -8.66699 65.333 -26 84s-40.666 28 -69.999 28c-28.667 0 -52 -9 -70 -27s-27 -40.667 -27 -68c0 -23.333 7.33301 -43.5 22 -60.5s33.334 -27.5 56.001 -31.5
c-2 -30.667 -9.66699 -61.167 -23 -91.5s-27.666 -54.5 -42.999 -72.5z" />
    <glyph glyph-name="uni0327" unicode="&#x327;" horiz-adv-x="0" 
d="M279 -542c76 0 138.166 21.002 186.499 63.002s72.5 95.333 72.5 160c0 43.333 -12.5 80.166 -37.5 110.499s-58.167 50.166 -99.5 59.499c-16.667 7.33301 -34.5 12.5 -53.5 15.5s-40.167 3.5 -63.5 1.5l48 150h-112l-80 -248l14 -11c12 7.33301 28.833 13.5 50.5 18.5
s42.5 7.5 62.5 7.5c39.333 0 71 -9.16699 95 -27.5s36 -42.5 36 -72.5c0 -29.333 -11.167 -53.333 -33.5 -72s-52.166 -28 -89.499 -28c-71.333 0 -129.333 32 -174 96l-101 -74c74 -99.333 167 -149 279 -149z" />
    <glyph glyph-name="uni0328" unicode="&#x328;" horiz-adv-x="0" 
d="M251 -541c54 0 105.667 12.8301 155 38.4971s89.333 60.834 120 105.501l-105 78c-42 -52.667 -91.333 -79 -148 -79c-40.667 0 -71.167 11.333 -91.5 34s-30.5 50.334 -30.5 83.001c0 39.333 13.167 85.833 39.5 139.5s62.5 106.834 108.5 159.501h-123
c-56.667 -62.667 -100.167 -122.5 -130.5 -179.5s-45.5 -108.5 -45.5 -154.5c0 -62 23.667 -115 71 -159s107.333 -66 180 -66z" />
    <glyph glyph-name="Delta" unicode="&#x394;" horiz-adv-x="1556" 
d="M274 0h1008l33 22l-498 1273h-78l-498 -1273zM480 169l299 824l298 -824h-597z" />
    <glyph glyph-name="Omega" unicode="&#x3a9;" horiz-adv-x="1258" 
d="M107 0l476.999 -0.000976562v116l-10 7c-36.667 18 -70.834 49 -102.501 93s-57.167 95.333 -76.5 154s-29 118.667 -29 180c0 67.333 11.5 127.333 34.5 180s54.333 94.167 94 124.5s84.5 45.5 134.5 45.5c50.667 0 95.667 -15.333 135 -46s70.5 -72.167 93.5 -124.5
s34.5 -111.833 34.5 -178.5c0 -60.667 -9.66699 -120.167 -29 -178.5s-44.666 -109.666 -75.999 -153.999s-65.666 -76.166 -102.999 -95.499l-11 -7v-116h477v178l-232 -24c67.333 48.667 120 111.334 158 188.001s57 161.667 57 255c0 103.333 -22 194 -66 272
s-104 138.833 -180 182.5s-162.333 65.5 -259 65.5c-94.667 0 -180 -21.5 -256 -64.5s-136.167 -103.333 -180.5 -181s-66.5 -168.834 -66.5 -273.501c0 -92.667 18.667 -177.334 56 -254.001s90.333 -140 159 -190l-233 24v-178z" />
    <glyph glyph-name="mu" unicode="&#x3bc;" horiz-adv-x="1544" 
d="M253 -320l297.004 0.000976562v365c17.333 -23.333 40.666 -42 69.999 -56s66.333 -21 111 -21c56 0 113.667 13.5 173 40.5s104.333 65.167 135 114.5v-123h249v1025h-249v-625c0 -38.667 -10.333 -76.167 -31 -112.5s-49.834 -66 -87.501 -89
s-81.834 -34.5 -132.501 -34.5c-78.667 0 -137.834 24 -177.501 72s-59.5 112.333 -59.5 193v596h-249v-597c0 -79.333 -2.5 -150.333 -7.5 -213s-10.667 -121.834 -17 -177.501s-12 -112.167 -17 -169.5s-7.5 -120 -7.5 -188z" />
    <glyph glyph-name="pi" unicode="&#x3c0;" horiz-adv-x="1332" 
d="M359 0l194 -0.000976562v845h245v-593c0 -91.333 22.5 -156.166 67.5 -194.499s121.833 -57.5 230.5 -57.5v194c-40 0 -67.333 7.16699 -82 21.5s-22 39.833 -22 76.5v553h166v180h-965v-180h166v-845z" />
    <glyph glyph-name="Wgrave" unicode="&#x1e80;" horiz-adv-x="2417" 
d="M552 0h292l365 1143l364 -1143h292l481 1650h-291l-348 -1295l-400 1295h-198l-399 -1295l-348 1295h-292zM1294 1751l111 87l-246 420l-173 -129z" />
    <glyph glyph-name="wgrave" unicode="&#x1e81;" horiz-adv-x="1967" 
d="M538 0h166l279 666l279 -666h167l523 1024h-285l-314 -687l-285 687h-169l-286 -687l-314 687h-285zM1069 1126l111 87l-246 420l-173 -129z" />
    <glyph glyph-name="Wacute" unicode="&#x1e82;" horiz-adv-x="2417" 
d="M552 0h292l365 1143l364 -1143h292l481 1650h-291l-348 -1295l-400 1295h-198l-399 -1295l-348 1295h-292zM1173 1751l309 378l-174 129l-245 -420z" />
    <glyph glyph-name="wacute" unicode="&#x1e83;" horiz-adv-x="1967" 
d="M538 0h166l279 666l279 -666h167l523 1024h-285l-314 -687l-285 687h-169l-286 -687l-314 687h-285zM947 1126l309 378l-174 129l-245 -420z" />
    <glyph glyph-name="Wdieresis" unicode="&#x1e84;" horiz-adv-x="2417" 
d="M552 0h292l365 1143l364 -1143h292l481 1650h-291l-348 -1295l-400 1295h-198l-399 -1295l-348 1295h-292zM1445 1887c37.333 0 69.333 13.333 96 40s40 58.667 40 96s-13.333 69.333 -40 96s-58.667 40 -96 40s-69.333 -13.333 -96 -40s-40 -58.667 -40 -96
s13.333 -69.333 40 -96s58.667 -40 96 -40zM973 1887c37.333 0 69.333 13.333 96 40s40 58.667 40 96s-13.333 69.333 -40 96s-58.667 40 -96 40s-69.333 -13.333 -96 -40s-40 -58.667 -40 -96s13.333 -69.333 40 -96s58.667 -40 96 -40z" />
    <glyph glyph-name="wdieresis" unicode="&#x1e85;" horiz-adv-x="1967" 
d="M538 0h166l279 666l279 -666h167l523 1024h-285l-314 -687l-285 687h-169l-286 -687l-314 687h-285zM1219 1262c37.333 0 69.333 13.333 96 40s40 58.667 40 96s-13.333 69.333 -40 96s-58.667 40 -96 40s-69.333 -13.333 -96 -40s-40 -58.667 -40 -96
s13.333 -69.333 40 -96s58.667 -40 96 -40zM747 1262c37.333 0 69.333 13.333 96 40s40 58.667 40 96s-13.333 69.333 -40 96s-58.667 40 -96 40s-69.333 -13.333 -96 -40s-40 -58.667 -40 -96s13.333 -69.333 40 -96s58.667 -40 96 -40z" />
    <glyph glyph-name="uni1E9E" unicode="&#x1e9e;" horiz-adv-x="1632" 
d="M1029 -28c91.333 0 173.004 19.998 245.004 59.998s128.667 94.5 170 163.5s62 146.5 62 232.5c0 70 -12.333 126.333 -37 169s-55.334 76.5 -92.001 101.5s-73.334 45.833 -110.001 62.5s-67.334 33.167 -92.001 49.5s-37 37.833 -37 64.5c0 22.667 9 43.667 27 63
l62.5 66.5c23.667 25 44.5 57 62.5 96s27 89.5 27 151.5c0 89.333 -21.167 166 -63.5 230s-101.333 113.167 -177 147.5s-163.5 51.5 -263.5 51.5c-186 0 -327.833 -60 -425.5 -180s-146.5 -288.333 -146.5 -505v-996h263v1019c0 130.667 25 231.167 75 301.5
s122.667 105.5 218 105.5c72.667 0 130.5 -20.333 173.5 -61s64.5 -98 64.5 -172c0 -52 -9 -93.167 -27 -123.5s-38.667 -56 -62 -77s-44 -43 -62 -66s-27 -52.833 -27 -89.5c0 -44 13.167 -78.667 39.5 -104s59.166 -46.666 98.499 -63.999l117.5 -53.5
c39 -18.333 71.667 -41.5 98 -69.5s39.5 -66.333 39.5 -115c0 -64 -22 -114.333 -66 -151s-100.667 -55 -170 -55c-50.667 0 -101.167 9.33301 -151.5 28s-106.833 46.334 -169.5 83.001l-58 -251c140.667 -75.333 272 -113 394 -113z" />
    <glyph glyph-name="Ygrave" unicode="&#x1ef2;" horiz-adv-x="1503" 
d="M621 0h261v728l588 922h-316l-403 -653l-402 653h-316l588 -922v-728zM837 1751l111 87l-246 420l-173 -129z" />
    <glyph glyph-name="ygrave" unicode="&#x1ef3;" horiz-adv-x="1251" 
d="M196 -520h284l754 1544h-284l-307 -690l-347 690h-284l487 -933zM712 1126l111 87l-246 420l-173 -129z" />
    <glyph glyph-name="endash" unicode="&#x2013;" horiz-adv-x="1358" 
d="M193 472h972v214h-972v-214z" />
    <glyph glyph-name="emdash" unicode="&#x2014;" horiz-adv-x="2312" 
d="M193 472h1926v214h-1926v-214z" />
    <glyph glyph-name="quoteleft" unicode="&#x2018;" horiz-adv-x="651" 
d="M318 1120c45.333 0 82.167 13.833 110.5 41.5s42.5 63.167 42.5 106.5c0 36 -10.5 66.667 -31.5 92s-49.5 42.333 -85.5 51c4.66699 37.333 17.334 77.333 38.001 120s41.667 74.334 63 95.001l-63 53c-68.667 -56 -123.834 -119.333 -165.501 -190
s-62.5 -138.334 -62.5 -203.001c0 -52 14 -92.667 42 -122s65.333 -44 112 -44z" />
    <glyph glyph-name="quoteright" unicode="&#x2019;" horiz-adv-x="650" 
d="M256 1121c69.333 56 124.669 119.331 166.002 189.998s62 138.334 62 203.001c0 52.667 -14 93.5 -42 122.5s-65.333 43.5 -112 43.5c-44.667 0 -81.334 -13.667 -110.001 -41s-43 -62.666 -43 -105.999c0 -36 10.667 -66.833 32 -92.5s49.666 -42.5 84.999 -50.5
c-4 -37.333 -16.333 -77.333 -37 -120s-41.667 -75 -63 -97z" />
    <glyph glyph-name="quotesinglbase" unicode="&#x201a;" horiz-adv-x="745" 
d="M254 -273c69.333 56 124.668 119.331 166.001 189.998s62 138.334 62 203.001c0 52 -14 92.667 -42 122s-65.333 44 -112 44c-44.667 0 -81.334 -13.667 -110.001 -41s-43 -62.666 -43 -105.999c0 -36 10.667 -66.833 32 -92.5s50 -42.5 86 -50.5
c-4.66699 -37.333 -17.5 -77.5 -38.5 -120.5s-42.167 -75.167 -63.5 -96.5z" />
    <glyph glyph-name="quotedblleft" unicode="&#x201c;" horiz-adv-x="1038" 
d="M701 1120c45.333 0 82.001 13.833 110.001 41.5s42 63.167 42 106.5c0 36 -10.5 66.667 -31.5 92s-49.167 42.333 -84.5 51c4 37.333 16.333 77.333 37 120s41.667 74.334 63 95.001l-62 53c-68.667 -56 -123.834 -119.333 -165.501 -190s-62.5 -138.334 -62.5 -203.001
c0 -52 14 -92.667 42 -122s65.333 -44 112 -44zM320.001 1120c45.333 0 82 13.833 110 41.5s42 63.167 42 106.5c0 36 -10.5 66.667 -31.5 92s-49.167 42.333 -84.5 51c4 37.333 16.333 77.333 37 120s41.667 74.334 63 95.001l-63 53
c-68.667 -56 -123.667 -119.333 -165 -190s-62 -138.334 -62 -203.001c0 -52 14 -92.667 42 -122s65.333 -44 112 -44z" />
    <glyph glyph-name="quotedblright" unicode="&#x201d;" horiz-adv-x="1034" 
d="M642 1121c68.667 56 123.667 119.167 165 189.5s62 137.833 62 202.5c0 52.667 -14 93.667 -42 123s-65.333 44 -112 44c-44.667 0 -81.167 -13.667 -109.5 -41s-42.5 -62.666 -42.5 -105.999c0 -36.667 10.5 -67.834 31.5 -93.501s49.167 -42.167 84.5 -49.5
c-4 -37.333 -16.333 -77.5 -37 -120.5s-41.667 -75.167 -63 -96.5zM260 1121c69.333 56 124.668 119.167 166.001 189.5s62 137.833 62 202.5c0 52.667 -14 93.667 -42 123s-65.333 44 -112 44c-44.667 0 -81.167 -13.667 -109.5 -41s-42.5 -62.666 -42.5 -105.999
c0 -36.667 10.5 -67.834 31.5 -93.501s49.5 -42.167 85.5 -49.5c-4.66699 -37.333 -17.334 -77.5 -38.001 -120.5s-41.667 -75.167 -63 -96.5z" />
    <glyph glyph-name="quotedblbase" unicode="&#x201e;" horiz-adv-x="1021" 
d="M252 -273c69.333 56 124.667 119.331 166 189.998s62 138.334 62 203.001c0 52 -14 92.667 -42 122s-65 44 -111 44s-83.167 -13.667 -111.5 -41s-42.5 -62.666 -42.5 -105.999c0 -36 10.667 -66.833 32 -92.5s50 -42.5 86 -50.5
c-4.66699 -37.333 -17.5 -77.5 -38.5 -120.5s-42.167 -75.167 -63.5 -96.5zM633.001 -273.002c69.333 56 124.667 119.331 166 189.998s62 138.334 62 203.001c0 52 -14 92.667 -42 122s-65 44 -111 44c-45.333 0 -82.333 -13.667 -111 -41s-43 -62.666 -43 -105.999
c0 -36 10.667 -66.833 32 -92.5s50 -42.5 86 -50.5c-4.66699 -37.333 -17.5 -77.5 -38.5 -120.5s-42.167 -75.167 -63.5 -96.5z" />
    <glyph glyph-name="dagger" unicode="&#x2020;" horiz-adv-x="1091" 
d="M437 0h217v1066h293v196h-293v458h-217v-458h-294v-196h294v-1066z" />
    <glyph glyph-name="daggerdbl" unicode="&#x2021;" horiz-adv-x="1174" 
d="M479 0h217v498h293v196h-293v347h293v195h-293v484h-217v-484h-294v-195h294v-347h-294v-196h294v-498z" />
    <glyph glyph-name="bullet" unicode="&#x2022;" horiz-adv-x="965" 
d="M482 442c50.667 0 96.5 12.167 137.5 36.5s73.667 57 98 98s36.5 86.833 36.5 137.5s-12.167 96.5 -36.5 137.5s-57 73.667 -98 98s-86.833 36.5 -137.5 36.5s-96.667 -12.167 -138 -36.5s-74.333 -57 -99 -98s-37 -86.833 -37 -137.5s12.333 -96.5 37 -137.5
s57.667 -73.667 99 -98s87.333 -36.5 138 -36.5z" />
    <glyph glyph-name="ellipsis" unicode="&#x2026;" horiz-adv-x="1842" 
d="M398 -32c45.333 0 84 16.167 116 48.5s48 71.166 48 116.499s-16 84.166 -48 116.499s-70.667 48.5 -116 48.5c-46 0 -85.167 -16.167 -117.5 -48.5s-48.5 -71.166 -48.5 -116.499s16.167 -84.166 48.5 -116.499s71.5 -48.5 117.5 -48.5zM921 -32
c45.333 0 84.166 16.167 116.499 48.5s48.5 71.166 48.5 116.499s-16.167 84.166 -48.5 116.499s-71.166 48.5 -116.499 48.5c-46 0 -85 -16.167 -117 -48.5s-48 -71.166 -48 -116.499s16 -84.166 48 -116.499s71 -48.5 117 -48.5zM1443 -32
c45.333 0 84.166 16.167 116.499 48.5s48.5 71.166 48.5 116.499s-16.167 84.166 -48.5 116.499s-71.166 48.5 -116.499 48.5s-84.166 -16.167 -116.499 -48.5s-48.5 -71.166 -48.5 -116.499s16.167 -84.166 48.5 -116.499s71.166 -48.5 116.499 -48.5z" />
    <glyph glyph-name="perthousand" unicode="&#x2030;" horiz-adv-x="3070" 
d="M557 892c80.667 0 153.167 16.667 217.5 50s115.333 79.666 153 138.999s56.5 127.666 56.5 204.999s-18.833 145.666 -56.5 204.999s-88.667 105.666 -153 138.999s-136.833 50 -217.5 50s-153.334 -16.667 -218.001 -50s-115.834 -79.666 -153.501 -138.999
s-56.5 -127.666 -56.5 -204.999s18.833 -145.666 56.5 -204.999s88.834 -105.666 153.501 -138.999s137.334 -50 218.001 -50zM478 0h174l960 1650h-174zM556 1047c-66.667 0 -123.001 22.167 -169.001 66.5s-69 101.833 -69 172.5c0 70 23 127.333 69 172
s102.667 67 170 67s124 -22.333 170 -67s69 -102 69 -172s-23.167 -127.333 -69.5 -172s-103.166 -67 -170.499 -67zM1531 -31c80.667 0 153.334 16.667 218.001 50s115.834 79.666 153.501 138.999s56.5 127.666 56.5 204.999s-18.833 145.666 -56.5 204.999
s-88.834 105.666 -153.501 138.999s-137.334 50 -218.001 50s-153.334 -16.667 -218.001 -50s-115.834 -79.666 -153.501 -138.999s-56.5 -127.666 -56.5 -204.999s18.833 -145.666 56.5 -204.999s88.834 -105.666 153.501 -138.999s137.334 -50 218.001 -50zM2512 -31
c81.333 0 154.332 16.667 218.999 50s115.834 79.666 153.5 138.999c37.667 59.333 56.5 127.666 56.5 204.999s-18.833 145.666 -56.5 204.999s-88.834 105.666 -153.5 138.999c-64.667 33.333 -137.667 50 -219 50c-80 0 -152.333 -16.667 -217 -50
s-115.834 -79.666 -153.5 -138.999c-37.667 -59.333 -56.5 -127.666 -56.5 -204.999s18.833 -145.666 56.5 -204.999s88.834 -105.666 153.501 -138.999s137 -50 217 -50zM1531 124c-66.667 0 -123.167 22.333 -169.5 67s-69.5 102 -69.5 172s23.167 127.333 69.5 172
s102.833 67 169.5 67c67.333 0 124 -22.333 170 -67s69 -102 69 -172s-23 -127.333 -69 -172s-102.667 -67 -170 -67zM2512 124c-66.667 0 -123.167 22.333 -169.5 67s-69.5 102 -69.5 172s23.167 127.333 69.5 172s102.833 67 169.5 67c67.333 0 124 -22.333 170 -67
s69 -102 69 -172s-23 -127.333 -69 -172s-102.667 -67 -170 -67z" />
    <glyph glyph-name="guilsinglleft" unicode="&#x2039;" horiz-adv-x="742" 
d="M488 57l135 107l-307 393l307 393l-135 107l-390 -500z" />
    <glyph glyph-name="guilsinglright" unicode="&#x203a;" horiz-adv-x="740" 
d="M253 57l390 500l-390 500l-137 -107l308 -393l-308 -393z" />
    <glyph glyph-name="fraction" unicode="&#x2044;" horiz-adv-x="129" 
d="M-551 0h178l1053 1650h-178z" />
    <glyph glyph-name="uni2074" unicode="&#x2074;" horiz-adv-x="580" 
d="M363 1040h113v110h79v105h-79v395h-117l-334 -461v-39h338v-110zM190 1255l173 247v-247h-173z" />
    <glyph glyph-name="Euro" unicode="&#x20ac;" horiz-adv-x="1898" 
d="M1197 -31c102.667 0 201.169 14.165 295.502 42.498s175.166 67.833 242.499 118.5l-116 222c-52 -39.333 -111.5 -70.166 -178.5 -92.499s-135.833 -33.5 -206.5 -33.5c-130.667 0 -246.167 31.5 -346.5 94.5s-173.833 148.167 -220.5 255.5h753v155h-812
c-6 34 -9 65.333 -9 94c0 28 3 58 9 90h812v155h-752c47.333 106.667 121.666 192.167 222.999 256.5s215.666 96.5 342.999 96.5c70.667 0 139.167 -11.167 205.5 -33.5s125.833 -53.5 178.5 -93.5l116 222c-68 51.333 -149.167 91.166 -243.5 119.499
s-192.166 42.5 -293.499 42.5c-127.333 0 -248 -26 -362 -78s-212.833 -123.833 -296.5 -215.5s-144.5 -197.167 -182.5 -316.5h-182v-155h148c-5.33301 -32 -8 -62 -8 -90c0 -32 2.66699 -63.333 8 -94h-148v-155h182c38 -119.333 98.667 -224.666 182 -315.999
s182 -162.666 296 -213.999s235 -77 363 -77z" />
    <glyph glyph-name="trademark" unicode="&#x2122;" horiz-adv-x="1382" 
d="M567 1134h92l37 349l121 -333h59l121 333l38 -349h90l-53 516h-98l-129 -336l-127 336h-97zM323 1134h93v435h135v81h-363v-81h135v-435z" />
    <glyph glyph-name="uni2150" unicode="&#x2150;" horiz-adv-x="2314" 
d="M317 600h203v1050h-326v-199h123v-851zM335 0h178l1053 1650h-178zM1315 0h240l574 990v60h-788v-179h487z" />
    <glyph glyph-name="uni2151" unicode="&#x2151;" horiz-adv-x="2438" 
d="M317 600h203v1050h-326v-199h123v-851zM335 0h178l1053 1650h-178zM1425 0l247 -0.00195312l325 333c20.667 20.667 45 48.334 73 83.001s52.333 76.334 73 125.001s29.334 104 26.001 166c-3.33301 74.667 -24.833 140 -64.5 196s-93 99.5 -160 130.5
s-143.833 46.5 -230.5 46.5c-90.667 0 -168.667 -16.167 -234 -48.5s-115.5 -76 -150.5 -131s-52.5 -116.5 -52.5 -184.5c0 -72.667 18.667 -136.5 56 -191.5s85.666 -97.833 144.999 -128.5s121.333 -46 186 -46c48 0 88.667 8 122 24zM1721 524.998
c-65.333 0 -121.333 18.332 -168 54.999s-70 83.334 -70 140.001c0 55.333 22.667 101 68 137s102.333 54 171 54c70 0 126.667 -18.5 170 -55.5s65 -81.833 65 -134.5c0 -54 -22.5 -100.167 -67.5 -138.5s-101.167 -57.5 -168.5 -57.5z" />
    <glyph glyph-name="uni2152" unicode="&#x2152;" horiz-adv-x="3320" 
d="M317 600h203v1050h-326v-199h123v-851zM335 0h178l1053 1650h-178zM1538 0h202v1050h-325v-199h123v-851zM2564 -21c104.667 0 196.334 23.167 275 69.5c78.667 46.333 140 111 184 194s66 178.833 66 287.5c0 109.333 -22 205.166 -66 287.499
s-105.333 146.666 -184 192.999s-170.334 69.5 -275 69.5c-104 0 -195.333 -23.167 -274 -69.5s-140 -110.666 -184 -192.999s-66 -178.166 -66 -287.499c0 -108.667 22 -204.5 66 -287.5s105.333 -147.667 184 -194s170 -69.5 274 -69.5zM2564 159
c-93.333 0 -168.166 33.167 -224.5 99.5c-56.333 66.333 -84.5 156.833 -84.5 271.5s28.167 205.167 84.5 271.5s131.166 99.5 224.5 99.5c94 0 169.167 -33 225.5 -99s84.5 -156.667 84.5 -272c0 -114.667 -28 -205.167 -84 -271.5s-131.333 -99.5 -226 -99.5z" />
    <glyph glyph-name="onethird" unicode="&#x2153;" horiz-adv-x="2399" 
d="M317 600h203v1050h-326v-199h123v-851zM335 0h178l1053 1650h-178zM1703 -21c78.667 0 146.998 14.8311 204.998 44.498s103 69.834 135 120.501s48 107 48 169c0 56.667 -13.833 106.5 -41.5 149.5s-66.167 77.167 -115.5 102.5c81.333 49.333 122 120.333 122 213
c0 55.333 -14.667 105.833 -44 151.5s-70 82.167 -122 109.5s-112.333 41 -181 41c-85.333 0 -160.166 -22 -224.499 -66s-105.166 -102.667 -122.499 -176l161 -74c6 44 26.5 80.167 61.5 108.5s75.5 42.5 121.5 42.5c45.333 0 84 -13.833 116 -41.5s48 -61.167 48 -100.5
c0 -40.667 -16 -76.5 -48 -107.5s-70.667 -46.5 -116 -46.5h-49v-136c12.667 5.33301 29 8 49 8c48.667 0 91 -16.667 127 -50s54 -75.666 54 -126.999c0 -46.667 -16.833 -84.667 -50.5 -114s-78.167 -44 -133.5 -44c-59.333 0 -108 16.5 -146 49.5s-58.667 75.5 -62 127.5
l-189 -89c21.333 -81.333 68.333 -145.833 141 -193.5s158 -71.5 256 -71.5z" />
    <glyph glyph-name="twothirds" unicode="&#x2154;" horiz-adv-x="2964" 
d="M259 600l895.001 -0.000976562v181h-518c122.667 74 220.167 141.333 292.5 202s124.333 118.5 156 173.5s47.5 111.167 47.5 168.5c0 68 -18.333 128.667 -55 182s-87 95.5 -151 126.5s-137.667 46.5 -221 46.5c-110 0 -203.833 -28 -281.5 -84
s-128.834 -132.667 -153.501 -230l173 -80c18.667 68.667 50.167 121.334 94.5 158.001s96.166 55 155.499 55c62.667 0 114.834 -17.833 156.501 -53.5s62.5 -78.167 62.5 -127.5c0 -43.333 -21 -92.333 -63 -147s-110.667 -119.667 -206 -195s-223.333 -166 -384 -272
v-104zM900.001 -0.000976562h178l1053 1650h-178zM2268 -21.001c78.667 0 146.999 14.8311 204.999 44.498s103 69.834 135 120.501s48 107 48 169c0 56.667 -13.833 106.5 -41.5 149.5s-66.167 77.167 -115.5 102.5c81.333 49.333 122 120.333 122 213
c0 55.333 -14.667 105.833 -44 151.5s-70 82.167 -122 109.5s-112.333 41 -181 41c-85.333 0 -160.166 -22 -224.5 -66c-64.333 -44 -105.166 -102.667 -122.499 -176l161 -74c6 44 26.5 80.167 61.5 108.5s75.5 42.5 121.5 42.5c45.333 0 84 -13.833 116 -41.5
s48 -61.167 48 -100.5c0 -40.667 -16 -76.5 -48 -107.5s-70.667 -46.5 -116 -46.5h-49v-136c12.667 5.33301 29 8 49 8c48.667 0 91 -16.667 127 -50s54 -75.666 54 -126.999c0 -46.667 -16.833 -84.667 -50.5 -114s-78.167 -44 -133.5 -44c-59.333 0 -108 16.5 -146 49.5
s-58.667 75.5 -62 127.5l-189 -89c21.333 -81.333 68.333 -145.833 141 -193.5s158 -71.5 256 -71.5z" />
    <glyph glyph-name="uni2155" unicode="&#x2155;" horiz-adv-x="2415" 
d="M317 600h203v1050h-326v-199h123v-851zM335 0h178l1053 1650h-178zM1690 -20c84.667 0 160.502 14.8291 227.502 44.4961s120.167 71.334 159.5 125.001s59 116.5 59 188.5c0 75.333 -22.667 139.333 -68 192s-111 91.334 -197 116.001
c-46.667 15.333 -95.667 24.833 -147 28.5s-104 -0.166016 -158 -11.499l39 219h453v168h-621l-99 -577c119.333 48.667 223.666 73 312.999 73c83.333 0 150.666 -18.667 201.999 -56s77 -88.666 77 -153.999c0 -58 -21.333 -102.833 -64 -134.5s-101.667 -47.5 -177 -47.5
c-64.667 0 -120.167 11.5 -166.5 34.5s-78.5 55.833 -96.5 98.5l-164 -79c30 -70 84.167 -125.5 162.5 -166.5s166.833 -61.5 265.5 -61.5z" />
    <glyph glyph-name="uni2156" unicode="&#x2156;" horiz-adv-x="2980" 
d="M259 600l895.001 -0.000976562v181h-518c122.667 74 220.167 141.333 292.5 202s124.333 118.5 156 173.5s47.5 111.167 47.5 168.5c0 68 -18.333 128.667 -55 182s-87 95.5 -151 126.5s-137.667 46.5 -221 46.5c-110 0 -203.833 -28 -281.5 -84
s-128.834 -132.667 -153.501 -230l173 -80c18.667 68.667 50.167 121.334 94.5 158.001s96.166 55 155.499 55c62.667 0 114.834 -17.833 156.501 -53.5s62.5 -78.167 62.5 -127.5c0 -43.333 -21 -92.333 -63 -147s-110.667 -119.667 -206 -195s-223.333 -166 -384 -272
v-104zM900.001 -0.000976562h178l1053 1650h-178zM2255 -20.001c84.667 0 160.502 14.8291 227.502 44.4961s120.167 71.334 159.5 125.001s59 116.5 59 188.5c0 75.333 -22.667 139.333 -68 192s-111 91.334 -197 116.001c-46.667 15.333 -95.667 24.833 -147 28.5
s-104 -0.166016 -158 -11.499l39 219h453v168h-621l-99 -577c119.333 48.667 223.666 73 312.999 73c83.333 0 150.666 -18.667 201.999 -56s77 -88.666 77 -153.999c0 -58 -21.333 -102.833 -64 -134.5s-101.667 -47.5 -177 -47.5c-64.667 0 -120.167 11.5 -166.5 34.5
s-78.5 55.833 -96.5 98.5l-164 -79c30 -70 84.167 -125.5 162.5 -166.5s166.833 -61.5 265.5 -61.5z" />
    <glyph glyph-name="uni2157" unicode="&#x2157;" horiz-adv-x="2874" 
d="M651 579c78 0 146.165 14.8311 204.498 44.498s103.5 69.834 135.5 120.501s48 107 48 169c0 56.667 -13.833 106.5 -41.5 149.5s-66.167 77.167 -115.5 102.5c81.333 49.333 122 120 122 212c0 56 -14.667 106.833 -44 152.5s-70 82.167 -122 109.5s-112 41 -180 41
c-86 0 -161.333 -22 -226 -66s-105.667 -102.667 -123 -176l162 -74c6 44 26.5 80.167 61.5 108.5s75.5 42.5 121.5 42.5c45.333 0 84 -13.833 116 -41.5s48 -61.167 48 -100.5c0 -40.667 -16.167 -76.5 -48.5 -107.5s-71.166 -46.5 -116.499 -46.5h-49v-136
c7.33301 3.33301 15.5 5.5 24.5 6.5s17.5 1.5 25.5 1.5c48 0 90 -16.667 126 -50s54 -75.666 54 -126.999c0 -46.667 -16.667 -84.667 -50 -114s-77.666 -44 -132.999 -44c-60 0 -108.833 16.5 -146.5 49.5s-58.167 75.5 -61.5 127.5l-189 -89
c21.333 -81.333 68.333 -145.833 141 -193.5s158 -71.5 256 -71.5zM792.998 -0.00195312h178l1053 1650h-178zM2149 -20.002c84.667 0 160.503 14.8291 227.503 44.4961s120.167 71.334 159.5 125.001s59 116.5 59 188.5c0 75.333 -22.667 139.333 -68 192
s-111 91.334 -197 116.001c-46.667 15.333 -95.667 24.833 -147 28.5s-104 -0.166016 -158 -11.499l39 219h453v168h-621l-99 -577c119.333 48.667 223.666 73 312.999 73c83.333 0 150.666 -18.667 201.999 -56s77 -88.666 77 -153.999c0 -58 -21.333 -102.833 -64 -134.5
s-101.667 -47.5 -177 -47.5c-64.667 0 -120.167 11.5 -166.5 34.5s-78.5 55.833 -96.5 98.5l-164 -79c30 -70 84.167 -125.5 162.5 -166.5s166.833 -61.5 265.499 -61.5z" />
    <glyph glyph-name="uni2158" unicode="&#x2158;" horiz-adv-x="2923" 
d="M798 600h192v192h136v179h-136v679h-202l-573 -794v-64h583v-192zM490 971l308 435v-435h-308zM843 0h178l1053 1650h-178zM2198 -20c84.667 0 160.503 14.8291 227.503 44.4961s120.167 71.334 159.5 125.001s59 116.5 59 188.5c0 75.333 -22.667 139.333 -68 192
s-111 91.334 -197 116.001c-46.667 15.333 -95.667 24.833 -147 28.5s-104 -0.166016 -158 -11.499l39 219h453v168h-621l-99 -577c119.333 48.667 223.666 73 312.999 73c83.333 0 150.666 -18.667 201.999 -56s77 -88.666 77 -153.999c0 -58 -21.333 -102.833 -64 -134.5
s-101.667 -47.5 -177 -47.5c-64.667 0 -120.167 11.5 -166.5 34.5s-78.5 55.833 -96.5 98.5l-164 -79c30 -70 84.167 -125.5 162.5 -166.5s166.833 -61.5 265.499 -61.5z" />
    <glyph glyph-name="uni2159" unicode="&#x2159;" horiz-adv-x="2318" 
d="M317 600h203v1050h-326v-199h123v-851zM335 0h178l1053 1650h-178zM1678 -20c86 0 161.833 15.332 227.5 45.999s116.834 73.334 153.501 128.001s55 118 55 190c0 70.667 -17 133 -51 187s-79.833 96.167 -137.5 126.5s-122.167 45.5 -193.5 45.5
c-48.667 0 -89.667 -6.66699 -123 -20l356 367h-246l-299 -302c-66.667 -66.667 -116.334 -134.5 -149.001 -203.5s-49 -134.167 -49 -195.5c0 -68 18.833 -129.833 56.5 -185.5s90.667 -100.167 159 -133.5s148.5 -50 240.5 -50zM1669 148.999
c-70.667 0 -127.667 18.1689 -171 54.502s-65 80.166 -65 131.499c0 55.333 23.333 101.5 70 138.5s103.334 55.5 170.001 55.5c67.333 0 123.666 -18.333 168.999 -55s68 -82.334 68 -137.001c0 -54 -22.833 -98.833 -68.5 -134.5s-103.167 -53.5 -172.5 -53.5z" />
    <glyph glyph-name="uni215A" unicode="&#x215a;" horiz-adv-x="2832" 
d="M675 580c85.333 0 161.497 15.001 228.497 45.001s120 71.833 159 125.5s58.5 116.167 58.5 187.5c0 76 -23.167 140.5 -69.5 193.5s-111.5 91.167 -195.5 114.5c-48.667 16 -99.5 25.333 -152.5 28s-103.833 -1 -152.5 -11l38 219h454v168h-621l-101 -577
c45.333 24.667 89.333 43 132 55s88.667 18 138 18c96.667 0 174.834 -18.333 234.501 -55s89.5 -88.334 89.5 -155.001c0 -56.667 -21.833 -101.167 -65.5 -133.5s-102.167 -48.5 -175.5 -48.5c-63.333 0 -118.666 11.833 -165.999 35.5s-79.666 56.167 -96.999 97.5
l-164 -79c30 -70 84 -125.5 162 -166.5s166.667 -61.5 266 -61.5zM848.997 0.000976562h178l1053 1650h-178zM2192 -19.999c86 0 161.834 15.332 227.501 45.999s116.834 73.334 153.5 128.001c36.667 54.667 55 118 55 190c0 70.667 -17 133 -51 187
s-79.833 96.167 -137.5 126.5s-122.167 45.5 -193.5 45.5c-48.667 0 -89.667 -6.66699 -123 -20l356 367h-246l-299 -302c-66.667 -66.667 -116.334 -134.5 -149.001 -203.5s-49 -134.167 -49 -195.5c0 -68 18.833 -129.833 56.5 -185.5s90.667 -100.167 159 -133.5
s148.5 -50 240.5 -50zM2183 149c-70.667 0 -127.667 18.1689 -171 54.502s-65 80.166 -65 131.499c0 55.333 23.333 101.5 70 138.5s103.334 55.5 170 55.5c67.333 0 123.666 -18.333 169 -55c45.333 -36.667 68 -82.334 68 -137.001c0 -54 -22.833 -98.833 -68.5 -134.5
s-103.167 -53.5 -172.5 -53.5z" />
    <glyph glyph-name="oneeighth" unicode="&#x215b;" horiz-adv-x="2414" 
d="M317 600h203v1050h-326v-199h123v-851zM335 0h178l1053 1650h-178zM1714 -21c76 0 143.832 13.668 203.499 41.001s106.834 64.666 141.501 111.999s52 100.666 52 159.999c0 60.667 -18 116 -54 166s-84.667 87.333 -146 112c47.333 23.333 84.833 56.166 112.5 98.499
s41.5 87.833 41.5 136.5c0 52.667 -15.833 99.667 -47.5 141s-74 74 -127 98s-111.833 36 -176.5 36c-66 0 -125.333 -12.167 -178 -36.5s-94.334 -57.333 -125.001 -99s-46 -88.5 -46 -140.5c0 -48.667 13.833 -94 41.5 -136s64.834 -74.667 111.501 -98
c-60.667 -24.667 -109 -62.167 -145 -112.5s-54 -105.5 -54 -165.5c0 -59.333 17.167 -112.666 51.5 -159.999s81.333 -84.666 141 -111.999s127.167 -41 202.5 -41zM1715 644.001c-43.333 0 -79.832 13.333 -109.499 40s-44.5 60.334 -44.5 101.001
c0 40 14.833 73.333 44.5 100s66.167 40 109.5 40s79.666 -13.333 108.999 -40s44 -60 44 -100c0 -40.667 -14.5 -74.334 -43.5 -101.001s-65.5 -40 -109.5 -40zM1715 156.001c-50.667 0 -92.332 15 -124.999 45s-49 68 -49 114c0 46.667 16.667 85 50 115
s74.666 45 123.999 45s90.5 -15.167 123.5 -45.5s49.5 -68.5 49.5 -114.5s-16 -84 -48 -114s-73.667 -45 -125 -45z" />
    <glyph glyph-name="threeeighths" unicode="&#x215c;" horiz-adv-x="2873" 
d="M651 579c78 0 146.165 14.8311 204.498 44.498s103.5 69.834 135.5 120.501s48 107 48 169c0 56.667 -13.833 106.5 -41.5 149.5s-66.167 77.167 -115.5 102.5c81.333 49.333 122 120 122 212c0 56 -14.667 106.833 -44 152.5s-70 82.167 -122 109.5s-112 41 -180 41
c-86 0 -161.333 -22 -226 -66s-105.667 -102.667 -123 -176l162 -74c6 44 26.5 80.167 61.5 108.5s75.5 42.5 121.5 42.5c45.333 0 84 -13.833 116 -41.5s48 -61.167 48 -100.5c0 -40.667 -16.167 -76.5 -48.5 -107.5s-71.166 -46.5 -116.499 -46.5h-49v-136
c7.33301 3.33301 15.5 5.5 24.5 6.5s17.5 1.5 25.5 1.5c48 0 90 -16.667 126 -50s54 -75.666 54 -126.999c0 -46.667 -16.667 -84.667 -50 -114s-77.666 -44 -132.999 -44c-60 0 -108.833 16.5 -146.5 49.5s-58.167 75.5 -61.5 127.5l-189 -89
c21.333 -81.333 68.333 -145.833 141 -193.5s158 -71.5 256 -71.5zM792.998 -0.00195312h178l1053 1650h-178zM2173 -21.002c76 0 143.831 13.668 203.498 41.001s106.834 64.666 141.501 111.999s52 100.666 52 159.999c0 60.667 -18 116 -54 166s-84.667 87.333 -146 112
c47.333 23.333 84.833 56.166 112.5 98.499s41.5 87.833 41.5 136.5c0 52.667 -15.833 99.667 -47.5 141s-74 74 -127 98s-111.833 36 -176.5 36c-66 0 -125.333 -12.167 -178 -36.5s-94.334 -57.333 -125.001 -99s-46 -88.5 -46 -140.5c0 -48.667 13.833 -94 41.5 -136
s64.834 -74.667 111.501 -98c-60.667 -24.667 -109 -62.167 -145 -112.5s-54 -105.5 -54 -165.5c0 -59.333 17.167 -112.666 51.5 -159.999s81.333 -84.666 141 -111.999s127.167 -41 202.501 -41zM2174 643.999c-43.333 0 -79.833 13.333 -109.5 40
s-44.5 60.334 -44.5 101.001c0 40 14.833 73.333 44.5 100s66.167 40 109.5 40s79.666 -13.333 109 -40c29.333 -26.667 44 -60 44 -100c0 -40.667 -14.5 -74.334 -43.5 -101.001s-65.5 -40 -109.5 -40zM2174 155.999c-50.667 0 -92.334 15 -125 45
c-32.667 30 -49 68 -49 114c0 46.667 16.667 85 50 115s74.666 45 124 45c49.333 0 90.5 -15.167 123.5 -45.5s49.5 -68.5 49.5 -114.5s-16 -84 -48 -114s-73.667 -45 -125 -45z" />
    <glyph glyph-name="fiveeighths" unicode="&#x215d;" horiz-adv-x="2929" 
d="M675 580c85.333 0 161.497 15.001 228.497 45.001s120 71.833 159 125.5s58.5 116.167 58.5 187.5c0 76 -23.167 140.5 -69.5 193.5s-111.5 91.167 -195.5 114.5c-48.667 16 -99.5 25.333 -152.5 28s-103.833 -1 -152.5 -11l38 219h454v168h-621l-101 -577
c45.333 24.667 89.333 43 132 55s88.667 18 138 18c96.667 0 174.834 -18.333 234.501 -55s89.5 -88.334 89.5 -155.001c0 -56.667 -21.833 -101.167 -65.5 -133.5s-102.167 -48.5 -175.5 -48.5c-63.333 0 -118.666 11.833 -165.999 35.5s-79.666 56.167 -96.999 97.5
l-164 -79c30 -70 84 -125.5 162 -166.5s166.667 -61.5 266 -61.5zM848.997 0.000976562h178l1053 1650h-178zM2228 -20.999c76 0 143.832 13.668 203.499 41.001s106.834 64.666 141.501 111.999s52 100.666 52 159.999c0 60.667 -18 116 -54 166s-84.667 87.333 -146 112
c47.333 23.333 84.833 56.166 112.5 98.499s41.5 87.833 41.5 136.5c0 52.667 -15.833 99.667 -47.5 141s-74 74 -127 98s-111.833 36 -176.5 36c-66 0 -125.333 -12.167 -178 -36.5s-94.334 -57.333 -125.001 -99s-46 -88.5 -46 -140.5c0 -48.667 13.833 -94 41.5 -136
s64.834 -74.667 111.501 -98c-60.667 -24.667 -109 -62.167 -145 -112.5s-54 -105.5 -54 -165.5c0 -59.333 17.167 -112.666 51.5 -159.999s81.333 -84.666 141 -111.999s127.167 -41 202.5 -41zM2229 644.002c-43.333 0 -79.833 13.333 -109.5 40
s-44.5 60.334 -44.5 101.001c0 40 14.833 73.333 44.5 100s66.167 40 109.5 40s79.666 -13.333 109 -40c29.333 -26.667 44 -60 44 -100c0 -40.667 -14.5 -74.334 -43.5 -101.001s-65.5 -40 -109.5 -40zM2229 156.002c-50.667 0 -92.334 15 -125 45
c-32.667 30 -49 68 -49 114c0 46.667 16.667 85 50 115s74.666 45 124 45c49.333 0 90.5 -15.167 123.5 -45.5s49.5 -68.5 49.5 -114.5s-16 -84 -48 -114s-73.667 -45 -125 -45z" />
    <glyph glyph-name="seveneighths" unicode="&#x215e;" horiz-adv-x="2782" 
d="M254 600h240l573 990v60h-787v-179h487zM702 0h178l1053 1650h-178zM2081 -21c76 0 143.833 13.668 203.5 41.001s106.834 64.666 141.5 111.999c34.667 47.333 52 100.666 52 159.999c0 60.667 -18 116 -54 166s-84.667 87.333 -146 112
c47.333 23.333 84.833 56.166 112.5 98.499s41.5 87.833 41.5 136.5c0 52.667 -15.833 99.667 -47.5 141s-74 74 -127 98s-111.833 36 -176.5 36c-66 0 -125.333 -12.167 -178 -36.5s-94.334 -57.333 -125.001 -99s-46 -88.5 -46 -140.5c0 -48.667 13.833 -94 41.5 -136
s64.834 -74.667 111.501 -98c-60.667 -24.667 -109 -62.167 -145 -112.5s-54 -105.5 -54 -165.5c0 -59.333 17.167 -112.666 51.5 -159.999s81.333 -84.666 141 -111.999s127.167 -41 202.5 -41zM2082 644.001c-43.333 0 -79.833 13.333 -109.5 40
s-44.5 60.334 -44.5 101.001c0 40 14.833 73.333 44.5 100s66.167 40 109.5 40s79.666 -13.333 109 -40c29.333 -26.667 44 -60 44 -100c0 -40.667 -14.5 -74.334 -43.5 -101.001s-65.5 -40 -109.5 -40zM2082 156.001c-50.667 0 -92.332 15 -124.999 45s-49 68 -49 114
c0 46.667 16.667 85 50 115s74.666 45 123.999 45s90.5 -15.167 123.5 -45.5s49.5 -68.5 49.5 -114.5s-16 -84 -48 -114s-73.667 -45 -125 -45z" />
    <glyph glyph-name="uni215F" unicode="&#x215f;" horiz-adv-x="1015" 
d="M317 600h203v1050h-326v-199h123v-851zM335 0h178l1053 1650h-178z" />
    <glyph glyph-name="uni2189" unicode="&#x2189;" horiz-adv-x="2989" 
d="M738 579c104 0 195.333 23.167 274 69.5s140 111 184 194s66 178.833 66 287.5c0 109.333 -22 205.166 -66 287.499s-105.333 146.666 -184 192.999s-170 69.5 -274 69.5s-195.5 -23.167 -274.5 -69.5s-140.5 -110.666 -184.5 -192.999s-66 -178.166 -66 -287.499
c0 -108.667 22 -204.5 66 -287.5s105.5 -147.667 184.5 -194s170.5 -69.5 274.5 -69.5zM738 759c-94.667 0 -169.999 33.167 -225.999 99.5s-84 156.833 -84 271.5s28.167 205.167 84.5 271.5s131.5 99.5 225.5 99.5c93.333 0 168.166 -33 224.499 -99
s84.5 -156.667 84.5 -272c0 -114.667 -28 -205.167 -84 -271.5s-131 -99.5 -225 -99.5zM924.001 0h178l1053 1650h-178zM2293 -21c78.667 0 146.999 14.8311 204.999 44.498s103 69.834 135 120.501s48 107 48 169c0 56.667 -13.833 106.5 -41.5 149.5
s-66.167 77.167 -115.5 102.5c81.333 49.333 122 120.333 122 213c0 55.333 -14.667 105.833 -44 151.5s-70 82.167 -122 109.5s-112.333 41 -181 41c-85.333 0 -160.166 -22 -224.5 -66c-64.333 -44 -105.166 -102.667 -122.499 -176l161 -74c6 44 26.5 80.167 61.5 108.5
s75.5 42.5 121.5 42.5c45.333 0 84 -13.833 116 -41.5s48 -61.167 48 -100.5c0 -40.667 -16 -76.5 -48 -107.5s-70.667 -46.5 -116 -46.5h-49v-136c12.667 5.33301 29 8 49 8c48.667 0 91 -16.667 127 -50s54 -75.666 54 -126.999c0 -46.667 -16.833 -84.667 -50.5 -114
s-78.167 -44 -133.5 -44c-59.333 0 -108 16.5 -146 49.5s-58.667 75.5 -62 127.5l-189 -89c21.333 -81.333 68.333 -145.833 141 -193.5s158 -71.5 256 -71.5z" />
    <glyph glyph-name="partialdiff" unicode="&#x2202;" horiz-adv-x="1407" 
d="M724 -35c122 0 226.333 28.8359 313 86.5029s153.167 140 199.5 247s69.5 234.833 69.5 383.5c0 167.333 -29.167 321.166 -87.5 461.499s-140.833 266.833 -247.5 379.5s-233.334 210 -380.001 292l-110 -185c146.667 -84.667 265.667 -188.834 357 -312.501
s150 -264.167 176 -421.5c-28 54.667 -74.667 98.167 -140 130.5s-136 48.5 -212 48.5c-106 0 -201 -24.833 -285 -74.5s-150.333 -116.167 -199 -199.5s-73 -175 -73 -275c0 -106.667 27.333 -202.334 82 -287.001s128.834 -151.5 222.501 -200.5s198.5 -73.5 314.5 -73.5z
M700 184.003c-59.333 0 -114.666 13.3311 -165.999 39.998s-92.5 64.334 -123.5 113.001s-46.5 106 -46.5 172c0 59.333 13.5 114.666 40.5 165.999s65 92.833 114 124.5s106.5 47.5 172.5 47.5c60 0 115.5 -13.5 166.5 -40.5s92 -64.833 123 -113.5s46.5 -106 46.5 -172
c0 -59.333 -13.5 -114.666 -40.5 -165.999s-64.833 -92.666 -113.5 -123.999s-106.334 -47 -173.001 -47z" />
    <glyph glyph-name="emptyset" unicode="&#x2205;" horiz-adv-x="1200" 
d="M196 120l137 136.999c38.667 -29.333 82 -52.333 130 -69s99 -25 153 -25c86 0 164.167 20.5 234.5 61.5s126.166 96.667 167.499 167s62 149.5 62 237.5c0 54 -8.16699 105 -24.5 153s-38.833 91.333 -67.5 130l136 137l-88 89l-137 -137
c-38.667 30 -82 53.167 -130 69.5s-98.667 24.5 -152 24.5c-87.333 0 -166.166 -20.833 -236.499 -62.5s-126 -97.667 -167 -168s-61.5 -149.166 -61.5 -236.499c0 -53.333 8.16699 -103.833 24.5 -151.5s38.833 -91.167 67.5 -130.5l-137 -137zM311 628.999
c0 58.667 13.334 110.667 40.001 156s63.167 81 109.5 107s98.166 39 155.499 39c62 0 117.667 -15.333 167 -46l-424 -424c-32 49.333 -48 105.333 -48 168zM616.001 327.999c-62 0 -117.667 15 -167 45l424 424c31.333 -48.667 47 -104.667 47 -168
c0 -58 -13.167 -109.667 -39.5 -155s-62.5 -81 -108.5 -107s-98 -39 -156 -39z" />
    <glyph glyph-name="product" unicode="&#x220f;" 
d="M407 0h194v1540h245v-1540h194v1540h166v180h-965v-180h166v-1540z" />
    <glyph glyph-name="summation" unicode="&#x2211;" 
d="M241 0h965v180h-696l236 680l-236 680h696v180h-965l310 -860z" />
    <glyph glyph-name="minus" unicode="&#x2212;" horiz-adv-x="1605" 
d="M289 721h1027v216h-1027v-216z" />
    <glyph glyph-name="DivisionSlash" unicode="&#x2215;" horiz-adv-x="1024" 
d="M-5 -240h210l824 1960h-210z" />
    <glyph glyph-name="radical" unicode="&#x221a;" horiz-adv-x="1754" 
d="M502 -32h231l391 1572h389v180h-544l-362 -1536l-171 425h-195z" />
    </font>
</defs>
</svg>
